<?xml version="1.0" encoding="utf-8"?>
<!-- Generator: Adobe Illustrator 18.0.0, SVG Export Plug-In . SVG Version: 6.00 Build 0)  -->
<!DOCTYPE svg PUBLIC "-//W3C//DTD SVG 1.1//EN" "http://www.w3.org/Graphics/SVG/1.1/DTD/svg11.dtd">
<svg version="1.1" id="Laag_1" xmlns="http://www.w3.org/2000/svg" xmlns:xlink="http://www.w3.org/1999/xlink" x="0px" y="0px"
	 viewBox="0 0 481 481" enable-background="new 0 0 481 481" xml:space="preserve">
<linearGradient id="SVGID_1_" gradientUnits="userSpaceOnUse" x1="440.5653" y1="-51.6701" x2="440.5653" y2="481.4738" gradientTransform="matrix(0.9982 0 0 -0.9982 0.3234 480.8262)">
	<stop  offset="0" style="stop-color:#009688"/>
	<stop  offset="1" style="stop-color:#90BC65"/>
</linearGradient>
<path fill="url(#SVGID_1_)" d="M440.1,47.9c-22,0-39.9,17.9-39.9,39.9v313.3l39.9,79.9l39.9-79.9V87.8
	C480,65.8,462.1,47.9,440.1,47.9z M432.1,372l-9.2-9.2l-6.7,10.1V159.7h16V372z M417.3,399.8l8-12l14.7,14.7l14.7-14.7l8,12
	l-22.7,45.5L417.3,399.8z M464,372.9l-6.7-10.1l-9.2,9.2V159.7h16V372.9z M464,143.7h-47.9v-16H464V143.7z M416.1,111.8v-24
	c0-13.2,10.7-24,24-24c13.2,0,24,10.7,24,24v24H416.1z"/>
<linearGradient id="SVGID_2_" gradientUnits="userSpaceOnUse" x1="184.5653" y1="-51.6701" x2="184.5653" y2="481.4738" gradientTransform="matrix(0.9982 0 0 -0.9982 0.3234 480.8262)">
	<stop  offset="0" style="stop-color:#009688"/>
	<stop  offset="1" style="stop-color:#90BC65"/>
</linearGradient>
<path fill="url(#SVGID_2_)" d="M320.3,0H0.9v431.2h47.9v47.9h319.4V47.9h-47.9V0z M16.9,415.2V16h287.5v31.9H48.8v367.3H16.9z
	 M352.2,463.1H64.8V63.9h287.5V463.1z"/>
<linearGradient id="SVGID_3_" gradientUnits="userSpaceOnUse" x1="128.5653" y1="-51.6701" x2="128.5653" y2="481.4738" gradientTransform="matrix(0.9982 0 0 -0.9982 0.3234 480.8262)">
	<stop  offset="0" style="stop-color:#009688"/>
	<stop  offset="1" style="stop-color:#90BC65"/>
</linearGradient>
<path fill="url(#SVGID_3_)" d="M160.6,95.8H96.7v63.9h63.9V95.8z M144.6,143.7h-31.9v-31.9h31.9V143.7z"/>
<linearGradient id="SVGID_4_" gradientUnits="userSpaceOnUse" x1="128.5653" y1="-51.6701" x2="128.5653" y2="481.4738" gradientTransform="matrix(0.9982 0 0 -0.9982 0.3234 480.8262)">
	<stop  offset="0" style="stop-color:#009688"/>
	<stop  offset="1" style="stop-color:#90BC65"/>
</linearGradient>
<path fill="url(#SVGID_4_)" d="M160.6,183.7H96.7v63.9h63.9V183.7z M144.6,231.6h-31.9v-31.9h31.9V231.6z"/>
<linearGradient id="SVGID_5_" gradientUnits="userSpaceOnUse" x1="128.5653" y1="-51.6701" x2="128.5653" y2="481.4738" gradientTransform="matrix(0.9982 0 0 -0.9982 0.3234 480.8262)">
	<stop  offset="0" style="stop-color:#009688"/>
	<stop  offset="1" style="stop-color:#90BC65"/>
</linearGradient>
<path fill="url(#SVGID_5_)" d="M160.6,271.5H96.7v63.9h63.9V271.5z M144.6,319.4h-31.9v-31.9h31.9V319.4z"/>
<linearGradient id="SVGID_6_" gradientUnits="userSpaceOnUse" x1="128.5653" y1="-51.6701" x2="128.5653" y2="481.4738" gradientTransform="matrix(0.9982 0 0 -0.9982 0.3234 480.8262)">
	<stop  offset="0" style="stop-color:#009688"/>
	<stop  offset="1" style="stop-color:#90BC65"/>
</linearGradient>
<path fill="url(#SVGID_6_)" d="M160.6,367.3H96.7v63.9h63.9V367.3z M144.6,415.2h-31.9v-31.9h31.9V415.2z"/>
<g>
	
		<linearGradient id="SVGID_7_" gradientUnits="userSpaceOnUse" x1="256.5653" y1="-51.6701" x2="256.5653" y2="481.4738" gradientTransform="matrix(0.9982 0 0 -0.9982 0.3234 480.8262)">
		<stop  offset="0" style="stop-color:#009688"/>
		<stop  offset="1" style="stop-color:#90BC65"/>
	</linearGradient>
	<path fill="url(#SVGID_7_)" d="M192.5,103.8h127.8v16H192.5V103.8z"/>
	
		<linearGradient id="SVGID_8_" gradientUnits="userSpaceOnUse" x1="256.5653" y1="-51.6701" x2="256.5653" y2="481.4738" gradientTransform="matrix(0.9982 0 0 -0.9982 0.3234 480.8262)">
		<stop  offset="0" style="stop-color:#009688"/>
		<stop  offset="1" style="stop-color:#90BC65"/>
	</linearGradient>
	<path fill="url(#SVGID_8_)" d="M192.5,135.7h127.8v16H192.5V135.7z"/>
	
		<linearGradient id="SVGID_9_" gradientUnits="userSpaceOnUse" x1="256.5653" y1="-51.6701" x2="256.5653" y2="481.4738" gradientTransform="matrix(0.9982 0 0 -0.9982 0.3234 480.8262)">
		<stop  offset="0" style="stop-color:#009688"/>
		<stop  offset="1" style="stop-color:#90BC65"/>
	</linearGradient>
	<path fill="url(#SVGID_9_)" d="M192.5,191.6h127.8v16H192.5V191.6z"/>
	
		<linearGradient id="SVGID_10_" gradientUnits="userSpaceOnUse" x1="256.5653" y1="-51.6701" x2="256.5653" y2="481.4738" gradientTransform="matrix(0.9982 0 0 -0.9982 0.3234 480.8262)">
		<stop  offset="0" style="stop-color:#009688"/>
		<stop  offset="1" style="stop-color:#90BC65"/>
	</linearGradient>
	<path fill="url(#SVGID_10_)" d="M192.5,223.6h127.8v16H192.5V223.6z"/>
	
		<linearGradient id="SVGID_11_" gradientUnits="userSpaceOnUse" x1="256.5653" y1="-51.6701" x2="256.5653" y2="481.4738" gradientTransform="matrix(0.9982 0 0 -0.9982 0.3234 480.8262)">
		<stop  offset="0" style="stop-color:#009688"/>
		<stop  offset="1" style="stop-color:#90BC65"/>
	</linearGradient>
	<path fill="url(#SVGID_11_)" d="M192.5,279.5h127.8v16H192.5V279.5z"/>
	
		<linearGradient id="SVGID_12_" gradientUnits="userSpaceOnUse" x1="256.5653" y1="-51.6701" x2="256.5653" y2="481.4738" gradientTransform="matrix(0.9982 0 0 -0.9982 0.3234 480.8262)">
		<stop  offset="0" style="stop-color:#009688"/>
		<stop  offset="1" style="stop-color:#90BC65"/>
	</linearGradient>
	<path fill="url(#SVGID_12_)" d="M192.5,311.4h127.8v16H192.5V311.4z"/>
	
		<linearGradient id="SVGID_13_" gradientUnits="userSpaceOnUse" x1="256.5653" y1="-51.6701" x2="256.5653" y2="481.4738" gradientTransform="matrix(0.9982 0 0 -0.9982 0.3234 480.8262)">
		<stop  offset="0" style="stop-color:#009688"/>
		<stop  offset="1" style="stop-color:#90BC65"/>
	</linearGradient>
	<path fill="url(#SVGID_13_)" d="M192.5,375.3h127.8v16H192.5V375.3z"/>
</g>
<linearGradient id="SVGID_14_" gradientUnits="userSpaceOnUse" x1="208.5653" y1="-51.6701" x2="208.5653" y2="481.4738" gradientTransform="matrix(0.9982 0 0 -0.9982 0.3234 480.8262)">
	<stop  offset="0" style="stop-color:#009688"/>
	<stop  offset="1" style="stop-color:#90BC65"/>
</linearGradient>
<path fill="url(#SVGID_14_)" d="M192.5,407.2h31.9v16h-31.9V407.2z"/>
<linearGradient id="SVGID_15_" gradientUnits="userSpaceOnUse" x1="280.5653" y1="-51.6701" x2="280.5653" y2="481.4738" gradientTransform="matrix(0.9982 0 0 -0.9982 0.3234 480.8262)">
	<stop  offset="0" style="stop-color:#009688"/>
	<stop  offset="1" style="stop-color:#90BC65"/>
</linearGradient>
<path fill="url(#SVGID_15_)" d="M272.4,407.2h16v16h-16V407.2z"/>
<linearGradient id="SVGID_16_" gradientUnits="userSpaceOnUse" x1="248.5653" y1="-51.6701" x2="248.5653" y2="481.4738" gradientTransform="matrix(0.9982 0 0 -0.9982 0.3234 480.8262)">
	<stop  offset="0" style="stop-color:#009688"/>
	<stop  offset="1" style="stop-color:#90BC65"/>
</linearGradient>
<path fill="url(#SVGID_16_)" d="M240.4,407.2h16v16h-16V407.2z"/>
<linearGradient id="SVGID_17_" gradientUnits="userSpaceOnUse" x1="312.5653" y1="-51.6701" x2="312.5653" y2="481.4738" gradientTransform="matrix(0.9982 0 0 -0.9982 0.3234 480.8262)">
	<stop  offset="0" style="stop-color:#009688"/>
	<stop  offset="1" style="stop-color:#90BC65"/>
</linearGradient>
<path fill="url(#SVGID_17_)" d="M304.3,407.2h16v16h-16V407.2z"/>
</svg>
