<svg height="480pt" viewBox="0 0 480 480" width="480pt" xmlns="http://www.w3.org/2000/svg" xmlns:xlink="http://www.w3.org/1999/xlink"><linearGradient id="lg1"><stop offset="0" stop-color="#006df0"/><stop offset="1" stop-color="#00e7f0"/></linearGradient><linearGradient id="linear0" gradientUnits="userSpaceOnUse" x1="240" x2="240" xlink:href="#lg1" y1="563.595913" y2="-30.492087"/><linearGradient id="linear1" gradientUnits="userSpaceOnUse" x1="252.944" x2="252.944" xlink:href="#lg1" y1="563.595913" y2="-30.492087"/><linearGradient id="linear3" gradientUnits="userSpaceOnUse" x1="208" x2="208" xlink:href="#lg1" y1="563.595913" y2="-30.492087"/><linearGradient id="linear4" gradientUnits="userSpaceOnUse" x1="272" x2="272" xlink:href="#lg1" y1="563.595913" y2="-30.492087"/><path d="m240 79.613281c-53.019531 0-96 42.980469-96 96s42.980469 96 96 96 96-42.980469 96-96c-.058594-52.996093-43.003906-95.945312-96-96zm0 176c-44.183594 0-80-35.820312-80-80 0-44.183593 35.816406-80 80-80s80 35.816407 80 80c-.046875 44.160157-35.835938 79.949219-80 80zm0 0" fill="url(#linear0)"/><path d="m216 212.554688 73.886719-36.941407-73.886719-36.945312zm16-48 22.113281 11.058593-22.113281 11.054688zm0 0" fill="url(#linear1)"/><path d="m232 287.613281h16v16h-16zm0 0" fill="url(#linear0)"/><path d="m200 287.613281h16v16h-16zm0 0" fill="url(#linear3)"/><path d="m264 287.613281h16v16h-16zm0 0" fill="url(#linear4)"/><path d="m448 263.613281h-.65625c-10.015625-17.292969-27.523438-28.921875-47.34375-31.449219v-18.023437c9.554688-3.378906 15.957031-12.394531 16-22.527344v-24h-.199219c-4.476562-93.835937-81.859375-167.613281-175.800781-167.613281s-171.324219 73.777344-175.800781 167.613281h-.199219v24c.042969 10.132813 6.445312 19.148438 16 22.527344v18.023437c-19.820312 2.527344-37.328125 14.15625-47.34375 31.449219h-.65625c-17.671875 0-32 14.324219-32 32 0 17.671875 14.328125 32 32 32h.65625c10.015625 17.289063 27.523438 28.921875 47.34375 31.445313v32.554687c.042969 39.746094 32.253906 71.953125 72 72h49.472656c3.378906 9.554688 12.394532 15.957031 22.527344 16h32c13.253906 0 24-10.746093 24-24 0-13.257812-10.746094-24-24-24h-32c-10.132812.039063-19.148438 6.445313-22.527344 16h-49.472656c-30.910156-.042969-55.960938-25.089843-56-56v-32h16c13.253906 0 24-10.746093 24-24v-80c0-13.257812-10.746094-24-24-24h-16v-17.472656c9.554688-3.378906 15.957031-12.394531 16-22.527344v-16c0-70.695312 57.308594-128 128-128s128 57.304688 128 128v16c.042969 10.132813 6.445312 19.148438 16 22.527344v17.472656h-16c-13.253906 0-24 10.742188-24 24v80c0 13.253907 10.746094 24 24 24h24c22.835938-.03125 43.925781-12.226562 55.34375-32h.65625c17.671875 0 32-14.328125 32-32 0-17.675781-14.328125-32-32-32zm-224 184h32c4.417969 0 8 3.582031 8 8s-3.582031 8-8 8h-32c-4.417969 0-8-3.582031-8-8s3.582031-8 8-8zm176-256c0 4.417969-3.582031 8-8 8s-8-3.582031-8-8v-8h16zm-379.304688 115.300781c-3.761718-3.761718-5.40625-9.152343-4.386718-14.375 1.023437-5.226562 4.574218-9.597656 9.476562-11.671874-2.375 9.679687-2.375 19.792968 0 29.472656-1.902344-.800782-3.628906-1.964844-5.089844-3.425782zm19.304688-11.300781c.027344-26.5 21.5-47.976562 48-48h8v96h-8c-26.5-.027343-47.972656-21.503906-48-48zm80-40v80c0 4.417969-3.582031 8-8 8v-96c4.417969 0 8 3.582031 8 8zm-24-64c0 4.417969-3.582031 8-8 8s-8-3.582031-8-8v-8h16zm144-160c-76.339844.125-139.324219 59.78125-143.59375 136h-16c4.09375-85.167969 74.335938-152.121093 159.601562-152.121093 85.265626 0 155.507813 66.953124 159.601563 152.121093h-16c-4.269531-76.226562-67.265625-135.882812-143.609375-136zm120 304v-80c0-4.417969 3.582031-8 8-8v96c-4.417969 0-8-3.582031-8-8zm32 8h-8v-96h8c26.507812 0 48 21.488281 48 48 0 26.507813-21.492188 48-48 48zm67.304688-36.699219c-1.457032 1.460938-3.183594 2.621094-5.082032 3.425782 2.375-9.679688 2.375-19.792969 0-29.472656 4.902344 2.074218 8.457032 6.445312 9.476563 11.671874 1.019531 5.222657-.625 10.613282-4.386719 14.375zm0 0" fill="url(#linear0)"/></svg>