<svg height="480pt" viewBox="0 0 480 480" width="480pt" xmlns="http://www.w3.org/2000/svg" xmlns:xlink="http://www.w3.org/1999/xlink"><linearGradient id="lg1"><stop offset="0" stop-color="#006df0"/><stop offset="1" stop-color="#00e7f0"/></linearGradient><linearGradient id="linear0" gradientUnits="userSpaceOnUse" x1="128" x2="128" xlink:href="#lg1" y1="527.288" y2="-17.672"/><linearGradient id="linear1" gradientUnits="userSpaceOnUse" x1="168" x2="168" xlink:href="#lg1" y1="527.288" y2="-17.672"/><linearGradient id="linear2" gradientUnits="userSpaceOnUse" x1="152" x2="152" xlink:href="#lg1" y1="527.288" y2="-17.672"/><linearGradient id="linear3" gradientUnits="userSpaceOnUse" x1="240" x2="240" xlink:href="#lg1" y1="527.288" y2="-17.672"/><linearGradient id="linear5" gradientUnits="userSpaceOnUse" x1="95.824" x2="95.824" xlink:href="#lg1" y1="527.288" y2="-17.672"/><linearGradient id="linear8" gradientUnits="userSpaceOnUse" x1="207.824" x2="207.824" xlink:href="#lg1" y1="527.288" y2="-17.672"/><linearGradient id="linear11" gradientUnits="userSpaceOnUse" x1="100" x2="100" xlink:href="#lg1" y1="527.288" y2="-17.672"/><linearGradient id="linear12" gradientUnits="userSpaceOnUse" x1="211.56" x2="211.56" xlink:href="#lg1" y1="527.288" y2="-17.672"/><linearGradient id="linear13" gradientUnits="userSpaceOnUse" x1="243.08" x2="243.08" xlink:href="#lg1" y1="527.288" y2="-17.672"/><linearGradient id="linear14" gradientUnits="userSpaceOnUse" x1="179.44" x2="179.44" xlink:href="#lg1" y1="527.288" y2="-17.672"/><path d="m120 24h16v16h-16zm0 0" fill="url(#linear0)"/><path d="m152 24h32v16h-32zm0 0" fill="url(#linear1)"/><path d="m176 440c0-13.253906-10.746094-24-24-24s-24 10.746094-24 24 10.746094 24 24 24 24-10.746094 24-24zm-24 8c-4.417969 0-8-3.582031-8-8s3.582031-8 8-8 8 3.582031 8 8-3.582031 8-8 8zm0 0" fill="url(#linear2)"/><path d="m474.648438 103.257812c-11.117188-4.160156-22.796876-6.605468-34.648438-7.257812-12.523438.035156-24.300781 5.964844-31.792969 16h-16.207031c-22.082031.027344-39.972656 17.917969-40 40v48c.019531 10.144531 6.429688 19.175781 16 22.542969v169.457031c0 4.417969-3.582031 8-8 8h-16v-273.472656c9.554688-3.378906 15.957031-12.394532 16-22.527344v-40h8.207031c7.492188 10.035156 19.269531 15.964844 31.792969 16 11.851562-.652344 23.53125-3.097656 34.648438-7.257812l5.351562-1.878907v-61.726562l-5.351562-1.878907c-11.117188-4.160156-22.796876-6.605468-34.648438-7.257812-12.523438.0351562-24.300781 5.964844-31.792969 16h-16.207031c-22.082031.027344-39.972656 17.917969-40 40v48c.019531 10.144531 6.429688 19.175781 16 22.542969v273.457031h-24v-360c-.027344-22.082031-17.917969-39.9726562-40-40h-224c-22.082031.0273438-39.9726562 17.917969-40 40v400c.0273438 22.082031 17.917969 39.972656 40 40h224c22.082031-.027344 39.972656-17.917969 40-40v-24h56c13.253906 0 24-10.746094 24-24v-169.472656c9.554688-3.378906 15.957031-12.394532 16-22.527344v-40h8.207031c7.492188 10.035156 19.269531 15.964844 31.792969 16 11.851562-.652344 23.53125-3.097656 34.648438-7.257812l5.351562-1.878907v-61.726562zm-74.648438-87.257812c8.167969.472656 16.234375 2.015625 24 4.59375v38.8125c-7.765625 2.578125-15.832031 4.121094-24 4.59375-13.253906 0-24-10.746094-24-24s10.746094-24 24-24zm-72 40c0-13.253906 10.746094-24 24-24h8.800781c-1.078125 5.277344-1.078125 10.722656 0 16h-.800781c-8.835938 0-16 7.164062-16 16v40c0 4.417969-3.582031 8-8 8-2.15625.003906-4.222656-.878906-5.703125-2.449219-1.484375-1.464843-2.3125-3.464843-2.296875-5.550781zm-40 343.886719h-272v-335.886719h272zm-248-383.886719h224c13.253906 0 24 10.746094 24 24v8h-272v-8c0-13.253906 10.746094-24 24-24zm224 448h-224c-13.253906 0-24-10.746094-24-24v-24.113281h272v24.113281c0 13.253906-10.746094 24-24 24zm136-320c-8.835938 0-16 7.164062-16 16v40c0 4.417969-3.582031 8-8 8-2.15625.003906-4.222656-.878906-5.703125-2.449219-1.484375-1.464843-2.3125-3.464843-2.296875-5.550781v-48c0-13.253906 10.746094-24 24-24h8.800781c-1.078125 5.277344-1.078125 10.722656 0 16zm64 11.40625c-7.765625 2.578125-15.832031 4.121094-24 4.59375-13.253906 0-24-10.746094-24-24s10.746094-24 24-24c8.167969.472656 16.234375 2.015625 24 4.59375zm0 0" fill="url(#linear3)"/><path d="m49.839844 253.503906c30.167968-8.625 62.152344-8.625 92.320312 0l9.839844 2.816406 9.839844-2.816406c30.167968-8.625 62.152344-8.625 92.320312 0l17.839844 5.105469v-160.640625l-13.457031-3.839844c-33.03125-9.457031-68.054688-9.457031-101.085938 0l-5.457031 1.550782-5.457031-1.550782c-33.03125-9.457031-68.054688-9.457031-101.085938 0l-13.457031 3.839844v160.640625zm204.320312-144 1.839844.527344v127.382812c-31.441406-8.488281-64.574219-8.460937-96 .074219v-127.457031l1.839844-.527344c30.167968-8.625 62.152344-8.625 92.320312 0zm-206.160156.527344 1.839844-.527344c30.167968-8.625 62.152344-8.625 92.320312 0l1.839844.527344v127.464844c-31.417969-8.589844-64.566406-8.621094-96-.082032zm0 0" fill="url(#linear2)"/><g fill="url(#linear5)"><path d="m126.214844 145.785156 2.882812-15.746094c-22.003906-4.035156-44.558594-4.011718-66.554687.074219l2.914062 15.726563c20.078125-3.722656 40.671875-3.742188 60.757813-.054688zm0 0"/><path d="m126.214844 177.785156 2.882812-15.746094c-22.003906-4.035156-44.558594-4.011718-66.554687.074219l2.914062 15.726563c20.078125-3.722656 40.671875-3.742188 60.757813-.054688zm0 0"/><path d="m129.097656 194.039062c-22.003906-4.035156-44.558594-4.011718-66.554687.074219l2.914062 15.726563c20.09375-3.726563 40.699219-3.746094 60.800781-.054688zm0 0"/></g><path d="m238.214844 145.785156 2.882812-15.746094c-22.003906-4.035156-44.558594-4.011718-66.554687.074219l2.914062 15.726563c20.078125-3.722656 40.671875-3.742188 60.757813-.054688zm0 0" fill="url(#linear8)"/><path d="m238.214844 177.785156 2.882812-15.746094c-22.003906-4.035156-44.558594-4.011718-66.554687.074219l2.914062 15.726563c20.078125-3.722656 40.671875-3.742188 60.757813-.054688zm0 0" fill="url(#linear8)"/><path d="m238.214844 209.785156 2.882812-15.746094c-22.003906-4.035156-44.558594-4.011718-66.554687.074219l2.914062 15.726563c20.078125-3.722656 40.671875-3.742188 60.757813-.054688zm0 0" fill="url(#linear8)"/><path d="m64 304c-8.835938 0-16 7.164062-16 16v16c0 8.835938 7.164062 16 16 16h22.398438l65.601562 28.136719v-104.273438l-65.601562 28.136719zm0 16h16v16h-16zm72 35.863281-40-17.136719v-21.453124l40-17.136719zm0 0" fill="url(#linear11)"/><path d="m203.0625 288.542969c-1.832031 1.074219-3.160156 2.835937-3.695312 4.890625-.535157 2.054687-.230469 4.238281.847656 6.070312 10.378906 17.578125 10.378906 39.414063 0 56.992188-2.242188 3.8125-.96875 8.71875 2.839844 10.960937 3.8125 2.242188 8.71875.96875 10.960937-2.839843 13.3125-22.597657 13.3125-50.636719 0-73.234376-2.238281-3.808593-7.144531-5.078124-10.953125-2.839843zm0 0" fill="url(#linear12)"/><path d="m234.617188 278.398438c-3.960938 1.957031-5.585938 6.753906-3.632813 10.714843 12.019531 24.507813 12.019531 53.203125 0 77.710938-1.953125 3.960937-.328125 8.757812 3.632813 10.710937 1.097656.539063 2.308593.8125 3.535156.800782 3.054687.011718 5.847656-1.71875 7.199218-4.457032 14.230469-28.976562 14.230469-62.910156 0-91.886718-.945312-1.902344-2.609374-3.347657-4.621093-4.023438-2.015625-.671875-4.214844-.515625-6.113281.429688zm0 0" fill="url(#linear13)"/><path d="m169.351562 299.824219c-3.191406 3.058593-3.296874 8.121093-.238281 11.3125 9.183594 9.367187 9.183594 24.359375 0 33.726562-2.0625 2.046875-2.851562 5.050781-2.0625 7.84375.789063 2.796875 3.027344 4.945313 5.855469 5.613281 2.824219.671876 5.789062-.242187 7.75-2.382812 15.125-15.554688 15.125-40.320312 0-55.875-3.058594-3.183594-8.117188-3.289062-11.304688-.238281zm0 0" fill="url(#linear14)"/></svg>