<svg height="480pt" viewBox="0 0 480 479" width="480pt" xmlns="http://www.w3.org/2000/svg" xmlns:xlink="http://www.w3.org/1999/xlink"><linearGradient id="lg1"><stop offset="0" stop-color="#006df0"/><stop offset="1" stop-color="#00e7f0"/></linearGradient><linearGradient id="linear0" gradientUnits="userSpaceOnUse" x1="176" x2="176" xlink:href="#lg1" y1="516.54" y2="-19.804"/><linearGradient id="linear1" gradientUnits="userSpaceOnUse" x1="56" x2="56" xlink:href="#lg1" y1="516.54" y2="-19.804"/><linearGradient id="linear2" gradientUnits="userSpaceOnUse" x1="200" x2="200" xlink:href="#lg1" y1="516.54" y2="-19.804"/><linearGradient id="linear5" gradientUnits="userSpaceOnUse" x1="168" x2="168" xlink:href="#lg1" y1="516.54" y2="-19.804"/><linearGradient id="linear7" gradientUnits="userSpaceOnUse" x1="232" x2="232" xlink:href="#lg1" y1="516.54" y2="-19.804"/><linearGradient id="linear8" gradientUnits="userSpaceOnUse" x1="424" x2="424" xlink:href="#lg1" y1="516.54" y2="-19.804"/><path d="m56 .5c-30.914062.035156-55.9648438 25.085938-56 56v344c.0273438 26.5 21.5 47.972656 48 48h192v30.953125l32-21.351563 32 21.335938v-30.9375h48v-448zm-8 432c-17.671875 0-32-14.328125-32-32s14.328125-32 32-32h288v24h-296c-4.417969 0-8 3.582031-8 8s3.582031 8 8 8h200v24zm240 17.046875-16-10.648437-16 10.664062v-41.0625h32zm16-17.046875v-24h32v24zm-256-80c-11.8125 0-23.207031 4.363281-32 12.246094v-308.246094c.027344-22.082031 17.917969-39.972656 40-40h280v336zm0 0" fill="url(#linear0)"/><path d="m56 32.5c-4.417969 0-8 3.582031-8 8v288c0 4.417969 3.582031 8 8 8s8-3.582031 8-8v-288c0-4.417969-3.582031-8-8-8zm0 0" fill="url(#linear1)"/><g fill="url(#linear2)"><path d="m96 48.5v112h208v-112zm192 96h-176v-80h176zm0 0"/><path d="m128 168.5h144v16h-144zm0 0"/><path d="m152 192.5h96v16h-96zm0 0"/></g><path d="m160 320.5h16v16h-16zm0 0" fill="url(#linear5)"/><path d="m192 320.5h16v16h-16zm0 0" fill="url(#linear2)"/><path d="m224 320.5h16v16h-16zm0 0" fill="url(#linear7)"/><path d="m424 .5c-30.914062.035156-55.964844 25.085938-56 56v338.398438l56 84 56-84v-338.398438c-.035156-30.914062-25.085938-55.964844-56-56zm8 357.601562-8 12-8-12v-245.601562h16zm-32-.890624-16 16v-260.710938h16zm-13.703125 36.328124 20.464844-20.453124 17.238281 25.8125 17.238281-25.863282 20.464844 20.457032-37.703125 56.609374zm77.703125-20.351562-16-16v-244.6875h16zm0-276.6875h-80v-16h80zm-80-32v-8c0-22.089844 17.910156-40 40-40s40 17.910156 40 40v8zm0 0" fill="url(#linear8)"/></svg>