<svg height="480pt" viewBox="0 0 480.648 480" width="480pt" xmlns="http://www.w3.org/2000/svg" xmlns:xlink="http://www.w3.org/1999/xlink"><linearGradient id="lg1"><stop offset="0" stop-color="#006df0"/><stop offset="1" stop-color="#00e7f0"/></linearGradient><linearGradient id="linear0" gradientUnits="userSpaceOnUse" x1="240" x2="240" xlink:href="#lg1" y1="515.204" y2="4.996"/><linearGradient id="linear1" gradientUnits="userSpaceOnUse" x1="88" x2="88" xlink:href="#lg1" y1="515.204" y2="4.996"/><linearGradient id="linear2" gradientUnits="userSpaceOnUse" x1="293.696" x2="293.696" xlink:href="#lg1" y1="515.204" y2="4.996"/><linearGradient id="linear3" gradientUnits="userSpaceOnUse" x1="168" x2="168" xlink:href="#lg1" y1="515.204" y2="4.996"/><path d="m456 384.324219h-25.472656c.898437-2.511719 1.472656-56 1.472656-56 0-13.253907-10.746094-24-24-24h-352c-13.253906 0-24 10.746093-24 24v48c.027344 2.730469.523438 5.4375 1.472656 8h-9.472656c-13.253906 0-24 10.746093-24 24v48c0 13.253906 10.746094 24 24 24h432c13.253906 0 24-10.746094 24-24v-48c0-13.253907-10.746094-24-24-24zm-216 32v48h-8v-48h-16v48h-80v-24h-16v24h-24v-64h224v40h16v-40h48v64h-128v-48zm-176-16h16v64h-16zm32-16v-64h16v64zm256 0v-64h16v64zm48 16h16v64h-16zm16-72v48c0 4.417969-3.582031 8-8 8h-24v-64h24c4.417969 0 8 3.582031 8 8zm-184-8v16h16v-16h56v40h16v-40h16v64h-152v-24h-16v24h-40v-64zm-184 56v-48c0-4.417969 3.582031-8 8-8h24v64h-24c-4.417969 0-8-3.582031-8-8zm-32 80v-48c0-4.417969 3.582031-8 8-8h24v64h-24c-4.417969 0-8-3.582031-8-8zm448 0c0 4.417969-3.582031 8-8 8h-24v-64h24c4.417969 0 8 3.582031 8 8zm0 0" fill="url(#linear0)"/><path d="m16 280.324219h24v-16h-24v-120h64v144h16v-40h40v-16h-40v-144h80v-64c0-13.253907-10.746094-24-24-24h-48c-13.253906 0-24 10.746093-24 24v9.472656c-2.5625-.949219-5.269531-1.445313-8-1.472656h-48c-13.253906 0-24 10.746093-24 24v312h16zm64-152h-64v-16h64zm16-56v-16h64v16zm8-56h48c4.417969 0 8 3.582031 8 8v16h-64v-16c0-4.417969 3.582031-8 8-8zm-80 32h48c4.417969 0 8 3.582031 8 8v40h-64v-40c0-4.417969 3.582031-8 8-8zm0 0" fill="url(#linear1)"/><path d="m106.742188 128.324219c.003906 3.15625 1.863281 6.019531 4.746093 7.304687l56.511719 25.199219v95.496094c0 2.925781 1.597656 5.621093 4.167969 7.023437l.742187.398438c71.308594 40.554687 158.699219 40.585937 230.035156.082031l.886719-.480469c2.570313-1.402344 4.167969-4.097656 4.167969-7.023437v-95.496094l32-14.273437v99.824218l-24.648438 24.65625 32.648438 55.746094 32.648438-55.746094-24.648438-24.65625v-106.949218l8.511719-3.800782c2.882812-1.289062 4.738281-4.148437 4.738281-7.304687s-1.855469-6.015625-4.738281-7.304688l-173.253907-77.253906c-2.074218-.925781-4.441406-.925781-6.515624 0l-173.253907 77.253906c-2.882812 1.285157-4.742187 4.148438-4.746093 7.304688zm341.257812 166.800781-12.601562-21.511719 12.601562-12.601562 12.601562 12.601562zm-56-43.503906c-64.8125 35.410156-143.1875 35.410156-208 0v-83.65625l100.742188 44.917968c2.074218.925782 4.441406.925782 6.515624 0l100.742188-44.917968zm-104-191.792969 153.601562 68.496094-153.601562 68.496093-153.601562-68.496093zm0 0" fill="url(#linear2)"/><path d="m160 280.324219h16v14.632812h-16zm0 0" fill="url(#linear3)"/></svg>