<svg height="480pt" viewBox="0 0 480.0402 480" width="480pt" xmlns="http://www.w3.org/2000/svg" xmlns:xlink="http://www.w3.org/1999/xlink"><linearGradient id="lg1"><stop offset="0" stop-color="#006df0"/><stop offset="1" stop-color="#00e7f0"/></linearGradient><linearGradient id="linear0" gradientUnits="userSpaceOnUse" x1="240.0402" x2="240.0402" xlink:href="#lg1" y1="495.2201" y2="-5.0679"/><linearGradient id="linear1" gradientUnits="userSpaceOnUse" x1="168.0402" x2="168.0402" xlink:href="#lg1" y1="495.2201" y2="-5.0679"/><linearGradient id="linear4" gradientUnits="userSpaceOnUse" x1="72.0402" x2="72.0402" xlink:href="#lg1" y1="495.2201" y2="-5.0679"/><linearGradient id="linear7" gradientUnits="userSpaceOnUse" x1="272.0402" x2="272.0402" xlink:href="#lg1" y1="495.2201" y2="-5.0679"/><linearGradient id="linear8" gradientUnits="userSpaceOnUse" x1="304.0402" x2="304.0402" xlink:href="#lg1" y1="495.2201" y2="-5.0679"/><path d="m456.039062 176.019531h-56v-175.9999998h-304v47.9999998h-64v352.800781c-20.136718 4.089844-33.902343 22.773438-31.835937 43.21875 2.066406 20.445313 19.285156 36 39.835937 35.980469h281.890626l80-40-80-40h-273.890626v-336h208v80h80v32h-248c-13.253906 0-24 10.746094-24 24v67.359375c0 10.164063 6.414063 19.214844 16 22.585938v94.054687h16v-89.992187l152 36.464844v13.527343c0 13.253907 10.746094 24 24 24 13.257813 0 24-10.746093 24-24v-13.527343l152-36.464844v169.992187h-80.285156v16h96.285156v-190.054687c9.585938-3.371094 16-12.421875 16-22.585938v-67.359375c0-13.253906-10.742187-24-24-24zm-344 272h180.6875l-9.238281 9.242188 10.152344 6.757812h-181.601563zm208.578126 14.769531-12-8 14.734374-14.769531-14.757812-14.757812 12-8 45.558594 22.757812zm-26.976563-46.769531-10.136719 6.761719 9.222656 9.238281h-180.6875v-16zm-213.601563 0h16v48h-16zm-16 48h-24c-13.253906 0-24-10.746093-24-24 0-13.253906 10.746094-24 24-24h24zm208-388.6875 52.6875 52.6875h-52.6875zm-4.6875-27.3125h-155.3125v-32h272v160h-32v-43.3125zm12.6875 296c0 4.417969-3.582031 8-8 8-4.417968 0-8-3.582031-8-8v-32c0-4.417969 3.582032-8 8-8 4.417969 0 8 3.582031 8 8zm184-76.640625c.023438 3.710938-2.507812 6.949219-6.109374 7.824219l-161.890626 38.832031v-2.015625c0-13.253906-10.742187-24-24-24-13.253906 0-24 10.746094-24 24v2.015625l-161.855468-38.816406c-3.621094-.863281-6.171875-4.113281-6.144532-7.839844v-67.359375c0-4.417969 3.582032-8 8-8h368c4.417969 0 8 3.582031 8 8zm0 0" fill="url(#linear0)"/><g fill="url(#linear1)"><path d="m96.039062 80.019531h144v16h-144zm0 0"/><path d="m96.039062 112.019531h144v16h-144zm0 0"/><path d="m96.039062 144.019531h144v16h-144zm0 0"/></g><path d="m64.039062 80.019531h16v16h-16zm0 0" fill="url(#linear4)"/><path d="m64.039062 112.019531h16v16h-16zm0 0" fill="url(#linear4)"/><path d="m64.039062 144.019531h16v16h-16zm0 0" fill="url(#linear4)"/><path d="m264.039062 208.019531h16v16h-16zm0 0" fill="url(#linear7)"/><path d="m296.039062 208.019531h16v16h-16zm0 0" fill="url(#linear8)"/><path d="m232.039062 208.019531h16v16h-16zm0 0" fill="url(#linear0)"/></svg>