<svg height="483pt" viewBox="-1 0 483 483.92612" width="483pt" xmlns="http://www.w3.org/2000/svg" xmlns:xlink="http://www.w3.org/1999/xlink"><linearGradient id="lg1"><stop offset="0" stop-color="#006df0"/><stop offset="1" stop-color="#00e7f0"/></linearGradient><linearGradient id="linear0" gradientUnits="userSpaceOnUse" x1="240.46306" x2="240.46306" xlink:href="#lg1" y1="531.190124" y2="-19.889876"/><linearGradient id="linear3" gradientUnits="userSpaceOnUse" x1="352.46306" x2="352.46306" xlink:href="#lg1" y1="531.190124" y2="-19.889876"/><linearGradient id="linear4" gradientUnits="userSpaceOnUse" x1="128.46306" x2="128.46306" xlink:href="#lg1" y1="531.190124" y2="-19.889876"/><g fill="url(#linear0)"><path d="m392.464844 243.925781v-115.519531l78.6875-28.976562c3.140625-1.160157 5.226562-4.15625 5.226562-7.503907 0-3.347656-2.085937-6.34375-5.226562-7.503906l-227.921875-83.929687c-1.785157-.65625-3.75-.65625-5.535157 0l-227.921874 83.929687c-3.140626 1.160156-5.226563 4.15625-5.226563 7.503906 0 3.347657 2.085937 6.34375 5.226563 7.503907l30.691406 11.304687v70.664063c-11.023438 3.894531-17.632813 15.164062-15.65625 26.6875 1.976562 11.519531 11.964844 19.941406 23.65625 19.941406 11.6875 0 21.675781-8.421875 23.652344-19.941406 1.976562-11.523438-4.632813-22.792969-15.652344-26.6875v-64.800782l32 11.785156v115.542969h-88v240h480v-240zm-344-32c-4.421875 0-8-3.582031-8-8s3.578125-8 8-8c4.417968 0 8 3.582031 8 8s-3.582032 8-8 8zm192-195.398437 204.796875 75.398437-204.796875 75.398438-204.800782-75.398438zm-136 117.796875 133.230468 49.058593c1.789063.648438 3.746094.648438 5.535157 0l133.234375-49.058593v109.601562h-272zm360 333.601562h-448v-208h448zm0 0"/><path d="m64.464844 443.925781v8h352v-8c0-13.253906 10.742187-24 24-24h8v-112h-8c-13.257813 0-24-10.746093-24-24v-8h-352v8c0 13.253907-10.746094 24-24 24h-8v112h8c13.253906 0 24 10.746094 24 24zm-16-120.800781c15.699218-3.230469 27.96875-15.5 31.199218-31.199219h321.597657c3.230469 15.699219 15.5 27.96875 31.203125 31.199219v81.601562c-15.703125 3.230469-27.972656 15.5-31.203125 31.199219h-321.597657c-3.230468-15.699219-15.5-27.96875-31.199218-31.199219zm0 0"/><path d="m240.464844 387.925781c-15.488282 0-24-6.007812-24-8h-16c0 12 13.292968 21.441407 32 23.542969v16.457031h16v-16.457031c18.703125-2.101562 32-11.542969 32-23.542969 0-13.679687-17.195313-24-40-24-15.488282 0-24-6.007812-24-8 0-1.992187 8.511718-8 24-8 15.484375 0 24 6.007813 24 8h16c0-12-13.296875-21.441406-32-23.542969v-16.457031h-16v16.457031c-18.707032 2.101563-32 11.542969-32 23.542969 0 13.679688 17.191406 24 40 24 15.484375 0 24 6.007813 24 8 0 1.992188-8.515625 8-24 8zm0 0"/></g><path d="m320.464844 355.925781h64v16h-64zm0 0" fill="url(#linear3)"/><path d="m96.464844 355.925781h64v16h-64zm0 0" fill="url(#linear4)"/></svg>