<svg height="480pt" viewBox="0 0 480 480" width="480pt" xmlns="http://www.w3.org/2000/svg" xmlns:xlink="http://www.w3.org/1999/xlink"><linearGradient id="lg1"><stop offset="0" stop-color="#006df0"/><stop offset="1" stop-color="#00e7f0"/></linearGradient><linearGradient id="linear0" gradientUnits="userSpaceOnUse" x1="208" x2="208" xlink:href="#lg1" y1="496.68" y2="11.176"/><linearGradient id="linear1" gradientUnits="userSpaceOnUse" x1="240" x2="240" xlink:href="#lg1" y1="496.68" y2="11.176"/><linearGradient id="linear2" gradientUnits="userSpaceOnUse" x1="272" x2="272" xlink:href="#lg1" y1="496.68" y2="11.176"/><linearGradient id="linear4" gradientUnits="userSpaceOnUse" x1="256" x2="256" xlink:href="#lg1" y1="496.68" y2="11.176"/><linearGradient id="linear5" gradientUnits="userSpaceOnUse" x1="368" x2="368" xlink:href="#lg1" y1="496.68" y2="11.176"/><path d="m200 368h16v16h-16zm0 0" fill="url(#linear0)"/><path d="m232 368h16v16h-16zm0 0" fill="url(#linear1)"/><path d="m264 368h16v16h-16zm0 0" fill="url(#linear2)"/><path d="m480 168v-128c-.027344-22.082031-17.917969-39.9726562-40-40h-208c-22.082031.0273438-39.972656 17.917969-40 40v96h-120c-22.082031.027344-39.972656 17.917969-40 40v224h-8c-13.253906 0-24 10.746094-24 24v32c0 13.253906 10.746094 24 24 24h432c13.253906 0 24-10.746094 24-24v-32c0-13.253906-10.746094-24-24-24h-8v-192.800781c18.613281-3.828125 31.976562-20.199219 32-39.199219zm-272-128c0-13.253906 10.746094-24 24-24h208c13.253906 0 24 10.746094 24 24v128c0 13.253906-10.746094 24-24 24h-106.808594l-69.191406 55.351562v-55.351562h-32c-13.253906 0-24-10.746094-24-24zm24 168h16v72.648438l90.808594-72.648438h61.191406v192h-95.441406c-8.035156-.011719-15.542969 4-20 10.6875l-6.496094 9.753906c-1.476562 2.214844-3.960938 3.546875-6.621094 3.558594h-62.882812c-2.671875 0-5.171875-1.335938-6.65625-3.558594l-6.496094-9.753906c-4.449219-6.675781-11.941406-10.6875-19.964844-10.6875h-95.441406v-216h115.390625c6.355469 14.558594 20.722656 23.980469 36.609375 24zm-184-32c0-13.253906 10.746094-24 24-24h120v16h-128v232h-16zm408 240c4.417969 0 8 3.582031 8 8v32c0 4.417969-3.582031 8-8 8h-432c-4.417969 0-8-3.582031-8-8v-32c0-4.417969 3.582031-8 8-8h151.441406c2.671875 0 5.171875 1.335938 6.65625 3.558594l6.496094 9.753906c4.449219 6.675781 11.941406 10.6875 19.964844 10.6875h62.882812c8.035156.011719 15.542969-4 20-10.6875l6.496094-9.753906c1.476562-2.214844 3.960938-3.546875 6.621094-3.558594zm-40-16v-192h16v192zm0 0" fill="url(#linear1)"/><path d="m240 48h32v16h-32zm0 0" fill="url(#linear4)"/><path d="m304 48h128v16h-128zm0 0" fill="url(#linear5)"/><path d="m240 96h32v16h-32zm0 0" fill="url(#linear4)"/><path d="m304 96h128v16h-128zm0 0" fill="url(#linear5)"/><path d="m240 144h32v16h-32zm0 0" fill="url(#linear4)"/><path d="m304 144h128v16h-128zm0 0" fill="url(#linear5)"/></svg>