<svg height="481pt" viewBox="0 0 481 481.888" width="481pt" xmlns="http://www.w3.org/2000/svg" xmlns:xlink="http://www.w3.org/1999/xlink"><linearGradient id="lg1"><stop offset="0" stop-color="#006df0"/><stop offset="1" stop-color="#00e7f0"/></linearGradient><linearGradient id="linear0" gradientUnits="userSpaceOnUse" x1="440.444" x2="440.444" xlink:href="#lg1" y1="533.384" y2=".24"/><linearGradient id="linear1" gradientUnits="userSpaceOnUse" x1="184.444" x2="184.444" xlink:href="#lg1" y1="533.384" y2=".24"/><linearGradient id="linear2" gradientUnits="userSpaceOnUse" x1="128.444" x2="128.444" xlink:href="#lg1" y1="533.384" y2=".24"/><linearGradient id="linear6" gradientUnits="userSpaceOnUse" x1="256.444" x2="256.444" xlink:href="#lg1" y1="533.384" y2=".24"/><linearGradient id="linear13" gradientUnits="userSpaceOnUse" x1="208.444" x2="208.444" xlink:href="#lg1" y1="533.384" y2=".24"/><linearGradient id="linear14" gradientUnits="userSpaceOnUse" x1="280.444" x2="280.444" xlink:href="#lg1" y1="533.384" y2=".24"/><linearGradient id="linear15" gradientUnits="userSpaceOnUse" x1="248.444" x2="248.444" xlink:href="#lg1" y1="533.384" y2=".24"/><linearGradient id="linear16" gradientUnits="userSpaceOnUse" x1="312.444" x2="312.444" xlink:href="#lg1" y1="533.384" y2=".24"/><path d="m440.445312 48c-22.082031.027344-39.976562 17.917969-40 40v313.886719l40 80 40-80v-313.886719c-.027343-22.082031-17.921874-39.972656-40-40zm-8 324.6875-9.242187-9.246094-6.757813 10.160156v-213.601562h16zm-14.769531 27.886719 8-12 14.769531 14.738281 14.757813-14.753906 8 12-22.757813 45.554687zm46.769531-26.972657-6.761718-10.136718-9.238282 9.222656v-212.6875h16zm0-229.601562h-48v-16h48zm-48-32v-24c0-13.253906 10.742188-24 24-24 13.253907 0 24 10.746094 24 24v24zm0 0" fill="url(#linear0)"/><path d="m320.445312 0h-320v432h48v48h320v-432h-48zm-304 416v-400h288v32h-256v368zm336 48h-288v-400h288zm0 0" fill="url(#linear1)"/><path d="m160.445312 96h-64v64h64zm-16 48h-32v-32h32zm0 0" fill="url(#linear2)"/><path d="m160.445312 184h-64v64h64zm-16 48h-32v-32h32zm0 0" fill="url(#linear2)"/><path d="m160.445312 272h-64v64h64zm-16 48h-32v-32h32zm0 0" fill="url(#linear2)"/><path d="m160.445312 368h-64v64h64zm-16 48h-32v-32h32zm0 0" fill="url(#linear2)"/><g fill="url(#linear6)"><path d="m192.445312 104h128v16h-128zm0 0"/><path d="m192.445312 136h128v16h-128zm0 0"/><path d="m192.445312 192h128v16h-128zm0 0"/><path d="m192.445312 224h128v16h-128zm0 0"/><path d="m192.445312 280h128v16h-128zm0 0"/><path d="m192.445312 312h128v16h-128zm0 0"/><path d="m192.445312 376h128v16h-128zm0 0"/></g><path d="m192.445312 408h32v16h-32zm0 0" fill="url(#linear13)"/><path d="m272.445312 408h16v16h-16zm0 0" fill="url(#linear14)"/><path d="m240.445312 408h16v16h-16zm0 0" fill="url(#linear15)"/><path d="m304.445312 408h16v16h-16zm0 0" fill="url(#linear16)"/></svg>