<svg height="480pt" viewBox="0 0 480 480" width="480pt" xmlns="http://www.w3.org/2000/svg" xmlns:xlink="http://www.w3.org/1999/xlink"><linearGradient id="lg1"><stop offset="0" stop-color="#006df0"/><stop offset="1" stop-color="#00e7f0"/></linearGradient><linearGradient id="linear0" gradientUnits="userSpaceOnUse" x1="240" x2="240" xlink:href="#lg1" y1="539.52" y2="-17.68"/><linearGradient id="linear1" gradientUnits="userSpaceOnUse" x1="376" x2="376" xlink:href="#lg1" y1="539.52" y2="-17.68"/><linearGradient id="linear2" gradientUnits="userSpaceOnUse" x1="372" x2="372" xlink:href="#lg1" y1="539.52" y2="-17.68"/><linearGradient id="linear3" gradientUnits="userSpaceOnUse" x1="100" x2="100" xlink:href="#lg1" y1="539.52" y2="-17.68"/><linearGradient id="linear4" gradientUnits="userSpaceOnUse" x1="104" x2="104" xlink:href="#lg1" y1="539.52" y2="-17.68"/><linearGradient id="linear5" gradientUnits="userSpaceOnUse" x1="32" x2="32" xlink:href="#lg1" y1="539.52" y2="-17.68"/><linearGradient id="linear6" gradientUnits="userSpaceOnUse" x1="176" x2="176" xlink:href="#lg1" y1="539.52" y2="-17.68"/><linearGradient id="linear9" gradientUnits="userSpaceOnUse" x1="304" x2="304" xlink:href="#lg1" y1="539.52" y2="-17.68"/><linearGradient id="linear10" gradientUnits="userSpaceOnUse" x1="448" x2="448" xlink:href="#lg1" y1="539.52" y2="-17.68"/><path d="m480 208v-208h-208v48h-64v-48h-208v208h48v64h-48v208h208v-48h64v48h208v-208h-48v-64zm-192-192h176v176h-176zm-16 256v48h-64v-48h-56v-64h56v-48h64v48h56v64zm0-208v80h-64v-80zm-256-48h176v176h-176zm48 192h72v64h-72zm128 256h-176v-176h176zm16-48v-80h64v80zm256 48h-176v-176h176zm-48-192h-72v-64h72zm0 0" fill="url(#linear0)"/><path d="m376 48c-22.082031.027344-39.972656 17.917969-40 40v32c0 22.089844 17.910156 40 40 40s40-17.910156 40-40v-32c-.027344-22.082031-17.917969-39.972656-40-40zm24 72c0 13.253906-10.746094 24-24 24s-24-10.746094-24-24v-32c0-13.253906 10.746094-24 24-24s24 10.746094 24 24zm0 0" fill="url(#linear1)"/><path d="m408 416h-56v-32h40v-16h-40v-32h56v-16h-72v112h72zm0 0" fill="url(#linear2)"/><path d="m64 88v32c.027344 22.082031 17.917969 39.972656 40 40h32v-16h-32c-13.253906 0-24-10.746094-24-24v-32c0-13.253906 10.746094-24 24-24h32v-16h-32c-22.082031.027344-39.972656 17.917969-40 40zm0 0" fill="url(#linear3)"/><path d="m144 392v-32c-.027344-22.082031-17.917969-39.972656-40-40h-40v112h40c22.082031-.027344 39.972656-17.917969 40-40zm-64-56h24c13.253906 0 24 10.746094 24 24v32c0 13.253906-10.746094 24-24 24h-24zm0 0" fill="url(#linear4)"/><path d="m24 24h16v16h-16zm0 0" fill="url(#linear5)"/><path d="m168 24h16v16h-16zm0 0" fill="url(#linear6)"/><path d="m24 168h16v16h-16zm0 0" fill="url(#linear5)"/><path d="m168 168h16v16h-16zm0 0" fill="url(#linear6)"/><path d="m296 24h16v16h-16zm0 0" fill="url(#linear9)"/><path d="m440 24h16v16h-16zm0 0" fill="url(#linear10)"/><path d="m296 168h16v16h-16zm0 0" fill="url(#linear9)"/><path d="m440 168h16v16h-16zm0 0" fill="url(#linear10)"/><path d="m296 296h16v16h-16zm0 0" fill="url(#linear9)"/><path d="m440 296h16v16h-16zm0 0" fill="url(#linear10)"/><path d="m296 440h16v16h-16zm0 0" fill="url(#linear9)"/><path d="m440 440h16v16h-16zm0 0" fill="url(#linear10)"/><path d="m24 296h16v16h-16zm0 0" fill="url(#linear5)"/><path d="m168 296h16v16h-16zm0 0" fill="url(#linear6)"/><path d="m24 440h16v16h-16zm0 0" fill="url(#linear5)"/><path d="m168 440h16v16h-16zm0 0" fill="url(#linear6)"/></svg>