<svg height="484pt" viewBox="-2 0 484 484.976" width="484pt" xmlns="http://www.w3.org/2000/svg" xmlns:xlink="http://www.w3.org/1999/xlink"><linearGradient id="lg1"><stop offset="0" stop-color="#006df0"/><stop offset="1" stop-color="#00e7f0"/></linearGradient><linearGradient id="linear0" gradientUnits="userSpaceOnUse" x1="240.488" x2="240.488" xlink:href="#lg1" y1="492.336" y2="-1.256"/><linearGradient id="linear2" gradientUnits="userSpaceOnUse" x1="176.488" x2="176.488" xlink:href="#lg1" y1="492.336" y2="-1.256"/><linearGradient id="linear3" gradientUnits="userSpaceOnUse" x1="304.488" x2="304.488" xlink:href="#lg1" y1="492.336" y2="-1.256"/><linearGradient id="linear4" gradientUnits="userSpaceOnUse" x1="272.488" x2="272.488" xlink:href="#lg1" y1="492.336" y2="-1.256"/><linearGradient id="linear6" gradientUnits="userSpaceOnUse" x1="208.488" x2="208.488" xlink:href="#lg1" y1="492.336" y2="-1.256"/><path d="m.488281 0v368h216v-16h-188.6875l32-32h156.6875v-16h-152v-240h352v240h-24v16h28.6875l32 32h-60.6875v16h88v-368zm48 308.6875-32 32v-313.375l32 32zm11.3125-260.6875-32-32h425.375l-32 32zm404.6875 292.6875-32-32v-249.375l32-32zm0 0" fill="url(#linear0)"/><path d="m104.488281 160h272v16h-272zm0 0" fill="url(#linear0)"/><path d="m136.488281 192h80v16h-80zm0 0" fill="url(#linear2)"/><path d="m264.488281 192h80v16h-80zm0 0" fill="url(#linear3)"/><path d="m264.488281 224h16v16h-16zm0 0" fill="url(#linear4)"/><path d="m232.488281 224h16v16h-16zm0 0" fill="url(#linear0)"/><path d="m200.488281 224h16v16h-16zm0 0" fill="url(#linear6)"/><path d="m378.390625 356.527344c6.28125-4.953125 14.097656-11.121094 14.097656-20.527344s-7.816406-15.574219-14.097656-20.527344c-2.820313-1.921875-5.3125-4.28125-7.382813-6.992187-.558593-3.566407-.503906-7.199219.167969-10.746094.921875-8.214844 1.96875-17.519531-4.472656-23.949219-6.4375-6.433594-15.742187-5.402344-23.949219-4.480468-3.535156.675781-7.160156.742187-10.714844.191406-2.730468-2.066406-5.101562-4.566406-7.023437-7.398438-4.953125-6.28125-11.121094-14.097656-20.527344-14.097656-9.410156 0-15.578125 7.816406-20.527343 14.097656-1.914063 2.816406-4.269532 5.308594-6.976563 7.382813-3.570313.5625-7.210937.5-10.761719-.175781-8.199218-.921876-17.511718-1.960938-23.949218 4.480468-6.441407 6.4375-5.394532 15.734375-4.472657 23.949219.667969 3.539063.730469 7.164063.183594 10.722656-2.070313 2.722657-4.570313 5.09375-7.398437 7.015625-6.28125 4.953125-14.097657 11.121094-14.097657 20.527344s7.816407 15.574219 14.097657 20.527344c1.710937 1.351562 3.75 2.992187 5.285156 4.472656l-48.457032 83.960938 44.59375 2.703124 24.617188 37.3125 37.269531-64.601562c6.234375 4.835938 14.949219 4.835938 21.183594 0l37.273437 64.601562 24.617188-37.3125 44.589844-2.703124-48.453125-83.960938c1.542969-1.480469 3.574219-3.121094 5.285156-4.472656zm-122.703125 98.007812-14.742188-22.398437-26.769531-1.601563 23.542969-40.800781c.660156 3.195313 2.234375 6.128906 4.527344 8.441406 6.402344 6.449219 15.746094 5.398438 23.953125 4.480469 3.527343-.6875 7.148437-.753906 10.695312-.199219 2.183594 1.519531 4.078125 3.417969 5.601563 5.597657zm48.800781-46.535156c-.273437 0-1.816406-.273438-6.136719-5.710938l-1.976562-2.464843c-3.355469-5.097657-7.945312-9.261719-13.34375-12.113281-2.992188-1.140626-6.179688-1.683594-9.382812-1.597657-3.078126.0625-6.148438.289063-9.199219.6875-3.578125.6875-7.25.734375-10.839844.136719-.671875-3.617188-.652344-7.328125.0625-10.9375 1.011719-5.566406.90625-11.273438-.304687-16.800781l-.613282-1.824219c-2.902344-5.414062-7.121094-10.015625-12.265625-13.375-2.601562-2.046875-8-6.3125-8-8s5.40625-5.921875 8-8c5.160157-3.390625 9.386719-8.027344 12.28125-13.480469 1.84375-6.027343 2.160157-12.417969.917969-18.597656-.695312-3.574219-.742188-7.246094-.136719-10.832031 3.605469-.652344 7.296875-.625 10.890625.085937 6.191406 1.242188 12.59375.921875 18.628906-.9375 5.429688-2.886719 10.042969-7.097656 13.417969-12.238281 2.054688-2.601562 6.320313-8 8-8 1.679688 0 5.917969 5.40625 8 8 3.386719 5.164062 8.023438 9.390625 13.480469 12.28125 6.023438 1.835938 12.40625 2.152344 18.582031.917969 3.578125-.699219 7.25-.746094 10.839844-.136719.652344 3.601562.621094 7.292969-.085937 10.882812-1.242188 6.179688-.925782 12.570313.917968 18.597657 2.890625 5.445312 7.109375 10.074219 12.265625 13.457031 2.601563 2.046875 8 6.3125 8 8s-5.410156 5.921875-8 8c-5.148437 3.378906-9.367187 8-12.257812 13.441406l-.613281 1.597656v.160157c-1.210938 5.527343-1.316407 11.234375-.304688 16.800781.699219 3.589844.738281 7.277344.113281 10.878906-3.605469.648438-7.296875.617188-10.890625-.085937-6.199218-1.234375-12.605468-.910157-18.648437.941406-5.367188 2.855469-9.933594 7.011719-13.277344 12.089844l-2.066406 2.566406c-4.238281 5.335937-5.78125 5.609375-6.054688 5.609375zm63.519531 24.175781-14.742187 22.398438-26.792969-46.398438c1.5-2.171875 3.367188-4.066406 5.519532-5.601562 3.570312-.558594 7.210937-.5 10.761718.179687 8.214844.925782 17.519532 1.972656 23.949219-4.480468 2.289063-2.320313 3.863281-5.25 4.527344-8.441407l23.546875 40.800781zm0 0" fill="url(#linear3)"/><path d="m352.488281 336c0-26.507812-21.492187-48-48-48-26.511719 0-48 21.492188-48 48s21.488281 48 48 48c26.5-.027344 47.972657-21.5 48-48zm-48 32c-17.671875 0-32-14.328125-32-32s14.328125-32 32-32 32 14.328125 32 32-14.328125 32-32 32zm0 0" fill="url(#linear3)"/><path d="m264.488281 120c0-13.253906-10.746093-24-24-24-13.253906 0-24 10.746094-24 24s10.746094 24 24 24c13.253907 0 24-10.746094 24-24zm-32 0c0-4.417969 3.582031-8 8-8s8 3.582031 8 8-3.582031 8-8 8-8-3.582031-8-8zm0 0" fill="url(#linear0)"/></svg>