<svg height="483.312pt" viewBox="0 0 483.312 483.312" width="483.312pt" xmlns="http://www.w3.org/2000/svg" xmlns:xlink="http://www.w3.org/1999/xlink"><linearGradient id="lg1"><stop offset="0" stop-color="#006df0"/><stop offset="1" stop-color="#00e7f0"/></linearGradient><linearGradient id="linear0" gradientUnits="userSpaceOnUse" x1="208" x2="208" xlink:href="#lg1" y1="527.264" y2="-11.752"/><linearGradient id="linear1" gradientUnits="userSpaceOnUse" x1="240" x2="240" xlink:href="#lg1" y1="527.264" y2="-11.752"/><linearGradient id="linear2" gradientUnits="userSpaceOnUse" x1="272" x2="272" xlink:href="#lg1" y1="527.264" y2="-11.752"/><linearGradient id="linear3" gradientUnits="userSpaceOnUse" x1="241.656" x2="241.656" xlink:href="#lg1" y1="527.264" y2="-11.752"/><path d="m200 216h16v16h-16zm0 0" fill="url(#linear0)"/><path d="m232 216h16v16h-16zm0 0" fill="url(#linear1)"/><path d="m264 216h16v16h-16zm0 0" fill="url(#linear2)"/><path d="m443.71875 400.398438-11.3125 11.3125 20.28125 20.289062h-68.6875c-13.253906 0-24-10.746094-24-24v-80h96c13.253906 0 24-10.746094 24-24v-32c-.042969-10.132812-6.445312-19.148438-16-22.527344v-217.472656c0-17.671875-14.328125-32-32-32h-384c-17.671875 0-32 14.328125-32 32v217.472656c-9.554688 3.378906-15.9570312 12.394532-16 22.527344v32c0 13.253906 10.746094 24 24 24h104v80c0 13.253906-10.746094 24-24 24h-68.6875l20.28125-20.289062-11.3125-11.3125-39.59375 39.601562 39.59375 39.601562 11.3125-11.3125-20.28125-20.289062h68.6875c22.082031-.027344 39.972656-17.917969 40-40v-80h88v124.6875l-20.28125-20.289062-11.3125 11.3125 39.59375 39.601562 39.59375-39.601562-11.3125-11.3125-20.28125 20.289062v-124.6875h96v80c.027344 22.082031 17.917969 39.972656 40 40h68.6875l-20.28125 20.289062 11.3125 11.3125 39.59375-39.601562zm-395.71875-384.398438h384c8.835938 0 16 7.164062 16 16v216h-16v-216h-384v216h-16v-216c0-8.835938 7.164062-16 16-16zm368 232h-111.441406c-8.035156-.011719-15.542969 4-20 10.6875l-6.496094 9.753906c-1.476562 2.214844-3.960938 3.546875-6.621094 3.558594h-62.882812c-2.671875 0-5.171875-1.335938-6.65625-3.558594l-6.496094-9.753906c-4.449219-6.675781-11.941406-10.6875-19.964844-10.6875h-111.441406v-200h352zm-400 56v-32c0-4.417969 3.582031-8 8-8h151.441406c2.671875 0 5.171875 1.335938 6.65625 3.558594l6.496094 9.753906c4.449219 6.675781 11.941406 10.6875 19.964844 10.6875h62.882812c8.035156.011719 15.542969-4 20-10.6875l6.496094-9.753906c1.476562-2.214844 3.960938-3.546875 6.621094-3.558594h151.441406c4.417969 0 8 3.582031 8 8v32c0 4.417969-3.582031 8-8 8h-432c-4.417969 0-8-3.582031-8-8zm0 0" fill="url(#linear3)"/></svg>