<svg height="480pt" viewBox="0 0 480 480.01431" width="480pt" xmlns="http://www.w3.org/2000/svg" xmlns:xlink="http://www.w3.org/1999/xlink"><linearGradient id="lg1"><stop offset="0" stop-color="#006df0"/><stop offset="1" stop-color="#00e7f0"/></linearGradient><linearGradient id="linear0" gradientUnits="userSpaceOnUse" x1="239.551155" x2="239.551155" xlink:href="#lg1" y1="545.670308" y2="-5.313692"/><linearGradient id="linear1" gradientUnits="userSpaceOnUse" x1="312.007155" x2="312.007155" xlink:href="#lg1" y1="545.670308" y2="-5.313692"/><path d="m479.101562 120.015625-76.796874-48h-26.296876v-8c-.003906-11.808594-6.511718-22.65625-16.929687-28.214844-10.414063-5.5625-23.046875-4.9375-32.863281 1.628907-3.273438-9.339844-10.6875-16.636719-20.078125-19.765626-9.386719-3.132812-19.699219-1.738281-27.921875 3.765626-4.492188-12.835938-16.605469-21.429688-30.203125-21.429688-13.597657 0-25.710938 8.59375-30.203125 21.429688-9.816406-6.570313-22.453125-7.199219-32.871094-1.636719s-16.925781 16.410156-16.929688 28.222656v24h-120c-26.511718 0-47.9999995 21.488281-47.9999995 48 0 26.507813 21.4882815 48 47.9999995 48h72v40c.027344 12.582031 5.949219 24.425781 16 32l6.398438 4.796875c6.03125 4.542969 9.585938 11.652344 9.601562 19.203125v32h-24v96h16v88h16v-88h168v88h16v-88h24v-96h-24v-42.746094c.015626-6.359375 2.542969-12.460937 7.03125-16.96875l13.25-13.261719c7.523438-7.484374 11.746094-17.667968 11.71875-28.28125v-26.742187h26.296876zm-415.09375 32h-16c-17.671874 0-32-14.328125-32-32 0-17.675781 14.328126-32 32-32h16zm32 0h-16v-64h16zm280-64h16v24h-16zm32 57.597656v-51.199219l40.902344 25.601563zm-240-57.597656v24h-56v-24zm-56 64v-24h56v24zm240 160v64h-208v-64zm8-117.257813c-.015624 6.363282-2.542968 12.460938-7.03125 16.96875l-13.25 13.265626c-7.523437 7.480468-11.746093 17.664062-11.71875 28.277343v42.746094h-160v-32c-.027343-12.585937-5.949218-24.429687-16-32l-6.402343-4.800781c-6.03125-4.542969-9.582031-11.648438-9.597657-19.199219v-40h48v-120c0-8.835937 7.164063-16 16-16 8.835938 0 16 7.164063 16 16 0 4.417969 3.582032 8 8 8 4.417969 0 8-3.582031 8-8v-16c0-8.835937 7.164063-16 16-16 8.835938 0 16 7.164063 16 16v16c0 4.417969 3.582032 8 8 8 4.417969 0 8-3.582031 8-8 0-8.835937 7.164063-16 16-16 8.835938 0 16 7.164063 16 16v16c0 4.417969 3.582032 8 8 8 4.417969 0 8-3.582031 8-8 0-8.835937 7.164063-16 16-16 8.835938 0 16 7.164063 16 16zm16-66.742187h16v24h-16zm0 0" fill="url(#linear0)"/><path d="m312.007812 368.015625c13.253907 0 24-10.746094 24-24 0-13.257813-10.746093-24-24-24-13.253906 0-24 10.742187-24 24 0 13.253906 10.746094 24 24 24zm0-32c4.417969 0 8 3.582031 8 8s-3.582031 8-8 8c-4.417968 0-8-3.582031-8-8s3.582032-8 8-8zm0 0" fill="url(#linear1)"/></svg>