<svg height="480pt" viewBox="0 0 480 479" width="480pt" xmlns="http://www.w3.org/2000/svg" xmlns:xlink="http://www.w3.org/1999/xlink"><linearGradient id="lg1"><stop offset="0" stop-color="#006df0"/><stop offset="1" stop-color="#00e7f0"/></linearGradient><linearGradient id="linear0" gradientUnits="userSpaceOnUse" x1="92" x2="92" xlink:href="#lg1" y1="525.796" y2="-26.284"/><linearGradient id="linear1" gradientUnits="userSpaceOnUse" x1="72" x2="72" xlink:href="#lg1" y1="525.796" y2="-26.284"/><linearGradient id="linear3" gradientUnits="userSpaceOnUse" x1="152" x2="152" xlink:href="#lg1" y1="525.796" y2="-26.284"/><linearGradient id="linear5" gradientUnits="userSpaceOnUse" x1="240" x2="240" xlink:href="#lg1" y1="525.796" y2="-26.284"/><linearGradient id="linear7" gradientUnits="userSpaceOnUse" x1="340" x2="340" xlink:href="#lg1" y1="525.796" y2="-26.284"/><linearGradient id="linear8" gradientUnits="userSpaceOnUse" x1="380" x2="380" xlink:href="#lg1" y1="525.796" y2="-26.284"/><linearGradient id="linear9" gradientUnits="userSpaceOnUse" x1="396" x2="396" xlink:href="#lg1" y1="525.796" y2="-26.284"/><linearGradient id="linear10" gradientUnits="userSpaceOnUse" x1="404" x2="404" xlink:href="#lg1" y1="525.796" y2="-26.284"/><linearGradient id="linear11" gradientUnits="userSpaceOnUse" x1="408" x2="408" xlink:href="#lg1" y1="525.796" y2="-26.284"/><linearGradient id="linear12" gradientUnits="userSpaceOnUse" x1="136" x2="136" xlink:href="#lg1" y1="525.796" y2="-26.284"/><path d="m120 280.5h-56v-104h16v88h40zm0 0" fill="url(#linear0)"/><path d="m64 296.5h16v16h-16zm0 0" fill="url(#linear1)"/><path d="m64 328.5h16v16h-16zm0 0" fill="url(#linear1)"/><path d="m96 328.5h112v16h-112zm0 0" fill="url(#linear3)"/><path d="m64 360.5h16v16h-16zm0 0" fill="url(#linear1)"/><path d="m448 120.5v-32h-56v16h40v304h-184v-88h-16v88h-184v-304h40v-16h-56v32h-32v336h202.71875c3.246094-.152344 6.285156 1.574219 7.816406 4.441406 5.007813 11.8125 16.582032 19.492188 29.414063 19.515625 12.828125.019531 24.429687-7.625 29.476562-19.421875 1.507813-2.914062 4.574219-4.683594 7.855469-4.535156h202.71875v-336zm16 320h-186.71875c-9.707031-.179688-18.585938 5.4375-22.585938 14.28125-2.535156 5.886719-8.339843 9.691406-14.75 9.667969-6.410156-.023438-12.1875-3.871094-14.679687-9.773438-4.023437-8.792969-12.878906-14.363281-22.546875-14.175781h-186.71875v-304h16v288h416v-288h16zm0 0" fill="url(#linear5)"/><path d="m96 360.5h112v16h-112zm0 0" fill="url(#linear3)"/><path d="m416 320.5h-152v64h152zm-16 48h-120v-32h120zm0 0" fill="url(#linear7)"/><path d="m344 272.5h72v16h-72zm0 0" fill="url(#linear8)"/><path d="m376 240.5h40v16h-40zm0 0" fill="url(#linear9)"/><path d="m392 208.5h24v16h-24zm0 0" fill="url(#linear10)"/><path d="m400 176.5h16v16h-16zm0 0" fill="url(#linear11)"/><path d="m96 296.5h80v16h-80zm0 0" fill="url(#linear12)"/><path d="m240 .5c-83.949219 0-152 68.050781-152 152s68.050781 152 152 152 152-68.050781 152-152c-.09375-83.910156-68.089844-151.90625-152-152zm-8 144h-71.761719c.53125-17.363281 3.179688-34.597656 7.882813-51.320312 20.636718 6.800781 42.15625 10.558593 63.878906 11.144531zm0 16v40.175781c-21.722656.585938-43.242188 4.339844-63.878906 11.144531-4.703125-16.722656-7.351563-33.957031-7.882813-51.320312zm16 0h71.761719c-.53125 17.363281-3.179688 34.597656-7.882813 51.320312-20.636718-6.800781-42.15625-10.558593-63.878906-11.144531zm0-16v-40.175781c21.722656-.585938 43.242188-4.339844 63.878906-11.144531 4.703125 16.722656 7.351563 33.957031 7.882813 51.320312zm0-56.34375v-70.96875c24.550781 4.167969 45.839844 27.304688 58.777344 60.617188-18.988282 6.28125-38.789063 9.769531-58.777344 10.351562zm-16-70.96875v70.96875c-19.988281-.585938-39.789062-4.074219-58.777344-10.351562 12.9375-33.304688 34.226563-56.449219 58.777344-60.617188zm-87.742188 127.3125h-39.851562c1.445312-25.253906 9.949219-49.59375 24.546875-70.246094 7.714844 5.136719 15.886719 9.554688 24.414063 13.191406-5.484376 18.542969-8.546876 37.722657-9.109376 57.054688zm0 16c.5625 19.332031 3.625 38.511719 9.109376 57.054688-8.523438 3.640624-16.699219 8.054687-24.414063 13.191406-14.597656-20.652344-23.101563-44.992188-24.546875-70.246094zm87.742188 56.34375v70.96875c-24.550781-4.167969-45.839844-27.304688-58.777344-60.617188 18.988282-6.28125 38.789063-9.769531 58.777344-10.351562zm16 70.96875v-70.96875c19.988281.585938 39.789062 4.074219 58.777344 10.351562-12.9375 33.304688-34.226563 56.449219-58.777344 60.617188zm87.742188-127.3125h39.851562c-1.445312 25.253906-9.949219 49.59375-24.546875 70.246094-7.714844-5.136719-15.886719-9.554688-24.414063-13.191406 5.484376-18.542969 8.546876-37.722657 9.109376-57.054688zm0-16c-.5625-19.332031-3.625-38.511719-9.109376-57.054688 8.523438-3.640624 16.699219-8.054687 24.414063-13.191406 14.597656 20.652344 23.101563 44.992188 24.546875 70.246094zm5.273437-82.734375c-6.238281 4.042969-12.800781 7.566406-19.617187 10.535156-6.089844-16.09375-14.96875-30.988281-26.230469-44 17.457031 7.820313 33.078125 19.222657 45.847656 33.464844zm-156.214844-33.464844c-11.261719 13.011719-20.140625 27.90625-26.234375 44-6.8125-2.972656-13.375-6.496093-19.613281-10.535156 12.769531-14.242187 28.390625-25.644531 45.847656-33.464844zm-45.816406 214.933594c6.238281-4.042969 12.800781-7.566406 19.617187-10.535156 6.089844 16.09375 14.96875 30.988281 26.230469 44-17.457031-7.820313-33.078125-19.222657-45.847656-33.464844zm156.214844 33.464844c11.261719-13.011719 20.140625-27.90625 26.234375-44 6.8125 2.972656 13.375 6.496093 19.613281 10.535156-12.769531 14.242187-28.390625 25.644531-45.847656 33.464844zm0 0" fill="url(#linear5)"/></svg>