<svg height="480pt" viewBox="-1 0 480 480" width="480pt" xmlns="http://www.w3.org/2000/svg" xmlns:xlink="http://www.w3.org/1999/xlink"><linearGradient id="lg1"><stop offset="0" stop-color="#006df0"/><stop offset="1" stop-color="#00e7f0"/></linearGradient><linearGradient id="linear0" gradientUnits="userSpaceOnUse" x1="239.56" x2="239.56" xlink:href="#lg1" y1="515.032" y2="-24.92"/><linearGradient id="linear1" gradientUnits="userSpaceOnUse" x1="236.408" x2="236.408" xlink:href="#lg1" y1="515.032" y2="-24.92"/><linearGradient id="linear2" gradientUnits="userSpaceOnUse" x1="236.336" x2="236.336" xlink:href="#lg1" y1="515.032" y2="-24.92"/><linearGradient id="linear3" gradientUnits="userSpaceOnUse" x1="463.16" x2="463.16" xlink:href="#lg1" y1="515.032" y2="-24.92"/><linearGradient id="linear4" gradientUnits="userSpaceOnUse" x1="377.44" x2="377.44" xlink:href="#lg1" y1="515.032" y2="-24.92"/><linearGradient id="linear5" gradientUnits="userSpaceOnUse" x1="321.544" x2="321.544" xlink:href="#lg1" y1="515.032" y2="-24.92"/><linearGradient id="linear6" gradientUnits="userSpaceOnUse" x1="454.376" x2="454.376" xlink:href="#lg1" y1="515.032" y2="-24.92"/><linearGradient id="linear7" gradientUnits="userSpaceOnUse" x1="290.96" x2="290.96" xlink:href="#lg1" y1="515.032" y2="-24.92"/><linearGradient id="linear8" gradientUnits="userSpaceOnUse" x1="350.568" x2="350.568" xlink:href="#lg1" y1="515.032" y2="-24.92"/><linearGradient id="linear9" gradientUnits="userSpaceOnUse" x1="401.688" x2="401.688" xlink:href="#lg1" y1="515.032" y2="-24.92"/><linearGradient id="linear10" gradientUnits="userSpaceOnUse" x1="440.544" x2="440.544" xlink:href="#lg1" y1="515.032" y2="-24.92"/><linearGradient id="linear11" gradientUnits="userSpaceOnUse" x1="422.864" x2="422.864" xlink:href="#lg1" y1="515.032" y2="-24.92"/><linearGradient id="linear12" gradientUnits="userSpaceOnUse" x1="134.616" x2="134.616" xlink:href="#lg1" y1="515.032" y2="-24.92"/><linearGradient id="linear13" gradientUnits="userSpaceOnUse" x1="195.072" x2="195.072" xlink:href="#lg1" y1="515.032" y2="-24.92"/><linearGradient id="linear14" gradientUnits="userSpaceOnUse" x1="107.096" x2="107.096" xlink:href="#lg1" y1="515.032" y2="-24.92"/><linearGradient id="linear15" gradientUnits="userSpaceOnUse" x1="82.088" x2="82.088" xlink:href="#lg1" y1="515.032" y2="-24.92"/><linearGradient id="linear16" gradientUnits="userSpaceOnUse" x1="226.832" x2="226.832" xlink:href="#lg1" y1="515.032" y2="-24.92"/><linearGradient id="linear17" gradientUnits="userSpaceOnUse" x1="259.368" x2="259.368" xlink:href="#lg1" y1="515.032" y2="-24.92"/><linearGradient id="linear18" gradientUnits="userSpaceOnUse" x1="164.128" x2="164.128" xlink:href="#lg1" y1="515.032" y2="-24.92"/><linearGradient id="linear19" gradientUnits="userSpaceOnUse" x1="41.392" x2="41.392" xlink:href="#lg1" y1="515.032" y2="-24.92"/><linearGradient id="linear20" gradientUnits="userSpaceOnUse" x1="15.672" x2="15.672" xlink:href="#lg1" y1="515.032" y2="-24.92"/><linearGradient id="linear21" gradientUnits="userSpaceOnUse" x1="60.04" x2="60.04" xlink:href="#lg1" y1="515.032" y2="-24.92"/><linearGradient id="linear22" gradientUnits="userSpaceOnUse" x1="26.504" x2="26.504" xlink:href="#lg1" y1="515.032" y2="-24.92"/><linearGradient id="linear23" gradientUnits="userSpaceOnUse" x1="9.56" x2="9.56" xlink:href="#lg1" y1="515.032" y2="-24.92"/><linearGradient id="linear24" gradientUnits="userSpaceOnUse" x1="8.424" x2="8.424" xlink:href="#lg1" y1="515.032" y2="-24.92"/><linearGradient id="linear25" gradientUnits="userSpaceOnUse" x1="282.104" x2="282.104" xlink:href="#lg1" y1="515.032" y2="-24.92"/><linearGradient id="linear26" gradientUnits="userSpaceOnUse" x1="313.024" x2="313.024" xlink:href="#lg1" y1="515.032" y2="-24.92"/><linearGradient id="linear27" gradientUnits="userSpaceOnUse" x1="435.84" x2="435.84" xlink:href="#lg1" y1="515.032" y2="-24.92"/><linearGradient id="linear28" gradientUnits="userSpaceOnUse" x1="450.784" x2="450.784" xlink:href="#lg1" y1="515.032" y2="-24.92"/><linearGradient id="linear29" gradientUnits="userSpaceOnUse" x1="417.144" x2="417.144" xlink:href="#lg1" y1="515.032" y2="-24.92"/><linearGradient id="linear30" gradientUnits="userSpaceOnUse" x1="395.08" x2="395.08" xlink:href="#lg1" y1="515.032" y2="-24.92"/><linearGradient id="linear31" gradientUnits="userSpaceOnUse" x1="370.056" x2="370.056" xlink:href="#lg1" y1="515.032" y2="-24.92"/><linearGradient id="linear32" gradientUnits="userSpaceOnUse" x1="342.528" x2="342.528" xlink:href="#lg1" y1="515.032" y2="-24.92"/><linearGradient id="linear33" gradientUnits="userSpaceOnUse" x1="250.36" x2="250.36" xlink:href="#lg1" y1="515.032" y2="-24.92"/><linearGradient id="linear34" gradientUnits="userSpaceOnUse" x1="75.752" x2="75.752" xlink:href="#lg1" y1="515.032" y2="-24.92"/><linearGradient id="linear35" gradientUnits="userSpaceOnUse" x1="54.624" x2="54.624" xlink:href="#lg1" y1="515.032" y2="-24.92"/><linearGradient id="linear36" gradientUnits="userSpaceOnUse" x1="36.952" x2="36.952" xlink:href="#lg1" y1="515.032" y2="-24.92"/><linearGradient id="linear37" gradientUnits="userSpaceOnUse" x1="13.456" x2="13.456" xlink:href="#lg1" y1="515.032" y2="-24.92"/><linearGradient id="linear38" gradientUnits="userSpaceOnUse" x1="23.136" x2="23.136" xlink:href="#lg1" y1="515.032" y2="-24.92"/><linearGradient id="linear39" gradientUnits="userSpaceOnUse" x1="126.8" x2="126.8" xlink:href="#lg1" y1="515.032" y2="-24.92"/><linearGradient id="linear40" gradientUnits="userSpaceOnUse" x1="186.304" x2="186.304" xlink:href="#lg1" y1="515.032" y2="-24.92"/><linearGradient id="linear41" gradientUnits="userSpaceOnUse" x1="155.752" x2="155.752" xlink:href="#lg1" y1="515.032" y2="-24.92"/><linearGradient id="linear42" gradientUnits="userSpaceOnUse" x1="99.96" x2="99.96" xlink:href="#lg1" y1="515.032" y2="-24.92"/><linearGradient id="linear43" gradientUnits="userSpaceOnUse" x1="217.864" x2="217.864" xlink:href="#lg1" y1="515.032" y2="-24.92"/><linearGradient id="linear44" gradientUnits="userSpaceOnUse" x1="460.712" x2="460.712" xlink:href="#lg1" y1="515.032" y2="-24.92"/><path d="m422.769531 296c30.925781 0 56-25.070312 56-56s-25.074219-56-56-56h-338.402343l-84 56 84 56zm-8-96h8c22.089844 0 40 17.910156 40 40s-17.910156 40-40 40h-8zm-32 0h16v80h-16zm-276.691406 80 16-16h244.691406v16zm15.089844-48h245.601562v16h-245.601562l-12-8zm245.601562-16h-244.691406l-16-16h260.691406zm-281.015625-13.703125 20.460938 20.464844-25.847656 17.238281 25.871093 17.238281-20.460937 20.464844-56.609375-37.703125zm0 0" fill="url(#linear0)"/><path d="m233.664062 40.105469c-89.015624 2.328125-165.796874 63.167969-188.417968 149.292969l15.480468 4c5.726563-21.746094 15.449219-42.238282 28.664063-60.429688 10.722656 7.660156 22.1875 14.226562 34.226563 19.589844-2.210938 7.203125-4.265626 14.578125-5.960938 22.335937l15.625 3.417969c1.496094-6.808594 3.277344-13.3125 5.191406-19.632812 32.152344 11.628906 66.105469 17.488281 100.296875 17.320312 34.1875.183594 68.144531-5.667969 100.300781-17.28125 1.898438 6.28125 3.664063 12.738281 5.152344 19.480469l15.625-3.421875c-1.6875-7.6875-3.726562-15.050782-5.925781-22.175782 12.054687-5.378906 23.539063-11.957031 34.277344-19.632812 10.261719 14.195312 18.433593 29.792969 24.265625 46.3125l15.109375-5.28125c-27.570313-78.625-100.949219-131.960938-184.246094-133.921875zm-2.894531 16.375v103.238281c-29.753906-.558594-59.214843-6-87.203125-16.109375 19.035156-50.320313 51.921875-83.089844 87.203125-87.128906zm16 0c35.527344 4.273437 68.246094 36.976562 87.199219 87.085937-27.988281 10.125-57.445312 15.582032-87.199219 16.152344zm-73.152343 11.351562c-20.0625 19.449219-35.390626 43.25-44.800782 69.558594-10.410156-4.746094-20.347656-10.476563-29.671875-17.109375 20.019531-23.457031 45.632813-41.480469 74.472657-52.410156zm204.796874 52.449219c-9.324218 6.628906-19.257812 12.359375-29.671874 17.109375-9.417969-26.34375-24.789063-50.164063-44.917969-69.597656 28.894531 10.941406 54.550781 29.011719 74.589843 52.527343zm0 0" fill="url(#linear1)"/><path d="m243.871094 439.894531c83.09375-2.1875 156.195312-55.484375 183.695312-133.925781l-15.109375-5.28125c-5.832031 16.53125-14.011719 32.140625-24.28125 46.34375-10.738281-7.679688-22.226562-14.257812-34.289062-19.632812 2.210937-7.140626 4.25-14.503907 5.9375-22.191407l-15.625-3.429687c-1.488281 6.75-3.253907 13.214844-5.160157 19.503906-32.148437-11.613281-66.089843-17.460938-100.269531-17.28125-34.191406-.183594-68.140625 5.667969-100.296875 17.28125-1.921875-6.34375-3.703125-12.867188-5.199218-19.664062l-15.625 3.414062c1.695312 7.738281 3.75 15.199219 5.976562 22.402344-12.039062 5.363281-23.507812 11.925781-34.234375 19.589844-13.324219-18.347657-23.09375-39.035157-28.796875-60.984376l-15.503906 4c22.476562 86.597657 99.675781 147.777344 189.117187 149.882813zm2.898437-16.375v-103.199219c29.75.558594 59.210938 6.003907 87.199219 16.113282-19.03125 50.277344-51.921875 83.046875-87.199219 87.085937zm-16 0c-35.539062-4.273437-68.25-36.976562-87.203125-87.085937 27.988282-10.125 57.445313-15.582032 87.203125-16.152344zm73.152344-11.351562c20.058594-19.449219 35.386719-43.25 44.796875-69.558594 10.410156 4.75 20.347656 10.480469 29.671875 17.109375-20.019531 23.457031-45.632813 41.480469-74.46875 52.410156zm-204.800781-52.449219c9.324218-6.628906 19.261718-12.359375 29.671875-17.109375 9.417969 26.34375 24.792969 50.164063 44.917969 69.597656-28.890626-10.945312-54.550782-29.011719-74.589844-52.527343zm0 0" fill="url(#linear2)"/><path d="m454.40625 300.847656 15.410156 4.320313c.742188-2.667969 1.441406-5.332031 2.105469-8l-15.554687-3.792969c-.605469 2.503906-1.261719 5.023438-1.960938 7.472656zm0 0" fill="url(#linear3)"/><path d="m366.246094 424.214844 9.121094 13.144531c4.527343-3.144531 8.992187-6.472656 13.273437-9.894531l-10-12.488282c-4 3.191407-8.167969 6.304688-12.394531 9.238282zm0 0" fill="url(#linear4)"/><path d="m311.222656 452 5.144532 15.199219c5.191406-1.773438 10.402343-3.757813 15.480468-5.894531l-6.207031-14.746094c-4.710937 1.960937-9.578125 3.839844-14.417969 5.441406zm0 0" fill="url(#linear5)"/><path d="m443.984375 329.9375 14.65625 6.398438c2.214844-5.03125 4.28125-10.214844 6.128906-15.398438l-15.066406-5.394531c-1.734375 4.863281-3.65625 9.695312-5.71875 14.394531zm0 0" fill="url(#linear6)"/><path d="m281.367188 459.953125 3.03125 15.710937c5.410156-1.039062 10.847656-2.289062 16.152343-3.695312l-4.109375-15.464844c-4.945312 1.320313-10.015625 2.480469-15.074218 3.449219zm0 0" fill="url(#linear7)"/><path d="m339.695312 440 7.199219 14.289062c4.882813-2.472656 9.769531-5.152343 14.511719-8l-8.160156-13.703124c-4.429688 2.613281-8.980469 5.132812-13.550782 7.414062zm0 0" fill="url(#linear8)"/><path d="m390.375 404.902344 10.832031 11.769531c4.050781-3.71875 8-7.632813 11.792969-11.625l-11.609375-11.007813c-3.527344 3.730469-7.238281 7.386719-11.015625 10.863282zm0 0" fill="url(#linear9)"/><path d="m429.632812 357.320312 13.597657 8.382813c2.882812-4.679687 5.640625-9.519531 8.195312-14.398437l-14.179687-7.433594c-2.351563 4.5625-4.925782 9.082031-7.613282 13.449218zm0 0" fill="url(#linear10)"/><path d="m411.640625 382.457031 12.34375 10.183594c3.519531-4.273437 6.917969-8.6875 10.09375-13.136719l-13.015625-9.304687c-2.964844 4.144531-6.132812 8.273437-9.421875 12.257812zm0 0" fill="url(#linear11)"/><path d="m123.871094 450.753906c4.800781 2.644532 9.816406 5.148438 14.816406 7.4375l6.671875-14.535156c-4.65625-2.144531-9.3125-4.480469-13.816406-6.945312zm0 0" fill="url(#linear12)"/><path d="m185.710938 474.113281c5.351562 1.207031 10.832031 2.238281 16.273437 3.078125l2.398437-15.808594c-5.085937-.796874-10.191406-1.75-15.199218-2.878906zm0 0" fill="url(#linear13)"/><path d="m95.960938 432.910156c4.445312 3.289063 9.03125 6.449219 13.640624 9.402344l8.628907-13.511719c-4.300781-2.753906-8.589844-5.703125-12.734375-8.800781zm0 0" fill="url(#linear14)"/><path d="m70.769531 411.398438c3.933594 3.859374 8.046875 7.617187 12.214844 11.203124l10.398437-12.167968c-3.894531-3.328125-7.734374-6.839844-11.40625-10.402344zm0 0" fill="url(#linear15)"/><path d="m218.441406 479.199219c5.46875.457031 11.03125.730469 16.527344.800781l.253906-16c-5.144531-.078125-10.335937-.335938-15.453125-.800781zm0 0" fill="url(#linear16)"/><path d="m250.695312 463.6875.847657 16c5.480469-.28125 11.042969-.800781 16.496093-1.429688l-1.933593-15.882812c-5.097657.601562-10.273438 1.050781-15.410157 1.3125zm0 0" fill="url(#linear17)"/><path d="m153.96875 464.59375c5.152344 1.941406 10.398438 3.726562 15.710938 5.308594l4.59375-15.328125c-4.914063-1.46875-9.839844-3.140625-14.648438-4.949219zm0 0" fill="url(#linear18)"/><path d="m44.265625 351.199219-13.890625 7.953125c2.738281 4.800781 5.664062 9.503906 8.730469 14.078125l13.261719-8.902344c-2.816407-4.273437-5.550782-8.6875-8.101563-13.128906zm0 0" fill="url(#linear19)"/><path d="m21.320312 294-15.527343 3.847656c1.328125 5.367188 2.855469 10.738282 4.535156 15.929688l15.199219-4.914063c-1.542969-4.863281-2.960938-9.847656-4.207032-14.863281zm0 0" fill="url(#linear20)"/><path d="m61.449219 376.878906-12.671875 9.777344c3.367187 4.351562 6.917968 8.648438 10.574218 12.75l11.953126-10.605469c-3.402344-3.855469-6.71875-7.855469-9.855469-11.921875zm0 0" fill="url(#linear21)"/><path d="m30.769531 323.375-14.847656 5.976562c2.078125 5.167969 4.335937 10.265626 6.695313 15.144532l14.398437-6.984375c-2.167969-4.542969-4.273437-9.304688-6.246094-14.136719zm0 0" fill="url(#linear22)"/><path d="m16.886719 270.945312-15.847657 2.191407c.375 2.734375.800782 5.464843 1.265626 8.167969l15.765624-2.730469c-.4375-2.527344-.824218-5.070313-1.183593-7.628907zm0 0" fill="url(#linear23)"/><path d="m16.839844 209.414062-15.863282-2.15625c-.367187 2.71875-.6875 5.453126-.976562 8.207032l15.929688 1.597656c.253906-2.554688.558593-5.101562.910156-7.648438zm0 0" fill="url(#linear24)"/><path d="m291.433594 5.800781c-5.378906-1.199219-10.839844-2.234375-16.257813-3.058593l-2.398437 15.816406c5.046875.800781 10.160156 1.730468 15.199218 2.855468zm0 0" fill="url(#linear25)"/><path d="m323.160156 15.265625c-5.113281-1.929687-10.398437-3.707031-15.695312-5.289063l-4.578125 15.335938c4.953125 1.480469 9.875 3.136719 14.632812 4.925781zm0 0" fill="url(#linear26)"/><path d="m432.992188 128.335938 13.863281-8c-2.757813-4.800782-5.695313-9.496094-8.75-14.03125l-13.28125 8.894531c2.847656 4.265625 5.601562 8.679687 8.167969 13.136719zm0 0" fill="url(#linear27)"/><path d="m446.519531 156.070312 14.824219-6c-2.054688-5.070312-4.320312-10.160156-6.726562-15.109374l-14.402344 7.007812c2.273437 4.625 4.386718 9.367188 6.304687 14.101562zm0 0" fill="url(#linear28)"/><path d="m415.769531 102.695312 12.636719-9.800781c-3.375-4.351562-6.933594-8.621093-10.597656-12.726562l-11.921875 10.664062c3.410156 3.824219 6.730469 7.816407 9.882812 11.863281zm0 0" fill="url(#linear29)"/><path d="m406.375 68.222656c-3.917969-3.832031-8.039062-7.574218-12.222656-11.144531l-10.398438 12.1875c3.917969 3.335937 7.765625 6.839844 11.429688 10.398437zm0 0" fill="url(#linear30)"/><path d="m381.167969 46.792969c-4.40625-3.257813-9-6.402344-13.648438-9.367188l-8.582031 13.496094c4.328125 2.757813 8.613281 5.703125 12.71875 8.742187zm0 0" fill="url(#linear31)"/><path d="m353.265625 29.015625c-4.800781-2.625-9.824219-5.113281-14.824219-7.398437l-6.640625 14.550781c4.65625 2.136719 9.304688 4.457031 13.800781 6.902343zm0 0" fill="url(#linear32)"/><path d="m258.726562.800781c-5.460937-.449219-11.023437-.7109372-16.519531-.800781l-.238281 16c5.136719.070312 10.328125.320312 15.429688.734375zm0 0" fill="url(#linear33)"/><path d="m87.054688 75.199219-10.824219-11.785157c-4 3.714844-8 7.625-11.789063 11.625l11.621094 10.992188c3.503906-3.726562 7.226562-7.375 10.992188-10.832031zm0 0" fill="url(#linear34)"/><path d="m65.839844 97.601562-12.34375-10.160156c-3.488282 4.222656-6.878906 8.636719-10.089844 13.117188l13.019531 9.3125c2.988281-4.183594 6.167969-8.269532 9.414063-12.269532zm0 0" fill="url(#linear35)"/><path d="m47.863281 122.742188-13.625-8.34375c-2.878906 4.671874-5.597656 9.511718-8.191406 14.402343l14.175781 7.429688c2.378906-4.597657 4.945313-9.117188 7.640625-13.488281zm0 0" fill="url(#linear36)"/><path d="m23.121094 179.199219-15.410156-4.335938c-1.472657 5.257813-2.789063 10.664063-3.917969 16.082031l15.65625 3.261719c1.054687-5.070312 2.285156-10.117187 3.671875-15.007812zm0 0" fill="url(#linear37)"/><path d="m33.527344 150.097656-14.65625-6.402344c-2.222656 5.074219-4.277344 10.25-6.117188 15.394532l15.0625 5.390625c1.71875-4.816407 3.640625-9.648438 5.710938-14.382813zm0 0" fill="url(#linear38)"/><path d="m137.664062 40.054688-7.199218-14.261719c-4.914063 2.488281-9.785156 5.175781-14.496094 8l8.207031 13.734375c4.359375-2.632813 8.914063-5.128906 13.488281-7.472656zm0 0" fill="url(#linear39)"/><path d="m195.886719 20.105469-3.03125-15.714844c-5.351563 1.035156-10.785157 2.28125-16.136719 3.707031l4.128906 15.460938c4.992188-1.335938 10.046875-2.496094 15.039063-3.453125zm0 0" fill="url(#linear40)"/><path d="m166.070312 28.054688-5.183593-15.132813c-5.167969 1.765625-10.398438 3.75-15.453125 5.902344l6.230468 14.777343c4.742188-2.042968 9.601563-3.898437 14.40625-5.546874zm0 0" fill="url(#linear41)"/><path d="m111.152344 55.878906-9.113282-13.144531c-4.496093 3.113281-8.960937 6.449219-13.269531 9.898437l10 12.488282c4-3.226563 8.183594-6.328125 12.382813-9.242188zm0 0" fill="url(#linear42)"/><path d="m226.535156 16.335938-.863281-16c-5.496094.304687-11.046875.800781-16.472656 1.457031l1.953125 15.878906c5.070312-.609375 10.238281-1.0625 15.382812-1.335937zm0 0" fill="url(#linear43)"/><path d="m454.136719 178.214844 15.390625-4.390625c-.765625-2.667969-1.566406-5.316407-2.398438-7.945313l-15.199218 4.976563c.773437 2.433593 1.507812 4.886719 2.207031 7.359375zm0 0" fill="url(#linear44)"/></svg>