<svg height="480pt" viewBox="0 0 480 480" width="480pt" xmlns="http://www.w3.org/2000/svg" xmlns:xlink="http://www.w3.org/1999/xlink"><linearGradient id="lg1"><stop offset="0" stop-color="#006df0"/><stop offset="1" stop-color="#00e7f0"/></linearGradient><linearGradient id="linear0" gradientUnits="userSpaceOnUse" x1="240.792" x2="240.792" xlink:href="#lg1" y1="515.048" y2=".792"/><linearGradient id="linear1" gradientUnits="userSpaceOnUse" x1="376" x2="376" xlink:href="#lg1" y1="515.048" y2=".792"/><linearGradient id="linear2" gradientUnits="userSpaceOnUse" x1="152" x2="152" xlink:href="#lg1" y1="515.048" y2=".792"/><path d="m424 368h-338.398438l-84 56 84 56h338.398438c30.929688 0 56-25.070312 56-56s-25.070312-56-56-56zm-56 32h-244.6875l-16-16h260.6875zm-245.601562 32-12-8 12-8h245.601562v16zm-35.4375-45.703125 20.453124 20.464844-25.8125 17.238281 25.863282 17.238281-20.457032 20.464844-56.609374-37.703125zm20.351562 77.703125 16-16h244.6875v16zm292.6875 0h-16v-80h16zm24 0h-8v-80h8c22.089844 0 40 17.910156 40 40s-17.910156 40-40 40zm0 0" fill="url(#linear0)"/><path d="m440 32h-168v16h168c13.253906 0 24 10.746094 24 24v160c0 13.253906-10.746094 24-24 24h-43.039062l-60.960938 54.183594v-54.183594h-64v16h48v73.816406l83.039062-73.816406h36.960938c22.082031-.027344 39.972656-17.917969 40-40v-160c-.027344-22.082031-17.917969-39.972656-40-40zm0 0" fill="url(#linear1)"/><path d="m152 0c-83.949219 0-152 68.050781-152 152s68.050781 152 152 152 152-68.050781 152-152c-.09375-83.910156-68.089844-151.90625-152-152zm-8 144h-71.761719c.53125-17.363281 3.179688-34.597656 7.882813-51.320312 20.636718 6.804687 42.15625 10.558593 63.878906 11.144531zm0 16v40.175781c-21.722656.585938-43.242188 4.339844-63.878906 11.144531-4.703125-16.722656-7.351563-33.957031-7.882813-51.320312zm16 0h71.761719c-.53125 17.363281-3.179688 34.597656-7.882813 51.320312-20.636718-6.804687-42.15625-10.558593-63.878906-11.144531zm0-16v-40.175781c21.722656-.585938 43.242188-4.339844 63.878906-11.144531 4.703125 16.722656 7.351563 33.957031 7.882813 51.320312zm0-56.34375v-70.96875c24.550781 4.167969 45.839844 27.304688 58.777344 60.617188-18.988282 6.28125-38.785156 9.769531-58.777344 10.351562zm-16-70.96875v70.96875c-19.988281-.585938-39.789062-4.074219-58.777344-10.351562 12.9375-33.304688 34.226563-56.449219 58.777344-60.617188zm-87.742188 127.3125h-39.851562c1.441406-25.253906 9.945312-49.59375 24.546875-70.246094 7.714844 5.136719 15.886719 9.554688 24.414063 13.191406-5.484376 18.542969-8.546876 37.722657-9.109376 57.054688zm0 16c.5625 19.332031 3.625 38.511719 9.109376 57.054688-8.523438 3.644531-16.695313 8.058593-24.414063 13.191406-14.597656-20.652344-23.101563-44.992188-24.546875-70.246094zm87.742188 56.34375v70.96875c-24.550781-4.167969-45.839844-27.304688-58.785156-60.617188 18.992187-6.28125 38.792968-9.769531 58.785156-10.351562zm16 70.96875v-70.96875c19.988281.585938 39.789062 4.074219 58.777344 10.351562-12.9375 33.304688-34.226563 56.449219-58.777344 60.617188zm87.742188-127.3125h39.851562c-1.441406 25.253906-9.945312 49.59375-24.546875 70.246094-7.714844-5.136719-15.886719-9.554688-24.414063-13.191406 5.484376-18.542969 8.546876-37.722657 9.109376-57.054688zm0-16c-.5625-19.332031-3.625-38.511719-9.109376-57.054688 8.523438-3.644531 16.695313-8.058593 24.414063-13.191406 14.597656 20.652344 23.101563 44.992188 24.546875 70.246094zm5.273437-82.734375c-6.238281 4.039063-12.800781 7.5625-19.617187 10.535156-6.089844-16.097656-14.972657-30.992187-26.238282-44 17.460938 7.816407 33.085938 19.21875 45.855469 33.464844zm-156.175781-33.464844c-11.265625 13.007813-20.148438 27.902344-26.238282 44-6.816406-2.972656-13.375-6.496093-19.617187-10.535156 12.769531-14.246094 28.394531-25.648437 45.855469-33.464844zm-45.855469 214.933594c6.238281-4.039063 12.800781-7.5625 19.617187-10.535156 6.089844 16.097656 14.972657 30.992187 26.238282 44-17.460938-7.816407-33.085938-19.21875-45.855469-33.464844zm156.214844 33.464844c11.265625-13.007813 20.148437-27.902344 26.242187-44 6.8125 2.972656 13.375 6.496093 19.613282 10.535156-12.769532 14.246094-28.394532 25.648437-45.855469 33.464844zm0 0" fill="url(#linear2)"/><g fill="url(#linear1)"><path d="m320 96h112v16h-112zm0 0"/><path d="m320 144h112v16h-112zm0 0"/><path d="m320 192h112v16h-112zm0 0"/></g></svg>