<svg height="479pt" viewBox="0 -1 479.66484 479" width="479pt" xmlns="http://www.w3.org/2000/svg" xmlns:xlink="http://www.w3.org/1999/xlink"><linearGradient id="lg1"><stop offset="0" stop-color="#006df0"/><stop offset="1" stop-color="#00e7f0"/></linearGradient><linearGradient id="linear0" gradientUnits="userSpaceOnUse" x1="363.760656" x2="363.760656" xlink:href="#lg1" y1="555.439433" y2="-20.808567"/><linearGradient id="linear1" gradientUnits="userSpaceOnUse" x1="115.920656" x2="115.920656" xlink:href="#lg1" y1="555.439433" y2="-20.808567"/><linearGradient id="linear2" gradientUnits="userSpaceOnUse" x1="239.840656" x2="239.840656" xlink:href="#lg1" y1="555.439433" y2="-20.808567"/><path d="m454.304688 188.175781c-17.046876-3.238281-33.652344 7.417969-37.808594 24.261719l-18.144532 67.632812c-11.5-7.246093-26.261718-6.726562-37.230468 1.304688-.800782.625-72.136719 45.914062-72.136719 45.914062-25.667969 16.042969-41.226563 44.207032-41.144531 74.476563v67.824219c0 4.417968 3.582031 8 8 8 4.417968 0 8-3.582032 8-8v-67.824219c-.066406-24.761719 12.660156-47.804687 33.65625-60.933594 0 0 72.382812-45.953125 72.648437-46.175781 6.40625-5.363281 15.820313-5.054688 21.863281.710938 6.074219 6.078124 6.261719 15.871093.425782 22.175781l-53.191406 37.382812c-3.617188 2.542969-4.488282 7.535157-1.949219 11.148438 2.539062 3.617187 7.53125 4.488281 11.148437 1.949219l53.800782-37.824219c.375-.265625.730468-.5625 1.054687-.886719 8.734375-8.796875 11.605469-21.839844 7.367187-33.488281l21.265626-79.242188c2.054687-8.550781 10.328124-14.097656 19.023437-12.75 7.367187 1.578125 12.648437 8.0625 12.703125 15.597657.011719 1.410156-.164062 2.808593-.527344 4.167968l-28.800781 107.632813c-1.09375 4.074219-3.238281 7.785156-6.214844 10.769531l-59.871093 59.871094c-10.535157 10.480468-16.441407 24.738281-16.402344 39.601562v28.117188c0 4.417968 3.582031 8 8 8 4.417968 0 8-3.582032 8-8v-28.117188c-.023438-10.617187 4.195312-20.800781 11.722656-28.289062l59.871094-59.871094c4.964844-4.96875 8.535156-11.152344 10.351562-17.9375l28.800782-107.617188c.726562-2.714843 1.089843-5.515624 1.078124-8.328124-.078124-15.074219-10.621093-28.074219-25.359374-31.253907zm0 0" fill="url(#linear0)"/><path d="m190.695312 327.289062s-70.757812-44.800781-71.269531-45.234374c-10.996093-8.664063-26.261719-9.457032-38.097656-1.984376l-18.152344-67.632812c-4.140625-16.851562-20.75-27.515625-37.800781-24.261719-8.582031 1.828125-16.042969 7.09375-20.636719 14.570313-4.589843 7.480468-5.917969 16.515625-3.664062 24.996094l28.796875 107.632812c1.816406 6.785156 5.386718 12.96875 10.355468 17.9375l59.871094 59.871094c7.535156 7.484375 11.761719 17.667968 11.742188 28.289062v28.117188c0 4.417968 3.582031 8 8 8 4.417968 0 8-3.582032 8-8v-28.117188c.039062-14.863281-5.867188-29.121094-16.40625-39.601562l-59.871094-59.871094c-2.980469-2.984375-5.125-6.695312-6.21875-10.769531l-28.800781-107.65625c-.355469-1.351563-.53125-2.746094-.519531-4.144531.050781-7.535157 5.335937-14.023438 12.707031-15.597657 8.699219-1.394531 17 4.171875 19.015625 12.75l21.269531 79.242188c-4.234375 11.648437-1.363281 24.691406 7.367187 33.488281.328126.324219.679688.621094 1.058594.886719l53.800782 37.792969c3.613281 2.539062 8.605468 1.667968 11.144531-1.949219 2.542969-3.617188 1.671875-8.605469-1.945313-11.148438l-53.191406-37.382812c-5.835938-6.308594-5.652344-16.097657.421875-22.175781 5.898437-5.621094 15.023437-6.074219 21.449219-1.066407.40625.328125 73.0625 46.53125 73.0625 46.53125 21.007812 13.132813 33.738281 36.191407 33.65625 60.964844v67.824219c0 4.417968 3.582031 8 8 8 4.417968 0 8-3.582032 8-8v-67.824219c.085937-30.269531-15.472656-58.433594-41.144532-74.476563zm0 0" fill="url(#linear1)"/><path d="m371.457031 260.726562c2.6875-1.363281 4.382813-4.121093 4.382813-7.136718v-133.382813l72.082031-27.128906c3.117187-1.171875 5.183594-4.15625 5.183594-7.488281 0-3.332032-2.066407-6.3125-5.183594-7.488282l-205.257813-77.253906c-1.820312-.6875-3.828124-.6875-5.648437 0l-205.253906 77.253906c-3.121094 1.175782-5.183594 4.15625-5.183594 7.488282 0 3.332031 2.0625 6.316406 5.183594 7.488281l40.351562 15.203125c-.132812.425781-.222656.867188-.273437 1.308594v80c0 4.417968 3.582031 8 8 8 4.417968 0 8-3.582032 8-8v-75.40625l16 6.023437v133.382813c0 3.015625 1.695312 5.773437 4.386718 7.136718l6.398438 3.199219c78.929688 39.144531 171.613281 39.144531 250.542969 0zm-131.617187-243.847656 182.542968 68.710938-182.542968 68.714844-182.542969-68.714844zm118.113281 232.800782c-74.40625 36.875-161.769531 36.875-236.175781 0l-1.9375-1v-122.449219l117.175781 44.105469c1.820313.683593 3.828125.683593 5.648437 0l117.175782-44.105469v122.449219zm0 0" fill="url(#linear2)"/></svg>