<svg height="480pt" viewBox="0 0 480.00008 480" width="480pt" xmlns="http://www.w3.org/2000/svg" xmlns:xlink="http://www.w3.org/1999/xlink"><linearGradient id="lg1"><stop offset="0" stop-color="#006df0"/><stop offset="1" stop-color="#00e7f0"/></linearGradient><linearGradient id="linear0" gradientUnits="userSpaceOnUse" x1="240" x2="240" xlink:href="#lg1" y1="551.71204" y2="-66.59996"/><linearGradient id="linear1" gradientUnits="userSpaceOnUse" x1="256" x2="256" xlink:href="#lg1" y1="551.71204" y2="-66.59996"/><linearGradient id="linear2" gradientUnits="userSpaceOnUse" x1="272" x2="272" xlink:href="#lg1" y1="551.71204" y2="-66.59996"/><linearGradient id="linear5" gradientUnits="userSpaceOnUse" x1="304" x2="304" xlink:href="#lg1" y1="551.71204" y2="-66.59996"/><linearGradient id="linear6" gradientUnits="userSpaceOnUse" x1="56" x2="56" xlink:href="#lg1" y1="551.71204" y2="-66.59996"/><path d="m474.625 320.34375c-10.917969-19.03125-35.148438-25.6875-54.257812-14.902344l-94.488282 48.160156c-5.214844-6.003906-12.101562-10.308593-19.78125-12.363281l-98.898437-26.476562c-7.566407-2.046875-15.570313-1.804688-23 .695312l-33.960938 11.3125c-2.445312.8125-5.011719 1.230469-7.589843 1.230469h-30.648438v-24h-112v176h112v-16h15.894531c1.96875 0 3.925781.238281 5.832031.710938l56.351563 14.105468c3.175781.785156 6.433594 1.183594 9.707031 1.183594h67.480469c7.019531 0 13.917969-1.847656 20-5.359375l172.734375-99.71875c12.347656-7.152344 19.964844-20.332031 20-34.601563.015625-7.019531-1.839844-13.914062-5.375-19.976562zm-378.625 143.65625h-80v-144h80zm356-102.929688-172.734375 99.730469c-3.652344 2.101563-7.789063 3.203125-12 3.199219h-67.480469c-1.96875 0-3.925781-.238281-5.832031-.710938l-56.351563-14.105468c-3.175781-.785156-6.433593-1.183594-9.707031-1.183594h-15.894531v-104h30.648438c4.300781 0 8.570312-.691406 12.648437-2.054688l33.949219-11.320312c4.464844-1.492188 9.265625-1.636719 13.808594-.417969l98.898437 26.503907c12.789063 3.488281 20.328125 16.679687 16.84375 29.46875-3.488281 12.789062-16.679687 20.332031-29.46875 16.84375l-75.59375-18.113282c-4.296875-1.03125-8.617187 1.617188-9.648437 5.917969-1.035157 4.300781 1.613281 8.621094 5.914062 9.652344l75.390625 18.046875c14.160156 3.785156 29.257813-.472656 39.347656-11.105469 10.089844-10.628906 13.558594-25.925781 9.039063-39.871094l94.222656-48.054687c5.523438-3.191406 12.089844-4.050782 18.246094-2.382813 6.160156 1.667969 11.394531 5.71875 14.554687 11.261719 2.109375 3.625 3.214844 7.75 3.199219 11.945312-.019531 8.558594-4.589844 16.464844-12 20.75zm0 0" fill="url(#linear0)"/><path d="m144 304h264v-304h-264c-22.082031.0273438-39.972656 17.917969-40 40v224c.027344 22.082031 17.917969 39.972656 40 40zm248-80h-240v-208h240zm-256-206.527344v207.328125c-5.820312 1.234375-11.289062 3.761719-16 7.398438v-192.199219c.042969-10.132812 6.445312-19.148438 16-22.527344zm8 222.527344h248v16h-248c-4.417969 0-8 3.582031-8 8s3.582031 8 8 8h248v16h-248c-13.253906 0-24-10.746094-24-24s10.746094-24 24-24zm0 0" fill="url(#linear1)"/><path d="m376 112v-80h-208v80zm-192-64h176v48h-176zm0 0" fill="url(#linear2)"/><path d="m232 200h16v16h-16zm0 0" fill="url(#linear0)"/><path d="m264 200h16v16h-16zm0 0" fill="url(#linear2)"/><path d="m296 200h16v16h-16zm0 0" fill="url(#linear5)"/><path d="m56 408c-13.253906 0-24 10.746094-24 24s10.746094 24 24 24 24-10.746094 24-24-10.746094-24-24-24zm0 32c-4.417969 0-8-3.582031-8-8s3.582031-8 8-8 8 3.582031 8 8-3.582031 8-8 8zm0 0" fill="url(#linear6)"/></svg>