<svg height="495pt" viewBox="-63 0 495 495.08307" width="495pt" xmlns="http://www.w3.org/2000/svg" xmlns:xlink="http://www.w3.org/1999/xlink"><linearGradient id="lg1"><stop offset="0" stop-color="#006df0"/><stop offset="1" stop-color="#00e7f0"/></linearGradient><linearGradient id="linear0" gradientUnits="userSpaceOnUse" x1="184.033535" x2="184.033535" xlink:href="#lg1" y1="566.899069" y2="-21.284931"/><linearGradient id="linear1" gradientUnits="userSpaceOnUse" x1="352.041535" x2="352.041535" xlink:href="#lg1" y1="566.899069" y2="-21.284931"/><linearGradient id="linear2" gradientUnits="userSpaceOnUse" x1="329.54463" x2="329.54463" xlink:href="#lg1" y1="566.899114" y2="-21.284886"/><linearGradient id="linear3" gradientUnits="userSpaceOnUse" x1="329.540187" x2="329.540187" xlink:href="#lg1" y1="566.903234" y2="-21.280766"/><linearGradient id="linear4" gradientUnits="userSpaceOnUse" x1="16.041535" x2="16.041535" xlink:href="#lg1" y1="566.899069" y2="-21.284931"/><linearGradient id="linear5" gradientUnits="userSpaceOnUse" x1="38.546456" x2="38.546456" xlink:href="#lg1" y1="566.902519" y2="-21.281481"/><linearGradient id="linear6" gradientUnits="userSpaceOnUse" x1="38.550221" x2="38.550221" xlink:href="#lg1" y1="566.902363" y2="-21.281637"/><path d="m198.066406 3.730469c-54.972656-6.46875-107.238281 25.496093-126.515625 77.382812-19.28125 51.882813-.570312 110.222657 45.289063 141.21875 2.070312 1.464844 3.269531 3.867188 3.203125 6.398438v15.703125c-7.554688 2.625-13.289063 8.867187-15.253907 16.621094-1.964843 7.75.097657 15.972656 5.492188 21.875-8.320312 9.046874-8.320312 22.957031 0 32-5.40625 5.90625-7.480469 14.136718-5.515625 21.898437 1.96875 7.761719 7.707031 14.011719 15.277344 16.632813v68.476562l64 73.144531 64-73.144531v-68.476562c7.566406-2.621094 13.308593-8.871094 15.273437-16.632813s-.105468-15.992187-5.515625-21.898437c8.320313-9.042969 8.320313-22.953126 0-32 5.410157-5.902344 7.480469-14.132813 5.515625-21.894532-1.964844-7.761718-7.707031-14.015625-15.273437-16.632812v-15.566406c-.066407-2.558594 1.128906-4.984376 3.199219-6.488282 41.566406-28.082031 61.28125-79.054687 49.421874-127.796875-11.855468-48.742187-52.777343-84.96875-102.597656-90.820312zm-70.023437 255.199219h112c4.417969 0 8 3.582031 8 8 0 4.417968-3.582031 8-8 8h-112c-4.417969 0-8-3.582032-8-8 0-4.417969 3.582031-8 8-8zm40.238281-163.359376c.488281-3.550781 1.78125-6.941406 3.777344-9.917968 2.613281 3.933594 3.996094 8.554687 3.984375 13.277344-.015625 4.773437-1.371094 9.441406-3.921875 13.472656-2.667969-3.984375-4.085938-8.675782-4.078125-13.472656 0-.933594.238281-3.359376.238281-3.359376zm-15.945312-1.382812v.367188c-.179688 1.453124-.28125 2.914062-.292969 4.375-.003907 8.015624 2.382812 15.851562 6.863281 22.496093 3.777344 5.410157 10.5 7.933594 16.902344 6.34375 3.207031-.78125 6.085937-2.554687 8.234375-5.0625 2.085937 2.453125 4.878906 4.199219 8 5 6.523437 1.714844 13.421875-.84375 17.246093-6.398437 4.429688-6.621094 6.78125-14.414063 6.753907-22.378906 0-1.414063-.082031-2.832032-.242188-4.238282l-.054687-.503906c-.761719-6.523438-3.132813-12.757812-6.90625-18.136719 4.386718-1.378906 9.074218-1.492187 13.523437-.335937 8.617188 2.328125 15.222657 9.257812 17.140625 17.976562 1.777344 14.699219-3.800781 29.328125-14.910156 39.113282-15.996094 13.570312-25.015625 33.632812-24.550781 54.605468v55.519532h-32v-55.519532c.460937-20.96875-8.554688-41.027344-24.546875-54.597656-11.117188-9.792969-16.691406-24.4375-14.902344-39.144531 1.910156-8.683594 8.472656-15.589844 17.046875-17.9375 4.472656-1.183594 9.191406-1.066407 13.601563.335937-3.773438 5.371094-6.144532 11.601563-6.90625 18.121094zm47.707031 4.742188c-.015625 4.773437-1.371094 9.441406-3.921875 13.472656-2.667969-3.984375-4.085938-8.675782-4.078125-13.472656-.015625-4.722657 1.378906-9.347657 4-13.277344 1.996093 2.976562 3.285156 6.367187 3.773437 9.917968 0 0 .226563 2.425782.226563 3.359376zm48 200c0 4.417968-3.582031 8-8 8h-112c-4.417969 0-8-3.582032-8-8 0-4.417969 3.582031-8 8-8h112c4.417969 0 8 3.582031 8 8zm-16 106.816406-16-8.328125-.144531-42.488281h16.144531zm-72.488281 6.402344 24.367187 16.3125 25.769531-16.328126 17.597656 9.175782-23.566406 26.984375c-12.28125-6.632813-27.078125-6.632813-39.359375 0l-23.472656-26.824219zm40.34375-57.21875.144531 44.402343-15.875 10.054688-16.125-10.792969.09375-43.664062zm-47.855469 43.097656-16 8v-51.097656h16.09375zm23.199219 62.71875c5.65625-2.117188 11.894531-2.117188 17.550781 0l-8.75 10.03125zm64.800781-121.816406h-112c-4.417969 0-8-3.582032-8-8 0-4.417969 3.582031-8 8-8h112c4.417969 0 8 3.582031 8 8 0 4.417968-3.582031 8-8 8zm2.207031-129.847657c-6.472656 4.480469-10.300781 11.882813-10.207031 19.753907v14.09375h-16v-55.519532c-.449219-16.160156 6.402343-31.660156 18.65625-42.207031 15.84375-13.480469 23.585937-34.199219 20.460937-54.769531-2.558594-11.964844-10.472656-22.09375-21.46875-27.472656-10.992187-5.378907-23.847656-5.410157-34.867187-.085938-2.761719 1.292969-5.367188 2.902344-7.757813 4.800781-2.640625 2.113281-5.003906 4.558594-7.023437 7.269531-2.03125-2.71875-4.398438-5.167968-7.050781-7.285156-2.328126-1.867187-4.863282-3.453125-7.558594-4.730468-11.019532-5.390626-23.910156-5.410157-34.945313-.050782-11.035156 5.359375-18.988281 15.503906-21.558593 27.5-3.132813 20.578125 4.605468 41.308594 20.457031 54.800782 12.261719 10.550781 19.113281 26.0625 18.65625 42.230468v55.519532h-16v-14.230469c.0625-7.835938-3.773438-15.191407-10.234375-19.625-37.875-25.589844-54.605469-72.910157-41.222656-116.621094 13.378906-43.707031 53.734374-73.554687 99.445312-73.554687s86.0625 29.847656 99.441406 73.554687c13.382813 43.710937-3.347656 91.03125-41.222656 116.621094zm0 0" fill="url(#linear0)"/><path d="m336.042969 90.929688h32v16h-32zm0 0" fill="url(#linear1)"/><path d="m311.679688 181.867188 8-13.859376 27.71875 16.003907-7.996094 13.855469zm0 0" fill="url(#linear2)"/><path d="m311.675781 16 27.71875-16 8 13.855469-27.71875 16.003906zm0 0" fill="url(#linear3)"/><path d="m.0429688 90.929688h32.0000002v16h-32.0000002zm0 0" fill="url(#linear4)"/><path d="m20.691406 184.003906 27.71875-16.003906 8 13.859375-27.722656 16zm0 0" fill="url(#linear5)"/><path d="m20.695312 13.867188 8-13.8593755 27.71875 16.0039065-8 13.855469zm0 0" fill="url(#linear6)"/></svg>