<svg height="488pt" viewBox="-4 0 488 488" width="488pt" xmlns="http://www.w3.org/2000/svg" xmlns:xlink="http://www.w3.org/1999/xlink"><linearGradient id="lg1"><stop offset="0" stop-color="#006df0"/><stop offset="1" stop-color="#00e7f0"/></linearGradient><linearGradient id="linear0" gradientUnits="userSpaceOnUse" x1="240" x2="240" xlink:href="#lg1" y1="546.12" y2="-21.456"/><linearGradient id="linear1" gradientUnits="userSpaceOnUse" x1="88" x2="88" xlink:href="#lg1" y1="546.12" y2="-21.456"/><linearGradient id="linear2" gradientUnits="userSpaceOnUse" x1="120" x2="120" xlink:href="#lg1" y1="546.12" y2="-21.456"/><linearGradient id="linear3" gradientUnits="userSpaceOnUse" x1="152" x2="152" xlink:href="#lg1" y1="546.12" y2="-21.456"/><linearGradient id="linear4" gradientUnits="userSpaceOnUse" x1="208" x2="208" xlink:href="#lg1" y1="546.12" y2="-21.456"/><linearGradient id="linear6" gradientUnits="userSpaceOnUse" x1="272" x2="272" xlink:href="#lg1" y1="546.12" y2="-21.456"/><linearGradient id="linear7" gradientUnits="userSpaceOnUse" x1="144" x2="144" xlink:href="#lg1" y1="546.12" y2="-21.456"/><linearGradient id="linear10" gradientUnits="userSpaceOnUse" x1="312" x2="312" xlink:href="#lg1" y1="546.12" y2="-21.456"/><linearGradient id="linear11" gradientUnits="userSpaceOnUse" x1="248" x2="248" xlink:href="#lg1" y1="546.12" y2="-21.456"/><linearGradient id="linear12" gradientUnits="userSpaceOnUse" x1="328" x2="328" xlink:href="#lg1" y1="546.12" y2="-21.456"/><path d="m440 88h-8v-88h-384v88h-8c-22.082031.027344-39.9726562 17.917969-40 40v224c.0273438 22.082031 17.917969 39.972656 40 40h120v32h-16c-22.082031.027344-39.972656 17.917969-40 40v8h-24v16h320v-16h-24v-8c-.027344-22.082031-17.917969-39.972656-40-40h-16v-32h120c22.082031-.027344 39.972656-17.917969 40-40v-224c-.027344-22.082031-17.917969-39.972656-40-40zm-376-72h352v32h-352zm272 424c13.253906 0 24 10.746094 24 24v8h-240v-8c0-13.253906 10.746094-24 24-24zm-32-16h-128v-32h128zm160-72c0 13.253906-10.746094 24-24 24h-400c-13.253906 0-24-10.746094-24-24v-224c0-13.253906 10.746094-24 24-24h8v192h48v-16h-32v-216h352v216h-224v16h240v-192h8c13.253906 0 24 10.746094 24 24zm0 0" fill="url(#linear0)"/><path d="m80 24h16v16h-16zm0 0" fill="url(#linear1)"/><path d="m112 24h16v16h-16zm0 0" fill="url(#linear2)"/><path d="m144 24h16v16h-16zm0 0" fill="url(#linear3)"/><path d="m200 352h16v16h-16zm0 0" fill="url(#linear4)"/><path d="m232 352h16v16h-16zm0 0" fill="url(#linear0)"/><path d="m264 352h16v16h-16zm0 0" fill="url(#linear6)"/><path d="m108.296875 197.097656c2.273437 1.464844 3.664063 3.972656 3.703125 6.679688v4.222656h-16v48h16v24c0 13.253906 10.746094 24 24 24h16c13.253906 0 24-10.746094 24-24v-24h16v-48h-16v-4.207031c.066406-2.75 1.492188-5.285157 3.808594-6.769531 18.277344-12.234376 28.9375-33.042969 28.191406-55.023438-1.402344-33.867188-28.699219-60.910156-62.574219-62-28.402343-.617188-53.816406 17.558594-62.402343 44.640625-8.585938 27.078125 1.703124 56.578125 25.273437 72.4375zm43.703125 90.902344h-16c-4.417969 0-8-3.582031-8-8h32c0 4.417969-3.582031 8-8 8zm8-24h-32v-8h32zm16-24h-64v-16h64zm-65.601562-130.320312c9.179687-9.148438 21.730468-14.101563 34.679687-13.679688 25.402344.816406 45.871094 21.09375 46.921875 46.488281.570312 16.476563-7.410156 32.082031-21.105469 41.265625-6.746093 4.441406-10.832031 11.960938-10.894531 20.039063v4.207031h-8v-64h-16v64h-8v-4.222656c-.023438-8.054688-4.078125-15.5625-10.800781-20-11.96875-8.058594-19.675781-21.066406-20.996094-35.433594-1.316406-14.367188 3.894531-28.5625 14.195313-38.664062zm0 0" fill="url(#linear7)"/><path d="m136 112h16v16h-16zm0 0" fill="url(#linear7)"/><path d="m32 320h416v16h-416zm0 0" fill="url(#linear0)"/><path d="m400 96h-176v80h176zm-16 64h-144v-48h144zm0 0" fill="url(#linear10)"/><path d="m240 192h16v16h-16zm0 0" fill="url(#linear11)"/><path d="m272 192h112v16h-112zm0 0" fill="url(#linear12)"/><path d="m240 216h16v16h-16zm0 0" fill="url(#linear11)"/><path d="m272 216h112v16h-112zm0 0" fill="url(#linear12)"/><path d="m240 240h16v16h-16zm0 0" fill="url(#linear11)"/><path d="m272 240h112v16h-112zm0 0" fill="url(#linear12)"/></svg>