<svg height="480pt" viewBox="0 0 480 480.0401" width="480pt" xmlns="http://www.w3.org/2000/svg" xmlns:xlink="http://www.w3.org/1999/xlink"><linearGradient id="lg1"><stop offset="0" stop-color="#006df0"/><stop offset="1" stop-color="#00e7f0"/></linearGradient><linearGradient id="linear0" gradientUnits="userSpaceOnUse" x1="240.02005" x2="240.02005" xlink:href="#lg1" y1="527.28" y2=".496"/><linearGradient id="linear1" gradientUnits="userSpaceOnUse" x1="98.601057" x2="98.601057" xlink:href="#lg1" y1="527.282074" y2=".498074"/><linearGradient id="linear2" gradientUnits="userSpaceOnUse" x1="40.02005" x2="40.02005" xlink:href="#lg1" y1="527.28" y2=".496"/><linearGradient id="linear3" gradientUnits="userSpaceOnUse" x1="98.591139" x2="98.591139" xlink:href="#lg1" y1="527.285444" y2=".501444"/><linearGradient id="linear4" gradientUnits="userSpaceOnUse" x1="381.448166" x2="381.448166" xlink:href="#lg1" y1="527.281705" y2=".497705"/><linearGradient id="linear5" gradientUnits="userSpaceOnUse" x1="440.02005" x2="440.02005" xlink:href="#lg1" y1="527.28" y2=".496"/><linearGradient id="linear6" gradientUnits="userSpaceOnUse" x1="381.444427" x2="381.444427" xlink:href="#lg1" y1="527.272678" y2=".488678"/><linearGradient id="linear8" gradientUnits="userSpaceOnUse" x1="216.02005" x2="216.02005" xlink:href="#lg1" y1="527.28" y2=".496"/><linearGradient id="linear10" gradientUnits="userSpaceOnUse" x1="264.02005" x2="264.02005" xlink:href="#lg1" y1="527.28" y2=".496"/><path d="m232.019531 32h16v16h-16zm0 0" fill="url(#linear0)"/><path d="m87.285156 98.574219 11.3125-11.3125 11.316406 11.3125-11.316406 11.316406zm0 0" fill="url(#linear1)"/><path d="m32.019531 232h16v16h-16zm0 0" fill="url(#linear2)"/><path d="m87.28125 381.429688 11.3125-11.316407 11.316406 11.316407-11.316406 11.3125zm0 0" fill="url(#linear3)"/><path d="m370.132812 381.425781 11.3125-11.316406 11.316407 11.316406-11.316407 11.3125zm0 0" fill="url(#linear4)"/><path d="m432.019531 232h16v16h-16zm0 0" fill="url(#linear5)"/><path d="m370.128906 98.570312 11.3125-11.3125 11.316406 11.3125-11.316406 11.316407zm0 0" fill="url(#linear6)"/><path d="m480.019531 296v-112h-48c-4.0625-13.941406-9.652343-27.394531-16.664062-40.113281l33.96875-33.964844-79.199219-79.203125-33.96875 33.96875c-12.722656-7.023438-26.183594-12.617188-40.136719-16.6875v-48h-112v48c-13.941406 4.0625-27.394531 9.652344-40.113281 16.664062l-33.964844-33.976562-79.203125 79.199219 33.96875 33.96875c-7.023437 12.726562-12.617187 26.191406-16.6875 40.144531h-47.9999998v112h47.9999998c4.0625 13.941406 9.652344 27.394531 16.664063 40.113281l-33.976563 33.964844 79.199219 79.203125 33.96875-33.96875c12.730469 6.992188 26.195312 12.558594 40.144531 16.597656v16.089844h16.800781c3.785157 18.644531 20.175782 32.039062 39.199219 32.039062 19.023438 0 35.414063-13.394531 39.199219-32.039062h16.800781v-16.089844c13.9375-4.03125 27.390625-9.589844 40.113281-16.566406l33.96875 33.96875 79.199219-79.199219-33.96875-33.96875c7.023438-12.726562 12.621094-26.191406 16.6875-40.144531zm-240 168c-10.167969-.011719-19.230469-6.417969-22.632812-16h45.265625c-3.402344 9.582031-12.464844 15.988281-22.632813 16zm40-32h-80v-32h80zm-79.839843-78.742188c-48-16.976562-80.109376-62.34375-80.160157-113.257812 0-32.8125 13.4375-64.191406 37.179688-86.835938 23.746093-22.644531 55.726562-34.582031 88.5-33.027343 61.75 3.246093 111.054687 52.644531 114.191406 114.398437 2.628906 52.925782-29.914063 101.257813-79.941406 118.730469-9.53125 3.382813-15.90625 12.390625-15.929688 22.503906v8.230469h-16v-96h8c30.914063-.035156 55.964844-25.085938 56-56v-24h-24c-19.6875.03125-37.910156 10.398438-48 27.304688-10.085937-16.90625-28.3125-27.273438-48-27.304688h-24v24c.035157 30.914062 25.085938 55.964844 56 56h8v96h-16v-8.230469c.019531-10.101562-6.324219-19.121093-15.839843-22.511719zm47.839843-89.257812c.027344-22.082031 17.921875-39.972656 40-40h8v8c-.027343 22.082031-17.917969 39.972656-40 40h-8zm-16 8h-8c-22.078125-.027344-39.972656-17.917969-40-40v-8h8c22.082031.027344 39.972657 17.917969 40 40zm186.175781 13.992188c-4.296874 16.636718-10.925781 32.578124-19.6875 47.359374l-3.199218 5.34375 31.382812 31.382813-56.589844 56.609375-31.386718-31.382812-5.34375 3.199218c-11.78125 6.953125-24.3125 12.554688-37.351563 16.695313v-31.199219h-16v-8.230469c0-3.347656 2.105469-6.335937 5.257813-7.457031 56.6875-19.792969 93.566406-74.558594 90.597656-134.527344-3.589844-69.976562-59.46875-125.921875-129.4375-129.601562-67.484375-3.285156-127.152344 43.46875-140.097656 109.78125-12.945313 66.3125 24.753906 132.074218 88.519531 154.410156 3.121094 1.132812 5.1875 4.105469 5.160156 7.425781v8.199219h-16v31.199219c-13.039062-4.148438-25.570312-9.757813-37.351562-16.71875l-5.34375-3.199219-31.382813 31.40625-56.609375-56.609375 31.382813-31.382813-3.199219-5.34375c-8.761719-14.78125-15.390625-30.722656-19.6875-47.359374l-1.535156-5.992188h-44.273438v-80h44.273438l1.550781-5.992188c4.296875-16.636718 10.925781-32.582031 19.6875-47.359374l3.199219-5.34375-31.398438-31.382813 56.609375-56.609375 31.382813 31.382812 5.34375-3.199218c14.777343-8.765625 30.722656-15.390625 47.359375-19.6875l5.992187-1.535156v-44.273438h80v44.273438l5.992188 1.550781c16.636719 4.296875 32.582031 10.921875 47.359375 19.6875l5.34375 3.199219 31.386718-31.398438 56.605469 56.609375-31.382812 31.382813 3.199219 5.34375c8.765624 14.777343 15.394531 30.722656 19.6875 47.359374l1.554687 5.992188h44.253906v80h-44.269531zm0 0" fill="url(#linear0)"/><path d="m208.019531 408h16v16h-16zm0 0" fill="url(#linear8)"/><path d="m232.019531 408h16v16h-16zm0 0" fill="url(#linear0)"/><path d="m256.019531 408h16v16h-16zm0 0" fill="url(#linear10)"/></svg>