<svg height="480pt" viewBox="0 0 480.23083 480" width="480pt" xmlns="http://www.w3.org/2000/svg" xmlns:xlink="http://www.w3.org/1999/xlink"><linearGradient id="lg1"><stop offset="0" stop-color="#006df0"/><stop offset="1" stop-color="#00e7f0"/></linearGradient><linearGradient id="linear0" gradientUnits="userSpaceOnUse" x1="148.099417" x2="148.099417" xlink:href="#lg1" y1="564.081353" y2="4.865353"/><linearGradient id="linear1" gradientUnits="userSpaceOnUse" x1="184.099417" x2="184.099417" xlink:href="#lg1" y1="564.081353" y2="4.865353"/><linearGradient id="linear2" gradientUnits="userSpaceOnUse" x1="312.099417" x2="312.099417" xlink:href="#lg1" y1="564.081353" y2="4.865353"/><linearGradient id="linear3" gradientUnits="userSpaceOnUse" x1="424.099417" x2="424.099417" xlink:href="#lg1" y1="564.081353" y2="4.865353"/><linearGradient id="linear4" gradientUnits="userSpaceOnUse" x1="56.099417" x2="56.099417" xlink:href="#lg1" y1="564.081353" y2="4.865353"/><linearGradient id="linear5" gradientUnits="userSpaceOnUse" x1="300.099417" x2="300.099417" xlink:href="#lg1" y1="564.081353" y2="4.865353"/><linearGradient id="linear6" gradientUnits="userSpaceOnUse" x1="232.099417" x2="232.099417" xlink:href="#lg1" y1="564.081353" y2="4.865353"/><linearGradient id="linear7" gradientUnits="userSpaceOnUse" x1="168.099417" x2="168.099417" xlink:href="#lg1" y1="564.081353" y2="4.865353"/><linearGradient id="linear8" gradientUnits="userSpaceOnUse" x1="328.099417" x2="328.099417" xlink:href="#lg1" y1="564.081353" y2="4.865353"/><linearGradient id="linear9" gradientUnits="userSpaceOnUse" x1="240.099417" x2="240.099417" xlink:href="#lg1" y1="564.081353" y2="4.865353"/><linearGradient id="linear10" gradientUnits="userSpaceOnUse" x1="132.099417" x2="132.099417" xlink:href="#lg1" y1="564.081353" y2="4.865353"/><path d="m152.097656 272.097656h-8c-4.417968 0-8-3.582031-8-8 0-4.417968 3.582032-8 8-8h8c4.421875 0 8 3.582032 8 8 0 4.417969-3.578125 8-8 8zm0 0" fill="url(#linear0)"/><path d="m176.097656 224.097656c-4.417968 0-8-3.582031-8-8v-16c0-13.253906 10.746094-24 24-24 4.421875 0 8 3.582032 8 8 0 4.417969-3.578125 8-8 8-4.417968 0-8 3.582032-8 8v16c0 4.417969-3.578125 8-8 8zm0 0" fill="url(#linear1)"/><path d="m320.097656 176.097656c-4.417968 0-8-3.582031-8-8 0-4.417968-3.578125-8-8-8-4.417968 0-8-3.582031-8-8 0-4.417968 3.582032-8 8-8 13.257813 0 24 10.746094 24 24 0 4.417969-3.578125 8-8 8zm0 0" fill="url(#linear2)"/><path d="m416.097656 232.097656c-4.417968 0-8-3.582031-8-8 0-4.417968 3.582032-8 8-8 4.421875 0 8-3.582031 8-8 0-4.417968-3.578125-8-8-8-4.417968 0-8-3.582031-8-8 0-4.417968 3.582032-8 8-8 13.257813 0 24 10.746094 24 24s-10.742187 24-24 24zm0 0" fill="url(#linear3)"/><path d="m48.097656 216.097656c-4.417968 0-8-3.582031-8-8 0-13.253906 10.746094-24 24-24 4.421875 0 8 3.582032 8 8 0 4.417969-3.578125 8-8 8-4.417968 0-8 3.582032-8 8 0 4.417969-3.578125 8-8 8zm0 0" fill="url(#linear4)"/><path d="m304.097656 240.097656h-8c-4.417968 0-8-3.582031-8-8 0-4.417968 3.582032-8 8-8h8c4.421875 0 8 3.582032 8 8 0 4.417969-3.578125 8-8 8zm0 0" fill="url(#linear5)"/><path d="m224.097656 64.097656c-4.417968 0-8-3.582031-8-8 0-13.253906 10.746094-24 24-24 4.421875 0 8 3.582032 8 8 0 4.417969-3.578125 8-8 8-4.417968 0-8 3.582032-8 8 0 4.417969-3.578125 8-8 8zm0 0" fill="url(#linear6)"/><path d="m176.097656 104.097656c-13.253906 0-24-10.746094-24-24 0-4.417968 3.582032-8 8-8 4.421875 0 8 3.582032 8 8 0 4.417969 3.582032 8 8 8 4.421875 0 8 3.582032 8 8 0 4.417969-3.578125 8-8 8zm0 0" fill="url(#linear7)"/><path d="m336.097656 96.097656c-4.417968 0-8-3.582031-8-8 0-4.417968-3.578125-8-8-8-4.417968 0-8-3.582031-8-8 0-4.417968 3.582032-8 8-8 13.257813 0 24 10.746094 24 24 0 4.417969-3.578125 8-8 8zm0 0" fill="url(#linear8)"/><path d="m392.097656 344.144531c.027344 13.238281 10.765625 23.953125 24 23.953125h17.503906c3.898438 11.019532 15.167969 17.628906 26.6875 15.652344 11.519532-1.976562 19.941407-11.964844 19.941407-23.652344s-8.421875-21.679687-19.941407-23.65625c-11.519531-1.976562-22.789062 4.636719-26.6875 15.65625h-17.503906c-4.417968 0-8-3.582031-8-8l-.308594-72h8.308594c31.316406-.015625 58.023438-22.6875 63.117188-53.585937 5.097656-30.894531-12.914063-60.945313-42.5625-71.015625 6.914062-18.871094 3.207031-40-9.722656-55.386719-12.929688-15.390625-33.105469-22.683594-52.886719-19.125-4.589844-16.414063-16.414063-29.84375-32.113281-36.476563-15.703126-6.632812-33.574219-5.746093-48.542969 2.40625-6.859375-21.246093-25.679688-36.390624-47.90625-38.539062-22.222657-2.148438-43.597657 9.109375-54.398438 28.648438-16.425781-7.394532-35.40625-6.4375-51.003906 2.574218-15.597656 9.011719-25.910156 24.976563-27.707031 42.898438-20.339844-6.144532-42.410156-.253906-56.984375 15.210937-14.574219 15.460938-19.152344 37.839844-11.816407 57.78125-22.429687 7.566407-38.839843 26.910157-42.644531 50.277344-3.800781 23.363281 5.625 46.917969 24.5 61.203125-17.863281 7.03125-28.203125 25.78125-24.613281 44.644531 3.585938 18.859375 20.085938 32.503907 39.285156 32.484375h32.363282l-.363282 104c0 4.417969-3.578125 8-8 8h-17.46875c-3.898437-11.019531-15.167968-17.632812-26.6875-15.65625-11.519531 1.976563-19.941406 11.96875-19.941406 23.65625s8.421875 21.675782 19.941406 23.652344c11.519532 1.976562 22.789063-4.632812 26.6875-15.652344h17.46875c13.234375 0 23.972656-10.710937 24-23.945312l.363282-104.054688h88l-.363282 80c0 4.417969-3.578125 8-8 8h-17.46875c-3.898437-11.019531-15.167968-17.632812-26.6875-15.65625-11.519531 1.976563-19.941406 11.96875-19.941406 23.65625s8.421875 21.675782 19.941406 23.652344c11.519532 1.976562 22.789063-4.632812 26.6875-15.652344h17.46875c13.230469 0 23.964844-10.707031 24-23.9375l.355469-80.0625c13.117187-.191406 23.648437-10.882812 23.644531-24v-8h16v129.472656c-11.019531 3.894532-17.628906 15.164063-15.652344 26.683594 1.976563 11.523438 11.964844 19.941406 23.652344 19.941406 11.691406 0 21.679688-8.417968 23.65625-19.941406 1.976563-11.519531-4.632812-22.789062-15.65625-26.683594v-129.472656h32v65.472656c-11.019531 3.894532-17.628906 15.164063-15.652344 26.683594 1.976563 11.523438 11.964844 19.941406 23.652344 19.941406 11.691406 0 21.679688-8.417968 23.65625-19.941406 1.976563-11.519531-4.632812-22.789062-15.65625-26.683594v-66.351562c15.683594-3.210938 27.949219-15.449219 31.203125-31.121094h16.4375l.359375 168.046875c.027344 13.238281 10.765625 23.953125 24 23.953125h65.503906c3.898438 11.019532 15.167969 17.628906 26.6875 15.652344 11.519532-1.976562 19.941407-11.964844 19.941407-23.652344s-8.421875-21.679687-19.941407-23.65625c-11.519531-1.976562-22.789062 4.636719-26.6875 15.65625h-65.503906c-4.417968 0-8-3.582031-8-8l-.335937-168h32zm64 7.953125c4.421875 0 8 3.582032 8 8 0 4.417969-3.578125 8-8 8-4.417968 0-8-3.582031-8-8 0-4.417968 3.582032-8 8-8zm-432 112c-4.417968 0-8-3.582031-8-8 0-4.417968 3.582032-8 8-8 4.421875 0 8 3.582032 8 8 0 4.417969-3.578125 8-8 8zm104-24c-4.417968 0-8-3.582031-8-8 0-4.417968 3.582032-8 8-8 4.421875 0 8 3.582032 8 8 0 4.417969-3.578125 8-8 8zm112 24c-4.417968 0-8-3.582031-8-8 0-4.417968 3.582032-8 8-8 4.421875 0 8 3.582032 8 8 0 4.417969-3.578125 8-8 8zm216-16c4.421875 0 8 3.582032 8 8 0 4.417969-3.578125 8-8 8-4.417968 0-8-3.582031-8-8 0-4.417968 3.582032-8 8-8zm-168-48c-4.417968 0-8-3.582031-8-8 0-4.417968 3.582032-8 8-8 4.421875 0 8 3.582032 8 8 0 4.417969-3.578125 8-8 8zm-32-144c-13.253906 0-24-10.746094-24-24s10.746094-24 24-24h32c4.421875 0 8-3.582031 8-8 0-4.417968-3.578125-8-8-8h-32c-22.089844 0-40 17.910156-40 40s17.910156 40 40 40h54.53125c-3.378906 9.554688-12.394531 15.957032-22.53125 16h-120c-4.417968 0-8 3.582032-8 8 0 4.417969 3.582032 8 8 8h32v8c0 4.417969-3.578125 8-8 8h-120.207031c5.296875-6.882812 8.179687-15.316406 8.207031-24 0-4.417968-3.578125-8-8-8-4.417968 0-8 3.582032-8 8 0 13.253906-10.742187 24-24 24-13.253906 0-24-10.746094-24-24s10.746094-24 24-24h72c4.421875 0 8-3.582031 8-8 0-4.417968-3.578125-8-8-8h-48c-24.855468-.183594-45.460937-19.316406-47.484375-44.089844-2.023437-24.777343 15.203125-47 39.703125-51.214843.117188 0 5.304688-.695313 7.78125-.695313 26.5.027344 47.976563 21.5 48 48 0 4.417969 3.582032 8 8 8 4.421875 0 8-3.582031 8-8-.039062-35.332031-28.667968-63.960937-64-64-1.476562 0-4.535156.167969-4.574218.167969l-.089844-.167969c-2.21875-5.042968-3.355469-10.492187-3.335938-16 .027344-22.082031 17.921875-39.972656 40-40 6.015625.015625 11.949219 1.402344 17.347656 4.054688 5.679688 25.640625 28.394532 43.902344 54.652344 43.945312 4.421875 0 8-3.582031 8-8 0-4.417968-3.578125-8-8-8-22.089844 0-40-17.910156-40-40s17.910156-40 40-40c6.046875-.015625 12.015625 1.351563 17.449219 4-.914063 3.9375-1.398437 7.960938-1.449219 12 0 4.417969 3.582032 8 8 8 4.421875 0 8-3.582031 8-8-.003906-4.464844.742188-8.894531 2.210938-13.113281 0 0 .054687-.070313.070312-.109375 6.066406-17.191406 22.992188-28.105469 41.152344-26.539062 18.164062 1.5625 32.96875 15.210937 36.007812 33.183593-9.921874 10.394531-15.453124 24.210938-15.441406 38.578125-.023437 22.082032-17.917968 39.972656-40 40-4.417968 0-8 3.582032-8 8 0 4.417969 3.582032 8 8 8 30.914063-.039062 55.960938-25.089844 56-56-.003906-10.835937 4.398438-21.203125 12.195313-28.726562.183593-.179688.902343-.800782 1.046875-.898438 7.304687-6.683594 16.855468-10.386718 26.757812-10.375 20.464844-.015625 37.640625 15.410156 39.808594 35.757813.074219.683593.191406 3.410156.191406 4.242187.027344 10.613282-4.191406 20.796875-11.71875 28.28125-2.078125 2.007813-2.914062 4.980469-2.179687 7.777344.730469 2.796875 2.914062 4.984375 5.710937 5.714844 2.796875.730468 5.773438-.101563 7.78125-2.183594 10.324219-10.25 16.214844-24.144531 16.40625-38.695312 2.628906-.574219 5.3125-.875 8-.894532 22.082032.027344 39.976563 17.917969 40 40 0 5.28125-1.066406 10.511719-3.140625 15.367188l-.3125.632812h-4.546875c-35.328125.039063-63.957031 28.667969-64 64 0 4.417969 3.582032 8 8 8 4.421875 0 8-3.582031 8-8 .027344-26.5 21.503906-47.972656 48-48 1.441406 0 6.3125.464844 7.785156.695313 24.5 4.214843 41.726563 26.4375 39.703126 51.214843-2.023438 24.773438-22.628907 43.90625-47.488282 44.089844zm0 0" fill="url(#linear9)"/><path d="m136.097656 288.097656h-8c-4.417968 0-8 3.582032-8 8 0 4.417969 3.582032 8 8 8h8c4.421875 0 8-3.582031 8-8 0-4.417968-3.578125-8-8-8zm0 0" fill="url(#linear10)"/></svg>