<svg height="480pt" viewBox="-40 0 480 480" width="480pt" xmlns="http://www.w3.org/2000/svg" xmlns:xlink="http://www.w3.org/1999/xlink"><linearGradient id="lg1"><stop offset="0" stop-color="#006df0"/><stop offset="1" stop-color="#00e7f0"/></linearGradient><linearGradient id="linear0" gradientUnits="userSpaceOnUse" x1="200" x2="200" xlink:href="#lg1" y1="508.912" y2="-11.568"/><linearGradient id="linear1" gradientUnits="userSpaceOnUse" x1="104" x2="104" xlink:href="#lg1" y1="508.912" y2="-11.568"/><linearGradient id="linear7" gradientUnits="userSpaceOnUse" x1="296" x2="296" xlink:href="#lg1" y1="508.912" y2="-11.568"/><path d="m232 0c-12.589844 0-24.445312 5.929688-32 16-7.554688-10.070312-19.410156-16-32-16h-168v232c.0273438 22.082031 17.917969 39.972656 40 40h101.273438c15.511718.03125 30.601562 5.039062 43.054687 14.289062l7.671875 5.710938v62.832031c-13.640625-16.964843-34.234375-26.832031-56-26.832031h-40v40c.042969 39.746094 32.253906 71.957031 72 72h24v40h16v-56h24c39.746094-.042969 71.957031-32.253906 72-72v-40h-40c-21.769531.003906-42.363281 9.878906-56 26.847656v-46.847656l7.671875-5.726562c12.453125-9.246094 27.546875-14.246094 43.054687-14.273438h101.273438c22.082031-.027344 39.972656-17.917969 40-40v-232zm-90.726562 256h-101.273438c-13.253906 0-24-10.746094-24-24v-216h152c13.253906 0 24 10.746094 24 24v232.167969c-14.851562-10.464844-32.558594-16.109375-50.726562-16.167969zm26.726562 168c-30.914062-.035156-55.964844-25.085938-56-56v-24h24c30.914062.035156 55.964844 25.085938 56 56v24zm96-96h24v24c-.035156 30.914062-25.085938 55.964844-56 56h-24v-24c.035156-30.914062 25.085938-55.964844 56-56zm120-96c0 13.253906-10.746094 24-24 24h-101.273438c-18.167968.058594-35.875 5.703125-50.726562 16.167969v-232.167969c0-13.253906 10.746094-24 24-24h152zm0 0" fill="url(#linear0)"/><g fill="url(#linear1)"><path d="m48 48h112v16h-112zm0 0"/><path d="m48 80h112v16h-112zm0 0"/><path d="m48 112h112v16h-112zm0 0"/><path d="m48 144h112v16h-112zm0 0"/><path d="m48 176h112v16h-112zm0 0"/><path d="m48 208h112v16h-112zm0 0"/></g><path d="m240 48h112v16h-112zm0 0" fill="url(#linear7)"/><path d="m240 80h112v16h-112zm0 0" fill="url(#linear7)"/><path d="m240 112h112v16h-112zm0 0" fill="url(#linear7)"/><path d="m240 144h112v16h-112zm0 0" fill="url(#linear7)"/><path d="m240 176h112v16h-112zm0 0" fill="url(#linear7)"/><path d="m240 208h112v16h-112zm0 0" fill="url(#linear7)"/></svg>