<svg height="481pt" viewBox="0 0 481.6 481" width="481pt" xmlns="http://www.w3.org/2000/svg" xmlns:xlink="http://www.w3.org/1999/xlink"><linearGradient id="linear0" gradientUnits="userSpaceOnUse" x1="240.8" x2="240.8" y1="484.692735" y2="-23.443265"><stop offset="0" stop-color="#006df0"/><stop offset="1" stop-color="#00e7f0"/></linearGradient><g fill="url(#linear0)"><path d="m471.664062 375.972656c-4.144531-45.242187-42.175781-79.820312-87.609374-79.65625h-30.679688c-7.8125-.011718-15.132812-3.8125-19.632812-10.199218l-28.941407-40.375v-19.53125c-.070312-2.539063 1.105469-4.957032 3.152344-6.46875 43.707031-29.523438 63.015625-84.128907 47.574219-134.5625-15.4375-50.4375-61.996094-84.878907-114.742188-84.878907s-99.308594 34.441407-114.746094 84.878907c-15.4375 50.433593 3.867188 105.039062 47.578126 134.5625 2.0625 1.46875 3.261718 3.867187 3.199218 6.398437v19.65625l-28.992187 40.359375c-4.496094 6.371094-11.804688 10.15625-19.601563 10.160156h-30.679687c-45.433594-.164062-83.460938 34.414063-87.605469 79.65625l-9.9375 104.34375h481.601562zm-243.199218-86.632812-34.648438 34.648437-26.671875-37.273437 19.511719-27.199219zm-4.664063 70.976562h34l13.863281 104h-61.726562zm36.71875-16h-39.441406l-9.980469-14.984375 29.703125-29.703125 29.703125 29.703125zm-7.382812-54.976562 41.816406-29.871094 19.503906 27.199219-26.671875 37.3125zm-116.335938-169.023438c-.015625-49.554687 34.9375-92.238281 83.523438-101.996094 48.585937-9.753906 97.308593 16.125 116.425781 61.847657 19.117188 45.71875 3.320312 98.578125-37.75 126.308593-6.472656 4.472657-10.296875 11.871094-10.199219 19.734376v17.984374l-48 34.289063-48-34.289063v-18.109374c.066407-7.835938-3.765625-15.191407-10.226562-19.625-28.628907-19.316407-45.785157-51.605469-45.773438-86.144532zm-110.9375 257.167969c3.394531-37.015625 34.511719-65.300781 71.679688-65.167969h30.679687c10.871094-.019531 21.265625-4.460937 28.800782-12.296875l34.769531 48.625 7.765625-7.777343 8.921875 13.378906-14.679688 110.070312h-176.199219zm294.9375 86.832031v-32h48v32zm64 0v-48h-80v48h-17l-14.671875-110.070312 8.917969-13.378906 7.769531 7.777343 34.777344-48.632812c7.523438 7.84375 17.914062 12.285156 28.78125 12.304687h30.679688c37.171874-.132812 68.285156 28.152344 71.679687 65.167969l8.265625 86.832031zm0 0"/><path d="m240.800781 152.316406c17.671875 0 32-14.328125 32-32s-14.328125-32-32-32c-17.675781 0-32 14.328125-32 32s14.324219 32 32 32zm0-48c8.835938 0 16 7.164063 16 16 0 8.835938-7.164062 16-16 16-8.835937 0-16-7.164062-16-16 0-8.835937 7.164063-16 16-16zm0 0"/><path d="m264.800781 208.316406h-48v-28.65625c-.335937-.136718-.664062-.261718-.984375-.40625l-20.296875 20.261719-33.96875-33.96875 20.328125-20.230469-.421875-1h-28.65625v-48h28.65625l.40625-.984375-20.261719-20.296875 33.957032-33.964844 20.25 20.328126.992187-.425782v-28.65625h48v28.65625l1.023438.425782 20.246093-20.328126 33.929688 33.964844-20.296875 20.296875.410156.984375h28.6875v48h-28.65625l-.425781 1.03125 20.328125 20.234375-33.96875 33.933594-20.292969-20.292969c-.320312.140625-.648437.269532-.984375.40625zm-32-16h16v-24.246094l5.671875-1.730468c3.167969-.9375 6.226563-2.199219 9.136719-3.765625l5.253906-2.867188 17.214844 17.21875 11.320313-11.3125-17.054688-17.082031 2.71875-5.414062c1.5625-2.90625 2.824219-5.964844 3.761719-9.128907l1.726562-5.671875h24.25v-16h-24.25l-1.726562-5.671875c-.9375-3.164062-2.199219-6.222656-3.761719-9.128906l-2.878906-5.253906 17.222656-17.226563-11.308594-11.308594-17.167968 17.007813-5.320313-2.671875c-2.910156-1.570312-5.96875-2.832031-9.136719-3.769531l-5.671875-1.726563v-24.25h-16v24.25l-5.671875 1.726563c-3.167968.9375-6.230468 2.199219-9.136718 3.769531l-4.679688 3.078125-17.808594-17.414063-11.3125 11.308594 17.222656 17.226563-2.878906 5.253906c-1.558594 2.90625-2.820312 5.964844-3.757812 9.128906l-1.730469 5.671875h-24.246094v16h24.246094l1.730469 5.671875c.9375 3.164063 2.199218 6.222657 3.757812 9.128907l3.105469 5.191406-17.441406 17.304687 11.320312 11.3125 17.214844-17.21875 5.257813 2.867188c2.90625 1.566406 5.96875 2.828125 9.136718 3.765625l5.671875 1.730468zm0 0"/></g></svg>