<svg height="478pt" viewBox="-63 0 478 478.952" width="478pt" xmlns="http://www.w3.org/2000/svg" xmlns:xlink="http://www.w3.org/1999/xlink"><linearGradient id="lg1"><stop offset="0" stop-color="#006df0"/><stop offset="1" stop-color="#00e7f0"/></linearGradient><linearGradient id="linear0" gradientUnits="userSpaceOnUse" x1="176.476" x2="176.476" xlink:href="#lg1" y1="477.28" y2="-22.52"/><linearGradient id="linear1" gradientUnits="userSpaceOnUse" x1="200.476" x2="200.476" xlink:href="#lg1" y1="477.28" y2="-22.52"/><path d="m344.476562 368h8v-368h-296c-30.914062.0351562-55.964843 25.085938-56 56v344c.027344 26.5 21.5 47.972656 48 48h40v30.953125l32-21.351563 32 21.335938v-30.9375h200v-16h-8c-17.671874 0-32-14.328125-32-32s14.328126-32 32-32zm-304-348.609375v333.320313c-8.929687 1.507812-17.25 5.503906-24 11.535156v-308.246094c.019532-15.886719 9.441407-30.253906 24-36.609375zm96 429.65625-16-10.648437-16 10.664062v-41.0625h32zm172.253907-17.046875h-156.253907v-24h120c4.417969 0 8-3.582031 8-8s-3.582031-8-8-8h-232c-4.417968 0-8 3.582031-8 8s3.582032 8 8 8h48v24h-40c-17.671874 0-32-14.328125-32-32s14.328126-32 32-32h260.253907c-16.339844 18.203125-16.339844 45.796875 0 64zm-252.253907-80v-336h280v336zm0 0" fill="url(#linear0)"/><g fill="url(#linear1)"><path d="m312.476562 80h-104v-16c0-4.417969-3.582031-8-8-8-4.417968 0-8 3.582031-8 8v16h-104c-4.417968 0-8 3.582031-8 8s3.582032 8 8 8h19.054688l-18.214844 36.425781h.078125c-.585937 1.101563-.902343 2.324219-.917969 3.574219v8c0 22.089844 17.90625 40 40 40 22.089844 0 40-17.910156 40-40v-8c-.023437-1.238281-.339843-2.453125-.921874-3.542969h.082031l-18.214844-36.457031h43.054687v144h-32v16h80v-16h-32v-144h43.054688l-18.253906 36.425781h.078125c-.574219 1.101563-.875 2.328125-.878907 3.574219v8c0 22.089844 17.90625 40 40 40 22.089844 0 40-17.910156 40-40v-8c-.023437-1.238281-.339843-2.453125-.921874-3.542969h.082031l-18.214844-36.457031h19.054687c4.417969 0 8-3.582031 8-8s-3.582031-8-8-8zm-187.054687 16h6.109375l16 32h-38.109375zm27.054687 48c0 13.253906-10.746093 24-24 24-13.253906 0-24-10.746094-24-24zm116.945313-48h6.109375l16 32h-38.109375zm27.054687 48c0 13.253906-10.746093 24-24 24-13.253906 0-24-10.746094-24-24zm0 0"/><path d="m104.476562 272h192v16h-192zm0 0"/><path d="m104.476562 304h192v16h-192zm0 0"/></g></svg>