<svg height="480pt" viewBox="0 0 480 480" width="480pt" xmlns="http://www.w3.org/2000/svg" xmlns:xlink="http://www.w3.org/1999/xlink"><linearGradient id="lg1"><stop offset="0" stop-color="#006df0"/><stop offset="1" stop-color="#00e7f0"/></linearGradient><linearGradient id="linear0" gradientUnits="userSpaceOnUse" x1="240" x2="240" xlink:href="#lg1" y1="478.44" y2="-31.88"/><linearGradient id="linear1" gradientUnits="userSpaceOnUse" x1="72" x2="72" xlink:href="#lg1" y1="478.44" y2="-31.88"/><linearGradient id="linear2" gradientUnits="userSpaceOnUse" x1="128" x2="128" xlink:href="#lg1" y1="478.44" y2="-31.88"/><linearGradient id="linear7" gradientUnits="userSpaceOnUse" x1="340" x2="340" xlink:href="#lg1" y1="478.44" y2="-31.88"/><linearGradient id="linear8" gradientUnits="userSpaceOnUse" x1="140" x2="140" xlink:href="#lg1" y1="478.44" y2="-31.88"/><linearGradient id="linear9" gradientUnits="userSpaceOnUse" x1="292" x2="292" xlink:href="#lg1" y1="478.44" y2="-31.88"/><linearGradient id="linear10" gradientUnits="userSpaceOnUse" x1="336" x2="336" xlink:href="#lg1" y1="478.44" y2="-31.88"/><linearGradient id="linear13" gradientUnits="userSpaceOnUse" x1="180" x2="180" xlink:href="#lg1" y1="478.44" y2="-31.88"/><path d="m448 32v-32h-416v32h-32v424h202.71875c3.242188-.152344 6.285156 1.570312 7.816406 4.433594 5.007813 11.808594 16.582032 19.488281 29.40625 19.507812 12.828125.023438 24.425782-7.613281 29.472656-19.40625 1.515626-2.914062 4.585938-4.683594 7.867188-4.535156h202.71875v-424zm-368-16h32v41.046875l-16-10.648437-16 10.648437zm-32 0h16v70.953125l32-21.351563 32 21.335938v-70.9375h104v256h16v-256h184v392h-184v-16h-16v16h-184zm416 424h-186.71875c-9.707031-.175781-18.589844 5.441406-22.59375 14.289062-2.539062 5.878907-8.34375 9.679688-14.75 9.652344-6.402344-.023437-12.179688-3.867187-14.671875-9.765625-4.023437-8.792969-12.878906-14.359375-22.546875-14.175781h-186.71875v-392h16v376h416v-376h16zm0 0" fill="url(#linear0)"/><path d="m64 264h16v16h-16zm0 0" fill="url(#linear1)"/><path d="m96 264h64v16h-64zm0 0" fill="url(#linear2)"/><path d="m64 296h16v16h-16zm0 0" fill="url(#linear1)"/><path d="m96 296h64v16h-64zm0 0" fill="url(#linear2)"/><path d="m64 328h16v16h-16zm0 0" fill="url(#linear1)"/><path d="m96 328h64v16h-64zm0 0" fill="url(#linear2)"/><path d="m416 32h-152v80h152zm-16 64h-120v-48h120zm0 0" fill="url(#linear7)"/><path d="m80 128h120v88h16v-104h-152v120h110.3125v-16h-94.3125zm0 0" fill="url(#linear8)"/><path d="m287.199219 344h9.601562c3.785157 18.644531 20.175781 32.039062 39.199219 32.039062s35.414062-13.394531 39.199219-32.039062h8.800781c8.835938 0 16-7.164062 16-16v-80c0-8.835938-7.164062-16-16-16h-16v16h16v80h-8.800781c-3.785157-18.644531-20.175781-32.039062-39.199219-32.039062s-35.414062 13.394531-39.199219 32.039062h-9.601562c-3.785157-18.644531-20.175781-32.039062-39.199219-32.039062s-35.414062 13.394531-39.199219 32.039062h-8.800781v-80h16v-16h-16c-8.835938 0-16 7.164062-16 16v80c0 8.835938 7.164062 16 16 16h8.800781c3.785157 18.644531 20.175781 32.039062 39.199219 32.039062s35.414062-13.394531 39.199219-32.039062zm48.800781-32c13.253906 0 24 10.746094 24 24s-10.746094 24-24 24-24-10.746094-24-24 10.746094-24 24-24zm-112 24c0-13.253906 10.746094-24 24-24s24 10.746094 24 24-10.746094 24-24 24-24-10.746094-24-24zm0 0" fill="url(#linear9)"/><g fill="url(#linear10)"><path d="m280 136h112v16h-112zm0 0"/><path d="m280 168h112v16h-112zm0 0"/><path d="m280 200h112v16h-112zm0 0"/></g><path d="m152 88h56v16h-56zm0 0" fill="url(#linear13)"/><path d="m152 56h56v16h-56zm0 0" fill="url(#linear13)"/></svg>