<svg height="480pt" viewBox="0 0 480 480" width="480pt" xmlns="http://www.w3.org/2000/svg" xmlns:xlink="http://www.w3.org/1999/xlink"><linearGradient id="lg1"><stop offset="0" stop-color="#006df0"/><stop offset="1" stop-color="#00e7f0"/></linearGradient><linearGradient id="linear0" gradientUnits="userSpaceOnUse" x1="240" x2="240" xlink:href="#lg1" y1="527.288" y2="-5.856"/><linearGradient id="linear1" gradientUnits="userSpaceOnUse" x1="336" x2="336" xlink:href="#lg1" y1="527.288" y2="-5.856"/><linearGradient id="linear3" gradientUnits="userSpaceOnUse" x1="96" x2="96" xlink:href="#lg1" y1="527.288" y2="-5.856"/><linearGradient id="linear4" gradientUnits="userSpaceOnUse" x1="192" x2="192" xlink:href="#lg1" y1="527.288" y2="-5.856"/><linearGradient id="linear9" gradientUnits="userSpaceOnUse" x1="288" x2="288" xlink:href="#lg1" y1="527.288" y2="-5.856"/><linearGradient id="linear10" gradientUnits="userSpaceOnUse" x1="384" x2="384" xlink:href="#lg1" y1="527.288" y2="-5.856"/><linearGradient id="linear11" gradientUnits="userSpaceOnUse" x1="332" x2="332" xlink:href="#lg1" y1="527.288" y2="-5.856"/><linearGradient id="linear12" gradientUnits="userSpaceOnUse" x1="320" x2="320" xlink:href="#lg1" y1="527.288" y2="-5.856"/><linearGradient id="linear13" gradientUnits="userSpaceOnUse" x1="304" x2="304" xlink:href="#lg1" y1="527.288" y2="-5.856"/><path d="m408 40v-16c0-13.253906-10.746094-24-24-24h-16c-13.253906 0-24 10.746094-24 24v16h-208v-16c0-13.253906-10.746094-24-24-24h-16c-13.253906 0-24 10.746094-24 24v16h-72v440h480v-440zm-48-16c0-4.417969 3.582031-8 8-8h16c4.417969 0 8 3.582031 8 8v48c0 4.417969-3.582031 8-8 8h-16c-4.417969 0-8-3.582031-8-8zm-272 0c0-4.417969 3.582031-8 8-8h16c4.417969 0 8 3.582031 8 8v48c0 4.417969-3.582031 8-8 8h-16c-4.417969 0-8-3.582031-8-8zm376 440h-448v-320h448zm-448-336v-72h56v16c0 13.253906 10.746094 24 24 24h16c13.253906 0 24-10.746094 24-24v-16h208v16c0 13.253906 10.746094 24 24 24h16c13.253906 0 24-10.746094 24-24v-16h56v72zm0 0" fill="url(#linear0)"/><path d="m288 432h128v-16c-8.835938 0-16-7.164062-16-16s7.164062-16 16-16v-160h-120c-22.082031.027344-39.972656 17.917969-40 40v136c0 17.671875 14.328125 32 32 32zm8-192h104v128h-112c-5.632812.03125-11.15625 1.570312-16 4.449219v-108.449219c0-13.253906 10.746094-24 24-24zm-8 144h100.296875c-5.730469 9.898438-5.730469 22.101562 0 32h-100.296875c-8.835938 0-16-7.164062-16-16s7.164062-16 16-16zm0 0" fill="url(#linear1)"/><path d="m384 256h-96v48h96zm-16 32h-64v-16h64zm0 0" fill="url(#linear1)"/><path d="m128 176h-64v64h64zm-16 48h-32v-32h32zm0 0" fill="url(#linear3)"/><path d="m224 176h-64v64h64zm-16 48h-32v-32h32zm0 0" fill="url(#linear4)"/><path d="m128 272h-64v64h64zm-16 48h-32v-32h32zm0 0" fill="url(#linear3)"/><path d="m224 272h-64v64h64zm-16 48h-32v-32h32zm0 0" fill="url(#linear4)"/><path d="m128 368h-64v64h64zm-16 48h-32v-32h32zm0 0" fill="url(#linear3)"/><path d="m224 368h-64v64h64zm-16 48h-32v-32h32zm0 0" fill="url(#linear4)"/><path d="m272 192h32v24h16v-40h-64v48h16zm0 0" fill="url(#linear9)"/><path d="m368 192h32v24h16v-40h-64v40h16zm0 0" fill="url(#linear10)"/><path d="m296 408h72c4.417969 0 8-3.582031 8-8s-3.582031-8-8-8h-72c-4.417969 0-8 3.582031-8 8s3.582031 8 8 8zm0 0" fill="url(#linear11)"/><path d="m288 312h64v16h-64zm0 0" fill="url(#linear12)"/><path d="m288 336h32v16h-32zm0 0" fill="url(#linear13)"/></svg>