<svg height="480pt" viewBox="0 0 480 480" width="480pt" xmlns="http://www.w3.org/2000/svg" xmlns:xlink="http://www.w3.org/1999/xlink"><linearGradient id="lg1"><stop offset="0" stop-color="#006df0"/><stop offset="1" stop-color="#00e7f0"/></linearGradient><linearGradient id="linear0" gradientUnits="userSpaceOnUse" x1="240" x2="240" xlink:href="#lg1" y1="514.984" y2="-11.512"/><linearGradient id="linear3" gradientUnits="userSpaceOnUse" x1="167.832" x2="167.832" xlink:href="#lg1" y1="514.984" y2="-11.512"/><linearGradient id="linear7" gradientUnits="userSpaceOnUse" x1="312.168" x2="312.168" xlink:href="#lg1" y1="514.984" y2="-11.512"/><linearGradient id="linear11" gradientUnits="userSpaceOnUse" x1="72" x2="72" xlink:href="#lg1" y1="514.984" y2="-11.512"/><linearGradient id="linear12" gradientUnits="userSpaceOnUse" x1="104" x2="104" xlink:href="#lg1" y1="514.984" y2="-11.512"/><linearGradient id="linear13" gradientUnits="userSpaceOnUse" x1="136" x2="136" xlink:href="#lg1" y1="514.984" y2="-11.512"/><path d="m440 0h-400c-22.082031.0273438-39.9726562 17.917969-40 40v288c.0273438 22.082031 17.917969 39.972656 40 40h120v48h-32c-22.082031.027344-39.972656 17.917969-40 40v8h-24v16h352v-16h-24v-8c-.027344-22.082031-17.917969-39.972656-40-40h-32v-48h120c22.082031-.027344 39.972656-17.917969 40-40v-288c-.027344-22.082031-17.917969-39.9726562-40-40zm-88 432c13.253906 0 24 10.746094 24 24v8h-272v-8c0-13.253906 10.746094-24 24-24zm-48-16h-128v-48h128zm160-88c0 13.253906-10.746094 24-24 24h-400c-13.253906 0-24-10.746094-24-24v-288c0-13.253906 10.746094-24 24-24h400c13.253906 0 24 10.746094 24 24zm0 0" fill="url(#linear0)"/><path d="m32 336h416v-304h-416zm400-16h-384v-224h384zm-384-272h384v32h-384zm0 0" fill="url(#linear0)"/><path d="m235.6875 303.238281 4.3125.953125 4.320312-.953125c44.585938-9.839843 90.78125-9.839843 135.367188 0l12.3125 2.714844v-192.351563l-8.847656-1.953124c-46.867188-10.34375-95.429688-10.34375-142.296875 0l-.855469.160156-.847656-.191406c-46.867188-10.34375-95.429688-10.34375-142.296875 0l-8.855469 1.984374v192.351563l12.320312-2.714844c44.585938-9.839843 90.78125-9.839843 135.367188 0zm140.3125-176.789062v159.671875c-42.265625-8.316406-85.75-8.28125-128 .101562v-159.695312c42.210938-8.808594 85.78125-8.835938 128-.078125zm-272 0c42.21875-8.757813 85.789062-8.730469 128 .078125v159.710937c-42.242188-8.46875-85.742188-8.511719-128-.117187zm0 0" fill="url(#linear0)"/><g fill="url(#linear3)"><path d="m214.230469 163.246094 2.402343-15.820313c-32.335937-4.851562-65.214843-4.832031-97.542968.054688l2.398437 15.824219c30.738281-4.648438 62-4.667969 92.742188-.058594zm0 0"/><path d="m214.230469 195.246094 2.402343-15.820313c-32.335937-4.851562-65.214843-4.832031-97.542968.054688l2.398437 15.824219c30.738281-4.648438 62-4.667969 92.742188-.058594zm0 0"/><path d="m214.230469 227.246094 2.402343-15.820313c-32.335937-4.851562-65.214843-4.832031-97.542968.054688l2.398437 15.824219c30.738281-4.648438 62-4.667969 92.742188-.058594zm0 0"/><path d="m216.609375 243.425781c-32.335937-4.851562-65.214844-4.832031-97.546875.054688l2.402344 15.824219c30.757812-4.652344 62.035156-4.671876 92.800781-.058594zm0 0"/></g><path d="m358.542969 163.304688 2.402343-15.824219c-32.332031-4.894531-65.210937-4.914063-97.546874-.054688l2.402343 15.820313c30.742188-4.609375 62.003907-4.589844 92.742188.058594zm0 0" fill="url(#linear7)"/><path d="m358.542969 195.304688 2.402343-15.824219c-32.332031-4.894531-65.210937-4.914063-97.546874-.054688l2.402343 15.820313c30.742188-4.609375 62.003907-4.589844 92.742188.058594zm0 0" fill="url(#linear7)"/><path d="m358.542969 227.304688 2.402343-15.824219c-32.332031-4.894531-65.210937-4.914063-97.546874-.054688l2.402343 15.820313c30.742188-4.609375 62.003907-4.589844 92.742188.058594zm0 0" fill="url(#linear7)"/><path d="m263.390625 243.425781 2.402344 15.820313c30.761719-4.613282 62.042969-4.59375 92.800781.058594l2.398438-15.824219c-32.347657-4.902344-65.246094-4.917969-97.601563-.054688zm0 0" fill="url(#linear7)"/><path d="m64 56h16v16h-16zm0 0" fill="url(#linear11)"/><path d="m96 56h16v16h-16zm0 0" fill="url(#linear12)"/><path d="m128 56h16v16h-16zm0 0" fill="url(#linear13)"/></svg>