<svg height="481pt" viewBox="0 0 481 481.888" width="481pt" xmlns="http://www.w3.org/2000/svg" xmlns:xlink="http://www.w3.org/1999/xlink"><linearGradient id="lg1"><stop offset="0" stop-color="#006df0"/><stop offset="1" stop-color="#00e7f0"/></linearGradient><linearGradient id="linear0" gradientUnits="userSpaceOnUse" x1="288.444" x2="288.444" xlink:href="#lg1" y1="539.464" y2="-17.736"/><linearGradient id="linear1" gradientUnits="userSpaceOnUse" x1="376.444" x2="376.444" xlink:href="#lg1" y1="539.464" y2="-17.736"/><linearGradient id="linear2" gradientUnits="userSpaceOnUse" x1="320.444" x2="320.444" xlink:href="#lg1" y1="539.464" y2="-17.736"/><linearGradient id="linear4" gradientUnits="userSpaceOnUse" x1="432.444" x2="432.444" xlink:href="#lg1" y1="539.464" y2="-17.736"/><linearGradient id="linear11" gradientUnits="userSpaceOnUse" x1="40.444" x2="40.444" xlink:href="#lg1" y1="539.464" y2="-17.736"/><linearGradient id="linear12" gradientUnits="userSpaceOnUse" x1="152.444" x2="152.444" xlink:href="#lg1" y1="539.464" y2="-17.736"/><linearGradient id="linear13" gradientUnits="userSpaceOnUse" x1="240.444" x2="240.444" xlink:href="#lg1" y1="539.464" y2="-17.736"/><linearGradient id="linear17" gradientUnits="userSpaceOnUse" x1="216.444" x2="216.444" xlink:href="#lg1" y1="539.464" y2="-17.736"/><linearGradient id="linear28" gradientUnits="userSpaceOnUse" x1="184.444" x2="184.444" xlink:href="#lg1" y1="539.464" y2="-17.736"/><linearGradient id="linear30" gradientUnits="userSpaceOnUse" x1="248.444" x2="248.444" xlink:href="#lg1" y1="539.464" y2="-17.736"/><path d="m456.445312 176h-8v-176h-320v32h-32v432h176v16h208v-280c0-13.253906-10.746093-24-24-24zm-312-160h288v160h-16v-75.3125l-68.6875-68.6875h-203.3125zm208 43.3125 36.6875 36.6875h-36.6875zm-240 388.6875v-400h224v64h64v64h-104c-13.257812 0-24 10.746094-24 24v248zm352 16h-176v-264c0-4.417969 3.582032-8 8-8h160c4.417969 0 8 3.582031 8 8zm0 0" fill="url(#linear0)"/><path d="m296.445312 264h160v-64h-160zm16-48h128v32h-128zm0 0" fill="url(#linear1)"/><path d="m328.445312 296h-16c-8.835937 0-16 7.164062-16 16v16c0 8.835938 7.164063 16 16 16h16c8.835938 0 16-7.164062 16-16v-16c0-8.835938-7.164062-16-16-16zm-16 32v-16h16v16zm0 0" fill="url(#linear2)"/><path d="m384.445312 296h-16c-8.835937 0-16 7.164062-16 16v16c0 8.835938 7.164063 16 16 16h16c8.835938 0 16-7.164062 16-16v-16c0-8.835938-7.164062-16-16-16zm-16 32v-16h16v16zm0 0" fill="url(#linear1)"/><path d="m440.445312 296h-16c-8.835937 0-16 7.164062-16 16v16c0 8.835938 7.164063 16 16 16h16c8.835938 0 16-7.164062 16-16v-16c0-8.835938-7.164062-16-16-16zm-16 32v-16h16v16zm0 0" fill="url(#linear4)"/><path d="m328.445312 352h-16c-8.835937 0-16 7.164062-16 16v16c0 8.835938 7.164063 16 16 16h16c8.835938 0 16-7.164062 16-16v-16c0-8.835938-7.164062-16-16-16zm-16 32v-16h16v16zm0 0" fill="url(#linear2)"/><path d="m384.445312 352h-16c-8.835937 0-16 7.164062-16 16v16c0 8.835938 7.164063 16 16 16h16c8.835938 0 16-7.164062 16-16v-16c0-8.835938-7.164062-16-16-16zm-16 32v-16h16v16zm0 0" fill="url(#linear1)"/><path d="m440.445312 352h-16c-8.835937 0-16 7.164062-16 16v16c0 8.835938 7.164063 16 16 16h16c8.835938 0 16-7.164062 16-16v-16c0-8.835938-7.164062-16-16-16zm-16 32v-16h16v16zm0 0" fill="url(#linear4)"/><path d="m328.445312 408h-16c-8.835937 0-16 7.164062-16 16v16c0 8.835938 7.164063 16 16 16h16c8.835938 0 16-7.164062 16-16v-16c0-8.835938-7.164062-16-16-16zm-16 32v-16h16v16zm0 0" fill="url(#linear2)"/><path d="m384.445312 408h-16c-8.835937 0-16 7.164062-16 16v16c0 8.835938 7.164063 16 16 16h16c8.835938 0 16-7.164062 16-16v-16c0-8.835938-7.164062-16-16-16zm-16 32v-16h16v16zm0 0" fill="url(#linear1)"/><path d="m440.445312 408h-16c-8.835937 0-16 7.164062-16 16v16c0 8.835938 7.164063 16 16 16h16c8.835938 0 16-7.164062 16-16v-16c0-8.835938-7.164062-16-16-16zm-16 32v-16h16v16zm0 0" fill="url(#linear4)"/><path d="m40.445312 48c-22.082031.027344-39.976562 17.917969-40 40v313.886719l40 80 40-80v-313.886719c-.027343-22.082031-17.921874-39.972656-40-40zm-8 324.6875-9.242187-9.238281-6.757813 10.152343v-213.601562h16zm-14.769531 27.886719 8-12 14.769531 14.738281 14.757813-14.761719 8 12-22.757813 45.5625zm46.769531-26.972657-6.761718-10.136718-9.238282 9.222656v-212.6875h16zm0-229.601562h-48v-16h48zm-48-32v-24c0-13.253906 10.742188-24 24-24 13.253907 0 24 10.746094 24 24v24zm0 0" fill="url(#linear11)"/><path d="m144.445312 112h16v16h-16zm0 0" fill="url(#linear12)"/><path d="m176.445312 112h128v16h-128zm0 0" fill="url(#linear13)"/><path d="m144.445312 144h16v16h-16zm0 0" fill="url(#linear12)"/><path d="m176.445312 144h128v16h-128zm0 0" fill="url(#linear13)"/><path d="m144.445312 176h16v16h-16zm0 0" fill="url(#linear12)"/><path d="m176.445312 176h80v16h-80zm0 0" fill="url(#linear17)"/><path d="m144.445312 208h16v16h-16zm0 0" fill="url(#linear12)"/><path d="m176.445312 208h80v16h-80zm0 0" fill="url(#linear17)"/><path d="m144.445312 240h16v16h-16zm0 0" fill="url(#linear12)"/><path d="m176.445312 240h80v16h-80zm0 0" fill="url(#linear17)"/><path d="m144.445312 272h16v16h-16zm0 0" fill="url(#linear12)"/><path d="m176.445312 272h80v16h-80zm0 0" fill="url(#linear17)"/><path d="m144.445312 304h16v16h-16zm0 0" fill="url(#linear12)"/><path d="m176.445312 304h80v16h-80zm0 0" fill="url(#linear17)"/><path d="m144.445312 336h16v16h-16zm0 0" fill="url(#linear12)"/><path d="m176.445312 336h80v16h-80zm0 0" fill="url(#linear17)"/><path d="m176.445312 368h16v16h-16zm0 0" fill="url(#linear28)"/><path d="m208.445312 368h16v16h-16zm0 0" fill="url(#linear17)"/><path d="m240.445312 368h16v16h-16zm0 0" fill="url(#linear30)"/></svg>