<svg height="480pt" viewBox="0 0 480 480" width="480pt" xmlns="http://www.w3.org/2000/svg" xmlns:xlink="http://www.w3.org/1999/xlink"><linearGradient id="lg1"><stop offset="0" stop-color="#006df0"/><stop offset="1" stop-color="#00e7f0"/></linearGradient><linearGradient id="linear0" gradientUnits="userSpaceOnUse" x1="248" x2="248" xlink:href="#lg1" y1="500.424" y2="-9.792"/><linearGradient id="linear1" gradientUnits="userSpaceOnUse" x1="200" x2="200" xlink:href="#lg1" y1="500.424" y2="-9.792"/><linearGradient id="linear2" gradientUnits="userSpaceOnUse" x1="232" x2="232" xlink:href="#lg1" y1="500.424" y2="-9.792"/><linearGradient id="linear3" gradientUnits="userSpaceOnUse" x1="264" x2="264" xlink:href="#lg1" y1="500.424" y2="-9.792"/><linearGradient id="linear4" gradientUnits="userSpaceOnUse" x1="240" x2="240" xlink:href="#lg1" y1="500.424" y2="-9.792"/><linearGradient id="linear5" gradientUnits="userSpaceOnUse" x1="440" x2="440" xlink:href="#lg1" y1="500.424" y2="-9.792"/><linearGradient id="linear6" gradientUnits="userSpaceOnUse" x1="32" x2="32" xlink:href="#lg1" y1="500.424" y2="-9.792"/><path d="m328 128v-80h-160v80zm-144-64h128v48h-128zm0 0" fill="url(#linear0)"/><path d="m192 400h16v16h-16zm0 0" fill="url(#linear1)"/><path d="m224 400h16v16h-16zm0 0" fill="url(#linear2)"/><path d="m256 400h16v16h-16zm0 0" fill="url(#linear3)"/><path d="m440 176h-80v-176h-216c-22.082031.0273438-39.972656 17.917969-40 40v136h-64c-22.082031.027344-39.9726562 17.917969-40 40v224c.0273438 22.082031 17.917969 39.972656 40 40h400c22.082031-.027344 39.972656-17.917969 40-40v-224c-.027344-22.082031-17.917969-39.972656-40-40zm-336 104c.027344 22.082031 17.917969 39.972656 40 40h120v38.953125l32-21.351563 32 21.335938v-38.9375h32v-96h8v208h-272v-208h8zm40-24h200v16h-200c-4.417969 0-8 3.582031-8 8s3.582031 8 8 8h120v16h-120c-13.253906 0-24-10.746094-24-24s10.746094-24 24-24zm136 32h32v41.046875l-16-10.648437-16 10.664062zm48 0h16v16h-16zm16-48h-192v-224h192zm-208-222.527344v223.328125c-5.816406 1.238281-11.28125 3.761719-16 7.382813v-208.183594c.042969-10.132812 6.445312-19.148438 16-22.527344zm-32 190.527344h-24v240h304v-240h-24v-16h40v272h-336v-272h40zm-88 232v-224c0-13.253906 10.746094-24 24-24h8v272h-8c-13.253906 0-24-10.746094-24-24zm448-112v112c0 13.253906-10.746094 24-24 24h-24v-272h24c13.253906 0 24 10.746094 24 24zm0 0" fill="url(#linear4)"/><path d="m440 304c-13.253906 0-24 10.746094-24 24s10.746094 24 24 24 24-10.746094 24-24-10.746094-24-24-24zm0 32c-4.417969 0-8-3.582031-8-8s3.582031-8 8-8 8 3.582031 8 8-3.582031 8-8 8zm0 0" fill="url(#linear5)"/><path d="m24 328h16v16h-16zm0 0" fill="url(#linear6)"/><path d="m24 280h16v32h-16zm0 0" fill="url(#linear6)"/><g fill="url(#linear0)"><path d="m200 136h96v16h-96zm0 0"/><path d="m200 160h96v16h-96zm0 0"/></g></svg>