<svg height="480pt" viewBox="0 0 480 480" width="480pt" xmlns="http://www.w3.org/2000/svg" xmlns:xlink="http://www.w3.org/1999/xlink"><linearGradient id="lg1"><stop offset="0" stop-color="#006df0"/><stop offset="1" stop-color="#00e7f0"/></linearGradient><linearGradient id="linear0" gradientUnits="userSpaceOnUse" x1="240" x2="240" xlink:href="#lg1" y1="533.376" y2=".648"/><linearGradient id="linear1" gradientUnits="userSpaceOnUse" x1="344" x2="344" xlink:href="#lg1" y1="533.376" y2=".648"/><linearGradient id="linear2" gradientUnits="userSpaceOnUse" x1="376" x2="376" xlink:href="#lg1" y1="533.376" y2=".648"/><linearGradient id="linear3" gradientUnits="userSpaceOnUse" x1="360" x2="360" xlink:href="#lg1" y1="533.376" y2=".648"/><linearGradient id="linear5" gradientUnits="userSpaceOnUse" x1="367.776" x2="367.776" xlink:href="#lg1" y1="533.376" y2=".648"/><linearGradient id="linear7" gradientUnits="userSpaceOnUse" x1="216" x2="216" xlink:href="#lg1" y1="533.376" y2=".648"/><linearGradient id="linear8" gradientUnits="userSpaceOnUse" x1="136" x2="136" xlink:href="#lg1" y1="533.376" y2=".648"/><linearGradient id="linear9" gradientUnits="userSpaceOnUse" x1="120" x2="120" xlink:href="#lg1" y1="533.376" y2=".648"/><linearGradient id="linear10" gradientUnits="userSpaceOnUse" x1="72" x2="72" xlink:href="#lg1" y1="533.376" y2=".648"/><linearGradient id="linear12" gradientUnits="userSpaceOnUse" x1="152" x2="152" xlink:href="#lg1" y1="533.376" y2=".648"/><linearGradient id="linear13" gradientUnits="userSpaceOnUse" x1="184" x2="184" xlink:href="#lg1" y1="533.376" y2=".648"/><path d="m440 0h-160c-22.082031.0273438-39.972656 17.917969-40 40v56h-200c-22.082031.027344-39.9726562 17.917969-40 40v224c.0273438 22.082031 17.917969 39.972656 40 40h112v32h-24c-13.253906 0-24 10.746094-24 24v8h-16v16h256v-16h-16v-8c0-13.253906-10.746094-24-24-24h-24v-32h112c22.082031-.027344 39.972656-17.917969 40-40v-56h8c22.082031-.027344 39.972656-17.917969 40-40v-224c-.027344-22.082031-17.917969-39.9726562-40-40zm-160 16h160c13.253906 0 24 10.746094 24 24v8h-208v-8c0-13.253906 10.746094-24 24-24zm184 48v176h-208v-176zm-160 384c4.417969 0 8 3.582031 8 8v8h-192v-8c0-4.417969 3.582031-8 8-8zm-40-16h-96v-32h96zm128-48h-352c-13.253906 0-24-10.746094-24-24v-24.160156h400v24.160156c0 13.253906-10.746094 24-24 24zm24-64.160156h-400v-183.839844c0-13.253906 10.746094-24 24-24h200v152c.027344 22.082031 17.917969 39.972656 40 40h136zm24-31.839844h-160c-13.253906 0-24-10.746094-24-24v-8h208v8c0 13.253906-10.746094 24-24 24zm0 0" fill="url(#linear0)"/><path d="m336 24h16v16h-16zm0 0" fill="url(#linear1)"/><path d="m368 24h16v16h-16zm0 0" fill="url(#linear2)"/><path d="m336 264h48v16h-48zm0 0" fill="url(#linear3)"/><path d="m448 80h-176v112h176zm-16 96h-144v-80h144zm0 0" fill="url(#linear3)"/><path d="m336 97.863281v76.273438l63.550781-38.136719zm16 28.273438 16.449219 9.863281-16.449219 9.863281zm0 0" fill="url(#linear5)"/><path d="m296 224v8h16v-8h136v-16h-136v-8h-16v8h-24v16zm0 0" fill="url(#linear3)"/><path d="m240 360c0-13.253906-10.746094-24-24-24s-24 10.746094-24 24 10.746094 24 24 24 24-10.746094 24-24zm-24 8c-4.417969 0-8-3.582031-8-8s3.582031-8 8-8 8 3.582031 8 8-3.582031 8-8 8zm0 0" fill="url(#linear7)"/><path d="m48 232h176v-16h-160v-56h160v-16h-176zm0 0" fill="url(#linear8)"/><path d="m48 248h144v16h-144zm0 0" fill="url(#linear9)"/><path d="m48 280h48v16h-48zm0 0" fill="url(#linear10)"/><path d="m112 280h16v16h-16zm0 0" fill="url(#linear9)"/><path d="m144 280h16v16h-16zm0 0" fill="url(#linear12)"/><path d="m176 280h16v16h-16zm0 0" fill="url(#linear13)"/></svg>