<svg height="480pt" viewBox="0 0 480 480.00051" width="480pt" xmlns="http://www.w3.org/2000/svg" xmlns:xlink="http://www.w3.org/1999/xlink"><linearGradient id="lg1"><stop offset="0" stop-color="#006df0"/><stop offset="1" stop-color="#00e7f0"/></linearGradient><linearGradient id="linear0" gradientUnits="userSpaceOnUse" x1="240.000255" x2="240.000255" xlink:href="#lg1" y1="482.712" y2="-10.984"/><linearGradient id="linear3" gradientUnits="userSpaceOnUse" x1="228.000255" x2="228.000255" xlink:href="#lg1" y1="482.712" y2="-10.984"/><linearGradient id="linear4" gradientUnits="userSpaceOnUse" x1="288.000255" x2="288.000255" xlink:href="#lg1" y1="482.712" y2="-10.984"/><linearGradient id="linear5" gradientUnits="userSpaceOnUse" x1="200.000255" x2="200.000255" xlink:href="#lg1" y1="482.712" y2="-10.984"/><linearGradient id="linear6" gradientUnits="userSpaceOnUse" x1="296.000255" x2="296.000255" xlink:href="#lg1" y1="482.712" y2="-10.984"/><linearGradient id="linear7" gradientUnits="userSpaceOnUse" x1="384.000255" x2="384.000255" xlink:href="#lg1" y1="482.712" y2="-10.984"/><linearGradient id="linear8" gradientUnits="userSpaceOnUse" x1="456.000255" x2="456.000255" xlink:href="#lg1" y1="482.712" y2="-10.984"/><linearGradient id="linear9" gradientUnits="userSpaceOnUse" x1="184.000255" x2="184.000255" xlink:href="#lg1" y1="482.712" y2="-10.984"/><linearGradient id="linear10" gradientUnits="userSpaceOnUse" x1="96.000255" x2="96.000255" xlink:href="#lg1" y1="482.712" y2="-10.984"/><linearGradient id="linear11" gradientUnits="userSpaceOnUse" x1="56.000255" x2="56.000255" xlink:href="#lg1" y1="482.712" y2="-10.984"/><g fill="url(#linear0)"><path d="m240 296c-30.925781 0-56-25.070312-56-56s25.074219-56 56-56c30.929688 0 56 25.070312 56 56-.035156 30.914062-25.085938 55.964844-56 56zm0-96c-22.089844 0-40 17.910156-40 40s17.910156 40 40 40 40-17.910156 40-40c-.027344-22.082031-17.917969-39.972656-40-40zm0 0"/><path d="m480 240c0-132.546875-107.453125-240-240-240s-240 107.453125-240 240 107.453125 240 240 240c47.996094.097656 94.890625-14.347656 134.511719-41.433594 7.117187 6.054688 16.144531 9.394532 25.488281 9.433594 22.082031-.027344 39.972656-17.917969 40-40-.03125-8.703125-2.929688-17.15625-8.246094-24.046875 31.242188-41.496094 48.171875-92.011719 48.246094-143.953125zm-464 0c0-123.710938 100.289062-224 224-224s224 100.289062 224 224c.164062 48.105469-15.398438 94.949219-44.320312 133.390625-5.972657-3.488281-12.761719-5.351563-19.679688-5.390625-22.082031.027344-39.972656 17.917969-40 40 .039062 6.28125 1.578125 12.457031 4.488281 18.023438-36.757812 24.835937-80.125 38.0625-124.488281 37.976562-123.652344-.140625-223.859375-100.347656-224-224zm384 192c-13.253906 0-24-10.746094-24-24s10.746094-24 24-24 24 10.746094 24 24-10.746094 24-24 24zm0 0"/><path d="m424 240c-.269531-89.347656-64.523438-165.65625-152.519531-181.136719-2.472657-15.464843-15.816407-26.84375-31.480469-26.84375s-29.007812 11.378907-31.480469 26.84375c-96.039062 16.722657-162.351562 105.476563-151.160156 202.316407 11.191406 96.839843 95.996094 168.128906 193.320313 162.507812 97.324218-5.621094 173.355468-86.203125 173.320312-183.6875zm-184-192c8.835938 0 16 7.164062 16 16s-7.164062 16-16 16-16-7.164062-16-16 7.164062-16 16-16zm0 360c-86.945312.054688-159.554688-66.273438-167.347656-152.867188-7.792969-86.597656 51.804687-164.820312 137.363281-180.292968 4.5 12.710937 16.519531 21.203125 30 21.203125 13.484375 0 25.5-8.492188 30-21.203125 85.566406 15.472656 145.164063 93.707031 137.363281 180.308594-7.804687 86.601562-80.425781 152.921874-167.378906 152.851562zm0 0"/></g><path d="m240 120c-53.976562.273438-101.203125 36.359375-115.648438 88.367188-16.125 1.78125-28.332031 15.40625-28.332031 31.632812s12.207031 29.851562 28.332031 31.632812c16.40625 59.910157 75.835938 97.386719 136.96875 86.371094 61.132813-11.019531 103.742188-66.882812 98.199219-128.753906s-57.402343-109.273438-119.519531-109.25zm-128 120c0-8.835938 7.164062-16 16-16s16 7.164062 16 16-7.164062 16-16 16-16-7.164062-16-16zm128 104c-45.984375-.222656-86.429688-30.445312-99.671875-74.480469 11.902344-4.980469 19.648437-16.617187 19.648437-29.519531s-7.746093-24.539062-19.648437-29.519531c15.210937-51.382813 66.972656-82.796875 119.570313-72.570313 52.601562 10.226563 88.820312 58.746094 83.671874 112.085938-5.152343 53.335937-49.984374 94.03125-103.570312 94.003906zm0 0" fill="url(#linear3)"/><path d="m296 40c0 4.417969-3.582031 8-8 8s-8-3.582031-8-8 3.582031-8 8-8 8 3.582031 8 8zm0 0" fill="url(#linear4)"/><path d="m208 96c0 4.417969-3.582031 8-8 8s-8-3.582031-8-8 3.582031-8 8-8 8 3.582031 8 8zm0 0" fill="url(#linear5)"/><path d="m304 184c0 4.417969-3.582031 8-8 8s-8-3.582031-8-8 3.582031-8 8-8 8 3.582031 8 8zm0 0" fill="url(#linear6)"/><path d="m392 240c0 4.417969-3.582031 8-8 8s-8-3.582031-8-8 3.582031-8 8-8 8 3.582031 8 8zm0 0" fill="url(#linear7)"/><path d="m464 416c0 4.417969-3.582031 8-8 8s-8-3.582031-8-8 3.582031-8 8-8 8 3.582031 8 8zm0 0" fill="url(#linear8)"/><path d="m192 296c0 4.417969-3.582031 8-8 8s-8-3.582031-8-8 3.582031-8 8-8 8 3.582031 8 8zm0 0" fill="url(#linear9)"/><path d="m104 208c0 4.417969-3.582031 8-8 8s-8-3.582031-8-8 3.582031-8 8-8 8 3.582031 8 8zm0 0" fill="url(#linear10)"/><path d="m64 424c0 4.417969-3.582031 8-8 8s-8-3.582031-8-8 3.582031-8 8-8 8 3.582031 8 8zm0 0" fill="url(#linear11)"/></svg>