<svg height="480pt" viewBox="0 0 480 480" width="480pt" xmlns="http://www.w3.org/2000/svg" xmlns:xlink="http://www.w3.org/1999/xlink"><linearGradient id="lg1"><stop offset="0" stop-color="#006df0"/><stop offset="1" stop-color="#00e7f0"/></linearGradient><linearGradient id="linear0" gradientUnits="userSpaceOnUse" x1="240" x2="240" xlink:href="#lg1" y1="539.504" y2="-23.984"/><linearGradient id="linear1" gradientUnits="userSpaceOnUse" x1="40" x2="40" xlink:href="#lg1" y1="539.504" y2="-23.984"/><linearGradient id="linear2" gradientUnits="userSpaceOnUse" x1="440" x2="440" xlink:href="#lg1" y1="539.504" y2="-23.984"/><path d="m472 0h-464c-4.417969 0-8 3.582031-8 8v464c0 4.417969 3.582031 8 8 8h464c4.417969 0 8-3.582031 8-8v-464c0-4.417969-3.582031-8-8-8zm-8 232h-53.425781c11.1875-23.53125 4.667969-51.671875-15.730469-67.882812-20.402344-16.214844-49.285156-16.214844-69.6875 0-20.398438 16.210937-26.917969 44.351562-15.730469 67.882812h-61.425781v-76.320312c0-3.164063-1.863281-6.035157-4.757812-7.316407-2.894532-1.285156-6.273438-.738281-8.617188 1.390625-7.292969 6.605469-16.785156 10.257813-26.625 10.246094-22.089844 0-40-17.910156-40-40s17.910156-40 40-40c9.839844-.011719 19.332031 3.640625 26.625 10.246094 2.34375 2.128906 5.722656 2.675781 8.617188 1.390625 2.894531-1.28125 4.757812-4.152344 4.757812-7.316407v-68.320312h216zm-448-216h216v53.425781c-23.53125-11.1875-51.671875-4.667969-67.882812 15.730469-16.214844 20.402344-16.214844 49.285156 0 69.6875 16.210937 20.398438 44.351562 26.917969 67.882812 15.730469v61.425781h-76.320312c-3.164063 0-6.027344 1.867188-7.308594 4.757812-1.28125 2.890626-.742188 6.265626 1.382812 8.609376 6.605469 7.296874 10.257813 16.789062 10.246094 26.632812 0 22.089844-17.910156 40-40 40s-40-17.910156-40-40c-.011719-9.84375 3.640625-19.335938 10.246094-26.632812 2.125-2.34375 2.664062-5.71875 1.382812-8.609376-1.28125-2.890624-4.144531-4.757812-7.308594-4.757812h-68.320312zm0 232h53.425781c-11.1875 23.53125-4.667969 51.671875 15.730469 67.882812 20.402344 16.214844 49.285156 16.214844 69.6875 0 20.398438-16.210937 26.917969-44.351562 15.730469-67.882812h61.425781v76.320312c0 3.164063 1.863281 6.035157 4.757812 7.316407 2.894532 1.285156 6.273438.738281 8.617188-1.390625 7.292969-6.605469 16.785156-10.257813 26.625-10.246094 22.089844 0 40 17.910156 40 40s-17.910156 40-40 40c-9.839844.011719-19.332031-3.640625-26.625-10.246094-2.34375-2.128906-5.722656-2.675781-8.617188-1.390625-2.894531 1.28125-4.757812 4.152344-4.757812 7.316407v68.320312h-216zm448 216h-216v-53.425781c23.53125 11.1875 51.671875 4.667969 67.882812-15.730469 16.214844-20.402344 16.214844-49.285156 0-69.6875-16.210937-20.398438-44.351562-26.917969-67.882812-15.730469v-61.425781h76.320312c3.164063 0 6.027344-1.867188 7.308594-4.757812 1.28125-2.890626.742188-6.265626-1.382812-8.609376-6.605469-7.296874-10.257813-16.789062-10.246094-26.632812 0-22.089844 17.910156-40 40-40s40 17.910156 40 40c.011719 9.84375-3.640625 19.335938-10.246094 26.632812-2.125 2.34375-2.664062 5.71875-1.382812 8.609376 1.28125 2.890624 4.144531 4.757812 7.308594 4.757812h68.320312zm0 0" fill="url(#linear0)"/><path d="m32 32h16v16h-16zm0 0" fill="url(#linear1)"/><path d="m432 32h16v16h-16zm0 0" fill="url(#linear2)"/><path d="m432 432h16v16h-16zm0 0" fill="url(#linear2)"/><path d="m32 432h16v16h-16zm0 0" fill="url(#linear1)"/></svg>