<svg height="480pt" viewBox="0 0 480 480" width="480pt" xmlns="http://www.w3.org/2000/svg" xmlns:xlink="http://www.w3.org/1999/xlink"><linearGradient id="lg1"><stop offset="0" stop-color="#006df0"/><stop offset="1" stop-color="#00e7f0"/></linearGradient><linearGradient id="linear0" gradientUnits="userSpaceOnUse" x1="240" x2="240" xlink:href="#lg1" y1="514.88" y2="-16.176"/><linearGradient id="linear1" gradientUnits="userSpaceOnUse" x1="40" x2="40" xlink:href="#lg1" y1="514.88" y2="-16.176"/><linearGradient id="linear2" gradientUnits="userSpaceOnUse" x1="72" x2="72" xlink:href="#lg1" y1="514.88" y2="-16.176"/><linearGradient id="linear3" gradientUnits="userSpaceOnUse" x1="104" x2="104" xlink:href="#lg1" y1="514.88" y2="-16.176"/><linearGradient id="linear4" gradientUnits="userSpaceOnUse" x1="192" x2="192" xlink:href="#lg1" y1="514.88" y2="-16.176"/><linearGradient id="linear6" gradientUnits="userSpaceOnUse" x1="160" x2="160" xlink:href="#lg1" y1="514.88" y2="-16.176"/><linearGradient id="linear7" gradientUnits="userSpaceOnUse" x1="320" x2="320" xlink:href="#lg1" y1="514.88" y2="-16.176"/><path d="m80 0v128h-80v296c.0351562 30.914062 25.085938 55.964844 56 56h368c30.914062-.035156 55.964844-25.085938 56-56v-424zm37.335938 144 64 48h186.664062v16h-352v-64zm-61.335938 320c-22.082031-.027344-39.972656-17.917969-40-40v-200h352v200c-.003906 15.066406 6.085938 29.492188 16.878906 40zm408-40c0 22.089844-17.910156 40-40 40s-40-17.910156-40-40v-8h48v-16h-48v-16h48v-16h-48v-16h48v-16h-48v-16h48v-16h-48v-16h48v-16h-48v-16h48v-16h-48v-64h-197.335938l-64-48h-26.664062v-112h368zm0 0" fill="url(#linear0)"/><path d="m32 168h16v16h-16zm0 0" fill="url(#linear1)"/><path d="m64 168h16v16h-16zm0 0" fill="url(#linear2)"/><path d="m96 168h16v16h-16zm0 0" fill="url(#linear3)"/><path d="m64 448h256v-208h-256zm64-16v-16c.027344-26.5 21.5-47.972656 48-48h32c26.5.027344 47.972656 21.5 48 48v16zm-48-176h224v176h-32v-16c-.039062-35.328125-28.671875-63.960938-64-64h-32c-35.328125.039062-63.960938 28.671875-64 64v16h-32zm0 0" fill="url(#linear4)"/><path d="m232 312c0-22.089844-17.910156-40-40-40s-40 17.910156-40 40 17.910156 40 40 40c22.082031-.027344 39.972656-17.917969 40-40zm-40 24c-13.253906 0-24-10.746094-24-24s10.746094-24 24-24 24 10.746094 24 24-10.746094 24-24 24zm0 0" fill="url(#linear4)"/><path d="m144 48h32v16h-32zm0 0" fill="url(#linear6)"/><path d="m208 48h224v16h-224zm0 0" fill="url(#linear7)"/><path d="m144 80h32v16h-32zm0 0" fill="url(#linear6)"/><path d="m208 80h224v16h-224zm0 0" fill="url(#linear7)"/><path d="m144 112h32v16h-32zm0 0" fill="url(#linear6)"/><g fill="url(#linear7)"><path d="m208 112h224v16h-224zm0 0"/><path d="m208 144h224v16h-224zm0 0"/></g></svg>