<svg height="477pt" viewBox="0 0 477.80752 477" width="477pt" xmlns="http://www.w3.org/2000/svg" xmlns:xlink="http://www.w3.org/1999/xlink"><linearGradient id="lg1"><stop offset="0" stop-color="#006df0"/><stop offset="1" stop-color="#00e7f0"/></linearGradient><linearGradient id="linear0" gradientUnits="userSpaceOnUse" x1="176.495925" x2="176.495925" xlink:href="#lg1" y1="534.267685" y2="-10.596315"/><linearGradient id="linear1" gradientUnits="userSpaceOnUse" x1="239.279925" x2="239.279925" xlink:href="#lg1" y1="534.267685" y2="-10.596315"/><linearGradient id="linear3" gradientUnits="userSpaceOnUse" x1="360.496436" x2="360.496436" xlink:href="#lg1" y1="534.267897" y2="-10.596103"/><linearGradient id="linear4" gradientUnits="userSpaceOnUse" x1="392.494446" x2="392.494446" xlink:href="#lg1" y1="534.267072" y2="-10.596928"/><linearGradient id="linear5" gradientUnits="userSpaceOnUse" x1="424.492455" x2="424.492455" xlink:href="#lg1" y1="534.266248" y2="-10.597752"/><path d="m176.496094 32.867188c-79.527344 0-144 64.472656-144 144 0 79.53125 64.472656 144 144 144s144-64.46875 144-144c-.09375-79.488282-64.507813-143.90625-144-144zm0 272c-70.691406 0-128-57.308594-128-128 0-70.691407 57.308594-128 128-128s128 57.308593 128 128c-.082032 70.660156-57.34375 127.917968-128 128zm0 0" fill="url(#linear0)"/><path d="m464.023438 396.515625-106.511719-106.511719-11.3125 11.3125-24.800781-24.761718c51.65625-75.046876 37.597656-177.09375-32.429688-235.375s-172.929688-53.582032-237.351562 10.839843c-64.421876 64.421875-69.121094 167.328125-10.839844 237.351563 58.28125 70.027344 160.328125 84.085937 235.375 32.433594l24.757812 24.800781-11.308594 11.308593 106.542969 106.480469c18.789063 18.484375 48.96875 18.363281 67.605469-.273437 18.636719-18.636719 18.757812-48.816406.273438-67.605469zm-447.527344-219.648437c0-88.363282 71.632812-160 160-160 88.367187 0 160 71.636718 160 160 0 88.367187-71.632813 160-160 160-88.324219-.101563-159.898438-71.675782-160-160zm272.550781 135.199218c8.214844-6.851562 15.796875-14.433594 22.648437-22.648437l23.199219 23.203125-22.636719 22.648437zm163.664063 141.015625c-12.496094 12.5-32.757813 12.5-45.253907 0l-95.199219-95.199219 45.246094-45.246093 95.199219 95.199219c12.46875 12.503906 12.472656 32.738281.007813 45.246093zm0 0" fill="url(#linear1)"/><path d="m268.601562 253.667969c37.199219-44.441407 37.199219-109.15625 0-153.601563l-.289062-.300781c-22.75-27.1875-56.375-42.898437-91.824219-42.898437s-69.074219 15.710937-91.824219 42.898437l-.289062.300781c-37.203125 44.445313-37.203125 109.160156 0 153.601563l.289062.304687c22.75 27.1875 56.375 42.894532 91.824219 42.894532s69.074219-15.707032 91.824219-42.894532zm-195.699218-68.800781h31.824218c.496094 14.703124 2.707032 29.296874 6.585938 43.488281-6.621094 2.515625-13.023438 5.578125-19.136719 9.152343-11.15625-15.433593-17.824219-33.652343-19.273437-52.640624zm19.28125-68.648438c6.113281 3.578125 12.507812 6.636719 19.128906 9.152344-3.878906 14.195312-6.089844 28.792968-6.585938 43.496094h-31.824218c1.445312-18.992188 8.121094-37.214844 19.28125-52.648438zm187.90625 52.648438h-31.824219c-.496094-14.703126-2.707031-29.296876-6.585937-43.488282 6.621093-2.515625 13.023437-5.574218 19.136718-9.152344 11.15625 15.433594 17.824219 33.652344 19.273438 52.640626zm-47.816406 0h-47.777344v-32.253907c14.132812-.488281 28.164062-2.550781 41.839844-6.144531 3.417968 12.535156 5.410156 25.417969 5.9375 38.398438zm-47.777344-48.246094v-46.511719c14.824218 4.148437 27.945312 19.511719 36.703125 41.183594-12.007813 3.074219-24.3125 4.863281-36.703125 5.328125zm-16-46.511719v46.511719c-12.390625-.464844-24.695313-2.253906-36.703125-5.328125 8.757812-21.671875 21.878906-37.035157 36.703125-41.183594zm0 62.503906v32.253907h-47.777344c.527344-12.980469 2.519531-25.863282 5.9375-38.398438 13.671875 3.601562 27.707031 5.664062 41.839844 6.144531zm-47.777344 48.253907h47.777344v32.257812c-14.132813.488281-28.164063 2.546875-41.839844 6.144531-3.421875-12.539062-5.410156-25.417969-5.9375-38.402343zm47.777344 48.25v46.511718c-14.824219-4.152344-27.9375-19.511718-36.703125-41.183594 12.007812-3.078124 24.3125-4.863281 36.703125-5.328124zm16 46.511718v-46.511718c12.390625.464843 24.695312 2.25 36.703125 5.328124-8.765625 21.671876-21.878907 37.03125-36.703125 41.183594zm0-62.503906v-32.257812h47.777344c-.527344 12.984374-2.519532 25.863281-5.9375 38.402343-13.671876-3.605469-27.707032-5.664062-41.839844-6.144531zm63.769531-32.257812h31.824219c-1.445313 18.992187-8.121094 37.214843-19.28125 52.648437-6.113282-3.574219-12.511719-6.636719-19.128906-9.152344 3.878906-14.191406 6.089843-28.789062 6.585937-43.496093zm2.175781-81.015626c-4.445312 2.414063-9.046875 4.53125-13.769531 6.335938-3.636719-9.429688-8.476563-18.351562-14.398437-26.542969 10.449218 5.117188 19.96875 11.949219 28.167968 20.207031zm-119.753906-20.207031c-5.921875 8.191407-10.761719 17.113281-14.398438 26.542969-4.726562-1.804688-9.324218-3.921875-13.769531-6.335938 8.195313-8.257812 17.71875-15.089843 28.167969-20.207031zm-28.136719 166.238281c4.445313-2.414062 9.046875-4.53125 13.769531-6.335937 3.636719 9.433594 8.476563 18.355469 14.398438 26.542969-10.449219-5.117188-19.96875-11.945313-28.167969-20.207032zm119.753907 20.207032c5.921874-8.1875 10.761718-17.109375 14.398437-26.542969 4.726563 1.804687 9.324219 3.921875 13.769531 6.335937-8.199218 8.261719-17.71875 15.089844-28.167968 20.207032zm0 0" fill="url(#linear0)"/><path d="m346.839844 358.527344 11.3125-11.316406 16 16-11.3125 11.3125zm0 0" fill="url(#linear3)"/><path d="m378.839844 390.527344 11.3125-11.316406 16 16-11.316406 11.3125zm0 0" fill="url(#linear4)"/><path d="m410.839844 422.527344 11.3125-11.316406 15.996094 16-11.3125 11.3125zm0 0" fill="url(#linear5)"/></svg>