<svg height="480pt" viewBox="0 0 480 480" width="480pt" xmlns="http://www.w3.org/2000/svg" xmlns:xlink="http://www.w3.org/1999/xlink"><linearGradient id="lg1"><stop offset="0" stop-color="#006df0"/><stop offset="1" stop-color="#00e7f0"/></linearGradient><linearGradient id="linear0" gradientUnits="userSpaceOnUse" x1="240" x2="240" xlink:href="#lg1" y1="527.264" y2="-17.592"/><linearGradient id="linear1" gradientUnits="userSpaceOnUse" x1="184" x2="184" xlink:href="#lg1" y1="527.264" y2="-17.592"/><linearGradient id="linear3" gradientUnits="userSpaceOnUse" x1="296" x2="296" xlink:href="#lg1" y1="527.264" y2="-17.592"/><linearGradient id="linear4" gradientUnits="userSpaceOnUse" x1="352" x2="352" xlink:href="#lg1" y1="527.264" y2="-17.592"/><linearGradient id="linear5" gradientUnits="userSpaceOnUse" x1="408" x2="408" xlink:href="#lg1" y1="527.264" y2="-17.592"/><linearGradient id="linear6" gradientUnits="userSpaceOnUse" x1="72" x2="72" xlink:href="#lg1" y1="527.264" y2="-17.592"/><linearGradient id="linear7" gradientUnits="userSpaceOnUse" x1="128" x2="128" xlink:href="#lg1" y1="527.264" y2="-17.592"/><path d="m432 40v-16c0-13.253906-10.746094-24-24-24h-16c-13.253906 0-24 10.746094-24 24v16h-40v-16c0-13.253906-10.746094-24-24-24h-16c-13.253906 0-24 10.746094-24 24v16h-48v-16c0-13.253906-10.746094-24-24-24h-16c-13.253906 0-24 10.746094-24 24v16h-40v-16c0-13.253906-10.746094-24-24-24h-16c-13.253906 0-24 10.746094-24 24v16h-48v440h480v-440zm-48-16c0-4.417969 3.582031-8 8-8h16c4.417969 0 8 3.582031 8 8v48c0 4.417969-3.582031 8-8 8h-16c-4.417969 0-8-3.582031-8-8zm-104 0c0-4.417969 3.582031-8 8-8h16c4.417969 0 8 3.582031 8 8v48c0 4.417969-3.582031 8-8 8h-16c-4.417969 0-8-3.582031-8-8zm-112 0c0-4.417969 3.582031-8 8-8h16c4.417969 0 8 3.582031 8 8v48c0 4.417969-3.582031 8-8 8h-16c-4.417969 0-8-3.582031-8-8zm-104 0c0-4.417969 3.582031-8 8-8h16c4.417969 0 8 3.582031 8 8v48c0 4.417969-3.582031 8-8 8h-16c-4.417969 0-8-3.582031-8-8zm400 440h-448v-320h448zm-448-336v-72h32v16c0 13.253906 10.746094 24 24 24h16c13.253906 0 24-10.746094 24-24v-16h40v16c0 13.253906 10.746094 24 24 24h16c13.253906 0 24-10.746094 24-24v-16h48v16c0 13.253906 10.746094 24 24 24h16c13.253906 0 24-10.746094 24-24v-16h40v16c0 13.253906 10.746094 24 24 24h16c13.253906 0 24-10.746094 24-24v-16h32v72zm0 0" fill="url(#linear0)"/><path d="m208 232h-48v-48h48zm-32-16h16v-16h-16zm0 0" fill="url(#linear1)"/><path d="m264 232h-48v-48h48zm-32-16h16v-16h-16zm0 0" fill="url(#linear0)"/><path d="m320 232h-48v-48h48zm-32-16h16v-16h-16zm0 0" fill="url(#linear3)"/><path d="m376 232h-48v-48h48zm-32-16h16v-16h-16zm0 0" fill="url(#linear4)"/><path d="m432 232h-48v-48h48zm-32-16h16v-16h-16zm0 0" fill="url(#linear5)"/><path d="m96 296h-48v-48h48zm-32-16h16v-16h-16zm0 0" fill="url(#linear6)"/><path d="m152 296h-48v-48h48zm-32-16h16v-16h-16zm0 0" fill="url(#linear7)"/><path d="m208 296h-48v-48h48zm-32-16h16v-16h-16zm0 0" fill="url(#linear1)"/><path d="m264 296h-48v-48h48zm-32-16h16v-16h-16zm0 0" fill="url(#linear0)"/><path d="m320 296h-48v-48h48zm-32-16h16v-16h-16zm0 0" fill="url(#linear3)"/><path d="m376 296h-48v-48h48zm-32-16h16v-16h-16zm0 0" fill="url(#linear4)"/><path d="m432 296h-48v-48h48zm-32-16h16v-16h-16zm0 0" fill="url(#linear5)"/><path d="m96 360h-48v-48h48zm-32-16h16v-16h-16zm0 0" fill="url(#linear6)"/><path d="m152 360h-48v-48h48zm-32-16h16v-16h-16zm0 0" fill="url(#linear7)"/><path d="m208 360h-48v-48h48zm-32-16h16v-16h-16zm0 0" fill="url(#linear1)"/><path d="m264 360h-48v-48h48zm-32-16h16v-16h-16zm0 0" fill="url(#linear0)"/><path d="m320 360h-48v-48h48zm-32-16h16v-16h-16zm0 0" fill="url(#linear3)"/><path d="m376 360h-48v-48h48zm-32-16h16v-16h-16zm0 0" fill="url(#linear4)"/><path d="m432 360h-48v-48h48zm-32-16h16v-16h-16zm0 0" fill="url(#linear5)"/><path d="m96 424h-48v-48h48zm-32-16h16v-16h-16zm0 0" fill="url(#linear6)"/><path d="m152 424h-48v-48h48zm-32-16h16v-16h-16zm0 0" fill="url(#linear7)"/><path d="m208 424h-48v-48h48zm-32-16h16v-16h-16zm0 0" fill="url(#linear1)"/><path d="m264 424h-48v-48h48zm-32-16h16v-16h-16zm0 0" fill="url(#linear0)"/></svg>