<svg height="480pt" viewBox="0 0 480 480" width="480pt" xmlns="http://www.w3.org/2000/svg" xmlns:xlink="http://www.w3.org/1999/xlink"><linearGradient id="lg1"><stop offset="0" stop-color="#006df0"/><stop offset="1" stop-color="#00e7f0"/></linearGradient><linearGradient id="linear0" gradientUnits="userSpaceOnUse" x1="240" x2="240" xlink:href="#lg1" y1="533.36" y2=".744"/><linearGradient id="linear3" gradientUnits="userSpaceOnUse" x1="200" x2="200" xlink:href="#lg1" y1="533.36" y2=".744"/><linearGradient id="linear4" gradientUnits="userSpaceOnUse" x1="280" x2="280" xlink:href="#lg1" y1="533.36" y2=".744"/><linearGradient id="linear7" gradientUnits="userSpaceOnUse" x1="408" x2="408" xlink:href="#lg1" y1="533.36" y2=".744"/><linearGradient id="linear9" gradientUnits="userSpaceOnUse" x1="72" x2="72" xlink:href="#lg1" y1="533.36" y2=".744"/><g fill="url(#linear0)"><path d="m352 176v-19.9375l-104-80v-12.0625h80v-64h-96v76.0625l-104 80v19.9375h-128v304h480v-304zm-104-160h64v32h-64zm-176 392c-8.835938 0-16-7.164062-16-16 0-13.28125 10.34375-39.070312 15.960938-40 5.695312.929688 16.039062 26.71875 16.039062 40 0 8.835938-7.164062 16-16 16zm56 56h-48v-41.136719c14.085938-3.636719 23.945312-16.316406 24-30.863281 0-11.488281-9.921875-56-32-56s-32 44.511719-32 56c.054688 14.546875 9.914062 27.226562 24 30.863281v41.136719h-48v-272h112zm208 0h-192v-300.0625l96-73.839844 96 73.839844zm72-56c-8.835938 0-16-7.164062-16-16s7.164062-16 16-16 16 7.164062 16 16-7.164062 16-16 16zm56 56h-48v-41.136719c15.601562-4.027343 25.777344-19.03125 23.746094-35.015625s-15.632813-27.96875-31.746094-27.96875-29.714844 11.984375-31.746094 27.96875 8.144532 30.988282 23.746094 35.015625v41.136719h-48v-272h112zm0 0"/><path d="m296 352h16v-16h-144v16h16v88h-24v16h160v-16h-24zm-96 0h32v34.222656c-4.945312 2.824219-7.996094 8.082032-7.996094 13.777344s3.050782 10.953125 7.996094 13.777344v26.222656h-32zm48 88v-26.222656c4.945312-2.824219 7.996094-8.082032 7.996094-13.777344s-3.050782-10.953125-7.996094-13.777344v-34.222656h32v88zm0 0"/><path d="m160 312h160v16h-160zm0 0"/></g><path d="m224 248h-48v48h48zm-16 32h-16v-16h16zm0 0" fill="url(#linear3)"/><path d="m256 296h48v-48h-48zm16-32h16v16h-16zm0 0" fill="url(#linear4)"/><path d="m224 184h-48v48h48zm-16 32h-16v-16h16zm0 0" fill="url(#linear3)"/><path d="m304 184h-48v48h48zm-16 32h-16v-16h16zm0 0" fill="url(#linear4)"/><path d="m432 272h-48v48h48zm-16 32h-16v-16h16zm0 0" fill="url(#linear7)"/><path d="m432 208h-48v48h48zm-16 32h-16v-16h16zm0 0" fill="url(#linear7)"/><path d="m96 272h-48v48h48zm-16 32h-16v-16h16zm0 0" fill="url(#linear9)"/><path d="m96 208h-48v48h48zm-16 32h-16v-16h16zm0 0" fill="url(#linear9)"/><path d="m240 160c13.253906 0 24-10.746094 24-24s-10.746094-24-24-24-24 10.746094-24 24 10.746094 24 24 24zm0-32c4.417969 0 8 3.582031 8 8s-3.582031 8-8 8-8-3.582031-8-8 3.582031-8 8-8zm0 0" fill="url(#linear0)"/></svg>