<svg height="480pt" viewBox="0 -44 480 480" width="480pt" xmlns="http://www.w3.org/2000/svg" xmlns:xlink="http://www.w3.org/1999/xlink"><linearGradient id="lg1"><stop offset="0" stop-color="#006df0"/><stop offset="1" stop-color="#00e7f0"/></linearGradient><linearGradient id="linear0" gradientUnits="userSpaceOnUse" x1="240" x2="240" xlink:href="#lg1" y1="413.64" y2="1.064"/><linearGradient id="linear1" gradientUnits="userSpaceOnUse" x1="336" x2="336" xlink:href="#lg1" y1="413.64" y2="1.064"/><linearGradient id="linear2" gradientUnits="userSpaceOnUse" x1="368" x2="368" xlink:href="#lg1" y1="413.64" y2="1.064"/><linearGradient id="linear3" gradientUnits="userSpaceOnUse" x1="400" x2="400" xlink:href="#lg1" y1="413.64" y2="1.064"/><linearGradient id="linear4" gradientUnits="userSpaceOnUse" x1="144" x2="144" xlink:href="#lg1" y1="413.64" y2="1.064"/><linearGradient id="linear5" gradientUnits="userSpaceOnUse" x1="112" x2="112" xlink:href="#lg1" y1="413.64" y2="1.064"/><linearGradient id="linear6" gradientUnits="userSpaceOnUse" x1="80" x2="80" xlink:href="#lg1" y1="413.64" y2="1.064"/><linearGradient id="linear7" gradientUnits="userSpaceOnUse" x1="108" x2="108" xlink:href="#lg1" y1="413.64" y2="1.064"/><linearGradient id="linear8" gradientUnits="userSpaceOnUse" x1="316" x2="316" xlink:href="#lg1" y1="413.64" y2="1.064"/><linearGradient id="linear9" gradientUnits="userSpaceOnUse" x1="168" x2="168" xlink:href="#lg1" y1="413.64" y2="1.064"/><linearGradient id="linear12" gradientUnits="userSpaceOnUse" x1="376" x2="376" xlink:href="#lg1" y1="413.64" y2="1.064"/><path d="m464 297.472656v-265.472656c0-17.671875-14.328125-32-32-32h-384c-17.671875 0-32 14.328125-32 32v265.472656c-9.554688 3.378906-15.9570312 12.394532-16 22.527344v48c0 13.253906 10.746094 24 24 24h432c13.253906 0 24-10.746094 24-24v-48c-.042969-10.132812-6.445312-19.148438-16-22.527344zm-416-281.472656h384c8.835938 0 16 7.164062 16 16v264h-16v-264h-384v264h-16v-264c0-8.835938 7.164062-16 16-16zm368 280h-110.113281c-9.097657-.03125-17.421875 5.113281-21.460938 13.265625l-7.160156 14.308594c-1.355469 2.710937-4.125 4.425781-7.152344 4.425781h-60.226562c-3.027344 0-5.796875-1.714844-7.152344-4.425781l-7.160156-14.308594c-4.039063-8.152344-12.363281-13.296875-21.460938-13.265625h-110.113281v-248h352zm48 72c0 4.417969-3.582031 8-8 8h-432c-4.417969 0-8-3.582031-8-8v-48c0-4.417969 3.582031-8 8-8h150.113281c3.027344 0 5.796875 1.714844 7.152344 4.425781l7.160156 14.308594c4.039063 8.152344 12.363281 13.296875 21.460938 13.265625h60.226562c9.097657.03125 17.421875-5.113281 21.460938-13.265625l7.160156-14.308594c1.355469-2.710937 4.125-4.425781 7.152344-4.425781h150.113281c4.417969 0 8 3.582031 8 8zm0 0" fill="url(#linear0)"/><path d="m328 336h16v16h-16zm0 0" fill="url(#linear1)"/><path d="m360 336h16v16h-16zm0 0" fill="url(#linear2)"/><path d="m392 336h16v16h-16zm0 0" fill="url(#linear3)"/><path d="m136 336h16v16h-16zm0 0" fill="url(#linear4)"/><path d="m104 336h16v16h-16zm0 0" fill="url(#linear5)"/><path d="m72 336h16v16h-16zm0 0" fill="url(#linear6)"/><path d="m96 232h40v-16h-40v-24h40v-16h-40v-24h40v-16h-40c-8.835938 0-16 7.164062-16 16v64c0 8.835938 7.164062 16 16 16zm0 0" fill="url(#linear7)"/><path d="m328 232h16v-16h-16c-13.253906 0-24-10.746094-24-24v-16c0-13.253906 10.746094-24 24-24h16v-16h-16c-22.082031.027344-39.972656 17.917969-40 40v16c.027344 22.082031 17.917969 39.972656 40 40zm0 0" fill="url(#linear8)"/><path d="m152 160h32v16h-32zm0 0" fill="url(#linear9)"/><path d="m152 192h32v16h-32zm0 0" fill="url(#linear9)"/><path d="m216 164.3125 24 56 24-56v67.6875h16v-96h-21.273438l-18.726562 43.6875-18.726562-43.6875h-21.273438v96h16zm0 0" fill="url(#linear0)"/><path d="m400 160h-31.785156c.558594-2.289062 2.101562-4.214844 4.210937-5.265625l14.308594-7.160156c8.152344-4.039063 13.296875-12.363281 13.265625-21.460938v-6.113281c0-13.253906-10.746094-24-24-24s-24 10.746094-24 24v8h16v-8c0-4.417969 3.582031-8 8-8s8 3.582031 8 8v6.113281c.007812 3.03125-1.707031 5.804688-4.425781 7.152344l-14.308594 7.160156c-8.152344 4.039063-13.296875 12.363281-13.265625 21.460938v14.113281h48zm0 0" fill="url(#linear12)"/></svg>