<svg height="480pt" viewBox="0 0 480 480" width="480pt" xmlns="http://www.w3.org/2000/svg" xmlns:xlink="http://www.w3.org/1999/xlink"><linearGradient id="lg1"><stop offset="0" stop-color="#006df0"/><stop offset="1" stop-color="#00e7f0"/></linearGradient><linearGradient id="linear0" gradientUnits="userSpaceOnUse" x1="88" x2="88" xlink:href="#lg1" y1="545.6" y2="-18.416"/><linearGradient id="linear1" gradientUnits="userSpaceOnUse" x1="184" x2="184" xlink:href="#lg1" y1="545.6" y2="-18.416"/><linearGradient id="linear2" gradientUnits="userSpaceOnUse" x1="216" x2="216" xlink:href="#lg1" y1="545.6" y2="-18.416"/><linearGradient id="linear3" gradientUnits="userSpaceOnUse" x1="248" x2="248" xlink:href="#lg1" y1="545.6" y2="-18.416"/><linearGradient id="linear4" gradientUnits="userSpaceOnUse" x1="280" x2="280" xlink:href="#lg1" y1="545.6" y2="-18.416"/><linearGradient id="linear5" gradientUnits="userSpaceOnUse" x1="312" x2="312" xlink:href="#lg1" y1="545.6" y2="-18.416"/><linearGradient id="linear6" gradientUnits="userSpaceOnUse" x1="240" x2="240" xlink:href="#lg1" y1="545.6" y2="-18.416"/><linearGradient id="linear7" gradientUnits="userSpaceOnUse" x1="72" x2="72" xlink:href="#lg1" y1="545.6" y2="-18.416"/><linearGradient id="linear8" gradientUnits="userSpaceOnUse" x1="192" x2="192" xlink:href="#lg1" y1="545.6" y2="-18.416"/><path d="m88 448c-8.3125 0-11.734375-8.390625-14.230469-14.519531-.417969-1.015625-.992187-2.402344-1.53125-3.609375-1.277343.464844-2.804687 1.097656-3.894531 1.554687-6.328125 2.636719-14.191406 5.902344-19.945312.167969-5.75-5.738281-2.460938-13.601562.175781-19.945312.457031-1.089844 1.089843-2.609376 1.554687-3.878907-1.167968-.546875-2.59375-1.121093-3.609375-1.546875-6.128906-2.496094-14.519531-5.917968-14.519531-14.222656s8.390625-11.726562 14.519531-14.222656c1.015625-.425782 2.402344-1 3.609375-1.546875-.464844-1.269531-1.097656-2.789063-1.554687-3.878907-2.628907-6.328124-5.917969-14.199218-.175781-19.953124 5.746093-5.75 13.601562-2.460938 19.9375.167968 1.097656.464844 2.625 1.097656 3.902343 1.601563.539063-1.167969 1.113281-2.59375 1.53125-3.609375 2.503907-6.167969 5.917969-14.558594 14.230469-14.558594s11.734375 8.390625 14.230469 14.519531c.417969 1.015625.992187 2.402344 1.53125 3.609375 1.277343-.464844 2.804687-1.097656 3.894531-1.554687 6.328125-2.628907 14.199219-5.902344 19.945312-.167969 5.742188 5.738281 2.460938 13.601562-.175781 19.945312-.457031 1.089844-1.089843 2.609376-1.554687 3.878907 1.167968.546875 2.59375 1.121093 3.609375 1.546875 6.128906 2.496094 14.519531 5.917968 14.519531 14.222656s-8.390625 11.726562-14.519531 14.222656c-1.015625.425782-2.402344 1-3.609375 1.546875.464844 1.269531 1.097656 2.789063 1.554687 3.878907 2.628907 6.328124 5.917969 14.199218.175781 19.953124-5.746093 5.75-13.601562 2.46875-19.9375-.167968-1.097656-.464844-2.625-1.097656-3.902343-1.601563-.539063 1.167969-1.113281 2.59375-1.53125 3.609375-2.503907 6.167969-5.917969 14.558594-14.230469 14.558594zm-13.792969-34.703125c1.582031-.011719 3.152344.289063 4.617188.886719 4.515625 2.5625 7.816406 6.824218 9.175781 11.832031 1.359375-5.011719 4.664062-9.273437 9.183594-11.832031 4.910156-1.414063 10.183594-.816406 14.65625 1.65625-2.472656-4.476563-3.070313-9.75-1.65625-14.664063 2.5625-4.507812 6.820312-7.8125 11.824218-9.175781-5.007812-1.363281-9.261718-4.667969-11.824218-9.183594-1.410156-4.914062-.816406-10.183594 1.65625-14.65625-4.476563 2.464844-9.75 3.0625-14.664063 1.65625-4.515625-2.5625-7.816406-6.824218-9.175781-11.832031-1.359375 5.011719-4.664062 9.273437-9.183594 11.832031-4.910156 1.421875-10.1875.824219-14.65625-1.65625 2.472656 4.476563 3.070313 9.75 1.65625 14.664063-2.5625 4.507812-6.820312 7.8125-11.824218 9.175781 5.007812 1.363281 9.261718 4.667969 11.824218 9.183594 1.410156 4.914062.816406 10.183594-1.65625 14.65625 3.160156-1.472656 6.566406-2.335938 10.046875-2.542969zm0 0" fill="url(#linear0)"/><path d="m176 384h16v16h-16zm0 0" fill="url(#linear1)"/><path d="m208 384h16v16h-16zm0 0" fill="url(#linear2)"/><path d="m240 384h16v16h-16zm0 0" fill="url(#linear3)"/><path d="m272 384h16v16h-16zm0 0" fill="url(#linear4)"/><path d="m304 384h16v16h-16zm0 0" fill="url(#linear5)"/><path d="m480 72c-.042969-39.746094-32.253906-71.9570312-72-72h-336c-39.746094.0429688-71.9570312 32.253906-72 72v408h352v-232h128zm-144 392h-320v-392c.035156-30.914062 25.085938-55.964844 56-56h290.847656c-16.96875 13.636719-26.84375 34.230469-26.847656 56zm128-232h-112v-160c0-30.929688 25.070312-56 56-56s56 25.070312 56 56zm0 0" fill="url(#linear6)"/><path d="m64 48h16v16h-16zm0 0" fill="url(#linear7)"/><path d="m96 48h192v16h-192zm0 0" fill="url(#linear8)"/><path d="m64 88h16v16h-16zm0 0" fill="url(#linear7)"/><path d="m96 88h192v16h-192zm0 0" fill="url(#linear8)"/><path d="m64 136h16v16h-16zm0 0" fill="url(#linear7)"/><path d="m96 136h192v16h-192zm0 0" fill="url(#linear8)"/><path d="m64 184h16v16h-16zm0 0" fill="url(#linear7)"/><path d="m96 184h192v16h-192zm0 0" fill="url(#linear8)"/><path d="m64 232h16v16h-16zm0 0" fill="url(#linear7)"/><path d="m96 232h192v16h-192zm0 0" fill="url(#linear8)"/><path d="m64 280h16v16h-16zm0 0" fill="url(#linear7)"/><path d="m96 280h192v16h-192zm0 0" fill="url(#linear8)"/></svg>