<svg height="480pt" viewBox="-1 0 480 480.24" width="480pt" xmlns="http://www.w3.org/2000/svg" xmlns:xlink="http://www.w3.org/1999/xlink"><linearGradient id="lg1"><stop offset="0" stop-color="#006df0"/><stop offset="1" stop-color="#00e7f0"/></linearGradient><linearGradient id="linear0" gradientUnits="userSpaceOnUse" x1="176.12" x2="176.12" xlink:href="#lg1" y1="534.552" y2="-33.024"/><linearGradient id="linear3" gradientUnits="userSpaceOnUse" x1="152.12" x2="152.12" xlink:href="#lg1" y1="534.552" y2="-33.024"/><linearGradient id="linear4" gradientUnits="userSpaceOnUse" x1="192.12" x2="192.12" xlink:href="#lg1" y1="534.552" y2="-33.024"/><linearGradient id="linear5" gradientUnits="userSpaceOnUse" x1="416.408" x2="416.408" xlink:href="#lg1" y1="534.552" y2="-33.024"/><linearGradient id="linear9" gradientUnits="userSpaceOnUse" x1="172.12" x2="172.12" xlink:href="#lg1" y1="534.552" y2="-33.024"/><g fill="url(#linear0)"><path d="m312.121094 0h-272c-22.082032.0273438-39.976563 17.917969-40 40v400c.023437 22.082031 17.917968 39.972656 40 40h272c22.078125-.027344 39.972656-17.917969 40-40v-400c-.027344-22.082031-17.921875-39.9726562-40-40zm-272 16h272c13.253906 0 24 10.746094 24 24v8h-320v-8c0-13.253906 10.742187-24 24-24zm296 48v336h-320v-336zm-24 400h-272c-13.257813 0-24-10.746094-24-24v-24h320v24c0 13.253906-10.746094 24-24 24zm0 0"/><path d="m320.121094 384v-304h-288v304zm-272-288h256v272h-256zm0 0"/><path d="m200.121094 440c0-13.253906-10.746094-24-24-24-13.257813 0-24 10.746094-24 24s10.742187 24 24 24c13.253906 0 24-10.746094 24-24zm-24 8c-4.417969 0-8-3.582031-8-8s3.582031-8 8-8c4.417968 0 8 3.582031 8 8s-3.582032 8-8 8zm0 0"/></g><path d="m144.121094 24h16v16h-16zm0 0" fill="url(#linear3)"/><path d="m176.121094 24h32v16h-32zm0 0" fill="url(#linear4)"/><path d="m472.425781 426.265625c1.070313-.882813 2.023438-1.894531 2.839844-3.019531 2.4375-3.46875 3.390625-7.773438 2.644531-11.949219l-59.734375-338.777344c-3.070312-17.40625-19.671875-29.027343-37.074219-25.957031-17.40625 3.070312-29.027343 19.671875-25.957031 37.078125l59.734375 338.757813c.726563 4.1875 3.097656 7.90625 6.585938 10.328124 1.144531.765626 2.378906 1.378907 3.679687 1.824219l4.558594 25.847657c2.015625 11.457031 11.953125 19.816406 23.585937 19.839843 1.414063.003907 2.828126-.121093 4.222657-.367187 13.054687-2.300782 21.769531-14.753906 19.464843-27.808594zm-41.785156-6.632813-5.601563-31.519531 31.527344-5.601562 5.601563 31.511719zm-17.105469-281.304687 40.296875 228.472656-31.527343 5.597657-40.289063-228.511719zm-34.296875-10.199219-8.335937-47.273437c-1.53125-8.703125 4.28125-17.003907 12.984375-18.535157.929687-.164062 1.867187-.246093 2.808593-.25 7.753907.019532 14.378907 5.597657 15.71875 13.234376l8.339844 47.261718zm75.488281 336c-4.347656.765625-8.496093-2.140625-9.261718-6.488281l-4.167969-23.632813 15.757813-2.785156 4.167968 23.632813c.765625 4.351562-2.140625 8.5-6.496094 9.265625zm0 0" fill="url(#linear5)"/><path d="m80.121094 152v168c0 17.671875 14.324218 32 32 32h160v-240h-152c-22.082032.027344-39.976563 17.917969-40 40zm32-22.527344v158.527344c-5.636719.03125-11.160156 1.570312-16 4.449219v-140.449219c.039062-10.132812 6.445312-19.148438 16-22.527344zm0 206.527344c-8.835938 0-16-7.164062-16-16s7.164062-16 16-16h144v8h-128v16h128v8zm144-48h-128v-160h128zm0 0" fill="url(#linear0)"/><path d="m240.121094 144h-96v48h96zm-16 32h-64v-16h64zm0 0" fill="url(#linear4)"/><path d="m144.121094 200h96v16h-96zm0 0" fill="url(#linear4)"/><path d="m144.121094 224h56v16h-56zm0 0" fill="url(#linear9)"/></svg>