<svg height="480pt" viewBox="0 0 480 480" width="480pt" xmlns="http://www.w3.org/2000/svg" xmlns:xlink="http://www.w3.org/1999/xlink"><linearGradient id="lg1"><stop offset="0" stop-color="#006df0"/><stop offset="1" stop-color="#00e7f0"/></linearGradient><linearGradient id="linear0" gradientUnits="userSpaceOnUse" x1="56" x2="56" xlink:href="#lg1" y1="542.072" y2="-15.384"/><linearGradient id="linear1" gradientUnits="userSpaceOnUse" x1="408" x2="408" xlink:href="#lg1" y1="542.072" y2="-15.384"/><linearGradient id="linear2" gradientUnits="userSpaceOnUse" x1="224" x2="224" xlink:href="#lg1" y1="542.072" y2="-15.384"/><path d="m56 0c-30.914062.0351562-55.9648438 25.085938-56 56v338.398438l56 84 56-84v-338.398438c-.035156-30.914062-25.085938-55.9648438-56-56zm8 357.601562-8 12-8-12v-245.601562h16zm-32-.890624-16 16v-260.710938h16zm-13.703125 36.304687 20.464844-20.457031 17.238281 25.839844 17.238281-25.863282 20.464844 20.457032-37.703125 56.609374zm77.703125-20.328125-16-16v-244.6875h16zm0-276.6875h-80v-16h80zm-80-32v-8c0-22.089844 17.910156-40 40-40s40 17.910156 40 40v8zm0 0" fill="url(#linear0)"/><path d="m456 0h-64c-13.253906 0-24 10.746094-24 24v40h-8c-13.253906 0-24 10.746094-24 24v136h16v-136c0-4.417969 3.582031-8 8-8h8v306.398438l48 72v21.601562h16v-21.601562l48-72v-362.398438c0-13.253906-10.746094-24-24-24zm-72 376v-16h80v16zm73.054688 16-33.054688 49.601562-33.054688-49.601562zm-73.054688-48v-16h80v16zm80-32h-80v-232h80zm-80-248v-40c0-4.417969 3.582031-8 8-8h64c4.417969 0 8 3.582031 8 8v40zm0 0" fill="url(#linear1)"/><g fill="url(#linear2)"><path d="m144 0v480h160v-480zm16 464v-448h128v88h-56v16h56v16h-32v16h32v16h-56v16h56v16h-32v16h32v16h-56v16h56v16h-32v16h32v16h-56v16h56v16h-32v16h32v16h-56v16h56v16h-32v16h32v16h-56v16h56v24zm0 0"/><path d="m224 72c-13.253906 0-24-10.746094-24-24s10.746094-24 24-24 24 10.746094 24 24-10.746094 24-24 24zm0-32c-4.417969 0-8 3.582031-8 8s3.582031 8 8 8 8-3.582031 8-8-3.582031-8-8-8zm0 0"/></g></svg>