<svg height="480pt" viewBox="0 0 480 480" width="480pt" xmlns="http://www.w3.org/2000/svg" xmlns:xlink="http://www.w3.org/1999/xlink"><linearGradient id="lg1"><stop offset="0" stop-color="#006df0"/><stop offset="1" stop-color="#00e7f0"/></linearGradient><linearGradient id="linear0" gradientUnits="userSpaceOnUse" x1="240" x2="240" xlink:href="#lg1" y1="527.248" y2="-29.952"/><linearGradient id="linear1" gradientUnits="userSpaceOnUse" x1="208" x2="208" xlink:href="#lg1" y1="527.248" y2="-29.952"/><linearGradient id="linear3" gradientUnits="userSpaceOnUse" x1="272" x2="272" xlink:href="#lg1" y1="527.248" y2="-29.952"/><linearGradient id="linear5" gradientUnits="userSpaceOnUse" x1="252.944" x2="252.944" xlink:href="#lg1" y1="527.248" y2="-29.952"/><linearGradient id="linear7" gradientUnits="userSpaceOnUse" x1="168" x2="168" xlink:href="#lg1" y1="527.248" y2="-29.952"/><linearGradient id="linear8" gradientUnits="userSpaceOnUse" x1="236" x2="236" xlink:href="#lg1" y1="527.248" y2="-29.952"/><path d="m464 401.472656v-233.472656c0-17.671875-14.328125-32-32-32h-32v-67.3125l-68.6875-68.6875h-251.3125v136h-32c-17.671875 0-32 14.328125-32 32v233.472656c-9.554688 3.378906-15.9570312 12.394532-16 22.527344v32c0 13.253906 10.746094 24 24 24h432c13.253906 0 24-10.746094 24-24v-32c-.042969-10.132812-6.445312-19.148438-16-22.527344zm-32-249.472656c8.835938 0 16 7.164062 16 16v232h-16v-232h-32v-16zm-32 200v-168h16v216h-111.441406c-8.035156-.019531-15.546875 3.996094-20 10.6875l-6.496094 9.753906c-1.476562 2.214844-3.960938 3.546875-6.621094 3.558594h-62.882812c-2.671875 0-5.171875-1.335938-6.65625-3.558594l-6.496094-9.753906c-4.441406-6.683594-11.941406-10.695312-19.964844-10.6875h-111.441406v-216h16v168zm-64-324.6875 36.6875 36.6875h-36.6875zm-240-11.3125h224v64h64v256h-288zm-48 136h32v16h-32v232h-16v-232c0-8.835938 7.164062-16 16-16zm416 304c0 4.417969-3.582031 8-8 8h-432c-4.417969 0-8-3.582031-8-8v-32c0-4.417969 3.582031-8 8-8h151.441406c2.671875 0 5.171875 1.335938 6.65625 3.558594l6.496094 9.753906c4.441406 6.683594 11.941406 10.695312 19.964844 10.6875h62.882812c8.035156.019531 15.546875-3.996094 20-10.6875l6.496094-9.753906c1.476562-2.214844 3.960938-3.546875 6.621094-3.558594h151.441406c4.417969 0 8 3.582031 8 8zm0 0" fill="url(#linear0)"/><path d="m200 368h16v16h-16zm0 0" fill="url(#linear1)"/><path d="m232 368h16v16h-16zm0 0" fill="url(#linear0)"/><path d="m264 368h16v16h-16zm0 0" fill="url(#linear3)"/><path d="m136 272h208v-136h-208zm16-120h176v104h-176zm0 0" fill="url(#linear0)"/><path d="m216 236.945312 73.886719-36.945312-73.886719-36.945312zm16-48 22.113281 11.054688-22.113281 11.054688zm0 0" fill="url(#linear5)"/><path d="m136 104h144v16h-144zm0 0" fill="url(#linear1)"/><path d="m136 80h64v16h-64zm0 0" fill="url(#linear7)"/><path d="m168 280h-16v8h-16v16h16v8h16v-8h168v-16h-168zm0 0" fill="url(#linear8)"/></svg>