<svg height="480pt" viewBox="0 0 480 480" width="480pt" xmlns="http://www.w3.org/2000/svg" xmlns:xlink="http://www.w3.org/1999/xlink"><linearGradient id="lg1"><stop offset="0" stop-color="#006df0"/><stop offset="1" stop-color="#00e7f0"/></linearGradient><linearGradient id="linear0" gradientUnits="userSpaceOnUse" x1="240" x2="240" xlink:href="#lg1" y1="545.616" y2="6.776"/><linearGradient id="linear2" gradientUnits="userSpaceOnUse" x1="436" x2="436" xlink:href="#lg1" y1="545.616" y2="6.776"/><linearGradient id="linear3" gradientUnits="userSpaceOnUse" x1="44" x2="44" xlink:href="#lg1" y1="545.616" y2="6.776"/><linearGradient id="linear4" gradientUnits="userSpaceOnUse" x1="252.944" x2="252.944" xlink:href="#lg1" y1="545.616" y2="6.776"/><path d="m480 16v-16h-480v16h72v48h-72v16h104v320h-104v16h72v48h-72v16h480v-16h-72v-48h72v-16h-104v-320h104v-16h-72v-48zm-200 0h48v48h-48zm-64 0h48v48h-48zm-64 0h48v48h-48zm-64 48v-48h48v48zm48 400h-48v-48h48zm64 0h-48v-48h48zm64 0h-48v-48h48zm64 0h-48v-48h48zm64-48v48h-48v-48zm-32-16h-240v-320h240zm32-336h-48v-48h48zm0 0" fill="url(#linear0)"/><path d="m136 368h208v-256h-208zm16-240h176v224h-176zm0 0" fill="url(#linear0)"/><path d="m392 368h88v-16h-72v-224h72v-16h-88zm0 0" fill="url(#linear2)"/><path d="m88 112h-88v16h72v224h-72v16h88zm0 0" fill="url(#linear3)"/><path d="m192 300.945312 121.886719-60.945312-121.886719-60.945312zm16-96 70.113281 35.054688-70.113281 35.054688zm0 0" fill="url(#linear4)"/></svg>