<svg height="490pt" viewBox="0 -6 490.4 490" width="490pt" xmlns="http://www.w3.org/2000/svg" xmlns:xlink="http://www.w3.org/1999/xlink"><linearGradient id="lg1"><stop offset="0" stop-color="#006df0"/><stop offset="1" stop-color="#00e7f0"/></linearGradient><linearGradient id="linear0" gradientUnits="userSpaceOnUse" x1="245.208" x2="245.208" xlink:href="#lg1" y1="505.837446" y2="-4.482554"/><linearGradient id="linear1" gradientUnits="userSpaceOnUse" x1="56" x2="56" xlink:href="#lg1" y1="505.837446" y2="-4.482554"/><linearGradient id="linear2" gradientUnits="userSpaceOnUse" x1="136" x2="136" xlink:href="#lg1" y1="505.837446" y2="-4.482554"/><linearGradient id="linear3" gradientUnits="userSpaceOnUse" x1="144" x2="144" xlink:href="#lg1" y1="505.837446" y2="-4.482554"/><linearGradient id="linear4" gradientUnits="userSpaceOnUse" x1="156" x2="156" xlink:href="#lg1" y1="505.837446" y2="-4.482554"/><linearGradient id="linear5" gradientUnits="userSpaceOnUse" x1="152" x2="152" xlink:href="#lg1" y1="505.837446" y2="-4.482554"/><linearGradient id="linear6" gradientUnits="userSpaceOnUse" x1="184" x2="184" xlink:href="#lg1" y1="505.837446" y2="-4.482554"/><linearGradient id="linear7" gradientUnits="userSpaceOnUse" x1="216" x2="216" xlink:href="#lg1" y1="505.837446" y2="-4.482554"/><path d="m406.398438 320.207031h-70.398438v-16.410156c65.390625-3.3125 121.296875-48.152344 138.730469-111.261719 17.429687-63.109375-7.542969-130.289062-61.960938-166.691406-54.421875-36.402344-126.042969-33.839844-177.722656 6.363281h-179.046875c-30.914062.035157-55.9648438 25.085938-56 56v312c.0273438 26.496094 21.5 47.972657 48 48h176v30.949219l32-21.351562 32 21.335937v-30.933594h48v-16h70.398438l84-56zm-21.535157 56 18.730469-38.640625 25.566406 17.039063c-6.875 13.578125-6.875 29.621093 0 43.199219l-25.542968 17.039062zm55.136719 0c.019531-4.34375.925781-8.632812 2.664062-12.609375l18.9375 12.609375-18.914062 12.605469c-1.746094-3.972656-2.660156-8.265625-2.6875-12.605469zm-53.511719-40-15.503906 32h-34.984375v-32zm-50.488281-176h71.761719c-.53125 17.363281-3.179688 34.597657-7.882813 51.320313-20.636718-6.804688-42.15625-10.558594-63.878906-11.144532zm0-16v-40.175781c21.722656-.585938 43.242188-4.339844 63.878906-11.144531 4.703125 16.722656 7.351563 33.957031 7.882813 51.320312zm-16-56.34375c-19.988281-.585937-39.789062-4.074219-58.777344-10.355469 12.9375-33.300781 34.226563-56.445312 58.777344-60.613281zm-63.878906 5.023438c20.636718 6.800781 42.15625 10.554687 63.878906 11.144531v40.175781h-71.761719c.53125-17.363281 3.179688-34.597656 7.882813-51.320312zm63.878906 67.320312v40.175781c-21.722656.582032-43.242188 4.339844-63.878906 11.144532-4.703125-16.722656-7.351563-33.957032-7.882813-51.320313zm0 56.34375v70.964844c-24.550781-4.167969-45.839844-27.300781-58.777344-60.613281 18.988282-6.28125 38.789063-9.769532 58.777344-10.351563zm16 70.964844v-70.964844c19.988281.582031 39.789062 4.070313 58.777344 10.351563-12.9375 33.304687-34.226563 56.445312-58.777344 60.613281zm87.742188-127.308594h39.851562c-1.445312 25.25-9.949219 49.589844-24.546875 70.246094-7.714844-5.140625-15.886719-9.554687-24.414063-13.191406 5.484376-18.546875 8.546876-37.722657 9.109376-57.054688zm0-16c-.5625-19.332031-3.625-38.511719-9.109376-57.058593 8.523438-3.636719 16.699219-8.054688 24.414063-13.191407 14.597656 20.65625 23.101563 44.996094 24.546875 70.25zm-87.742188-56.34375v-70.96875c24.550781 4.167969 45.839844 27.304688 58.777344 60.613281-18.988282 6.285157-38.789063 9.769532-58.777344 10.355469zm-89.398438-15.859375c-6.816406-2.96875-13.378906-6.492187-19.617187-10.535156 12.761719-14.238281 28.371094-25.636719 45.816406-33.464844-11.25 13.015625-20.117187 27.910156-26.199219 44zm-29.648437 1.953125c7.714844 5.140625 15.886719 9.554688 24.414063 13.191407-5.484376 18.546874-8.546876 37.726562-9.109376 57.058593h-39.851562c1.445312-25.253906 9.949219-49.59375 24.546875-70.25zm15.304687 86.25c.5625 19.332031 3.625 38.507813 9.109376 57.054688-8.523438 3.640625-16.699219 8.054687-24.414063 13.191406-14.597656-20.65625-23.101563-44.996094-24.546875-70.246094zm14.34375 72.199219c6.089844 16.09375 14.96875 30.988281 26.230469 44-17.457031-7.824219-33.078125-19.222656-45.847656-33.464844 6.238281-4.042968 12.800781-7.566406 19.617187-10.535156zm136.566407 44c11.261719-13.011719 20.140625-27.90625 26.230469-44 6.816406 2.96875 13.378906 6.492188 19.617187 10.535156-12.761719 14.238282-28.371094 25.636719-45.816406 33.464844zm45.847656-214.9375c-6.238281 4.042969-12.800781 7.566406-19.617187 10.535156-6.089844-16.089844-14.96875-30.984375-26.230469-44 17.457031 7.824219 33.078125 19.222656 45.847656 33.464844zm-373.015625-13.261719h161.457031c-40.660156 42.988281-52.59375 105.707031-30.558593 160.625 22.03125 54.917969 74.003906 91.996094 133.101562 94.964844v48.410156h-272c-11.8125 0-23.207031 4.359375-32 12.246094v-276.246094c.027344-22.082031 17.917969-39.976562 40-40zm-8 384c-17.671875 0-32-14.328125-32-32 0-17.675781 14.328125-32 32-32h272v24h-280c-4.417969 0-8 3.582031-8 8s3.582031 8 8 8h184v24zm224 17.046875-16-10.648437-16 10.664062v-41.0625h32zm16-17.046875v-24h32v24zm48-48h34.984375l15.503906 32h-50.488281zm0 0" fill="url(#linear0)"/><path d="m56 336.207031c4.417969 0 8-3.582031 8-8v-256c0-4.417969-3.582031-8-8-8s-8 3.582031-8 8v256c0 4.417969 3.582031 8 8 8zm0 0" fill="url(#linear1)"/><path d="m168 176.207031h-56v-80h64v-16h-80v112h72zm0 0" fill="url(#linear2)"/><path d="m112 200.207031h64v16h-64zm0 0" fill="url(#linear3)"/><path d="m136 224.207031h40v16h-40zm0 0" fill="url(#linear4)"/><path d="m144 320.207031h16v16h-16zm0 0" fill="url(#linear5)"/><path d="m176 320.207031h16v16h-16zm0 0" fill="url(#linear6)"/><path d="m208 320.207031h16v16h-16zm0 0" fill="url(#linear7)"/></svg>