<svg height="476pt" viewBox="0 -16 476.648 476" width="476pt" xmlns="http://www.w3.org/2000/svg" xmlns:xlink="http://www.w3.org/1999/xlink"><linearGradient id="lg1"><stop offset="0" stop-color="#006df0"/><stop offset="1" stop-color="#00e7f0"/></linearGradient><linearGradient id="linear0" gradientUnits="userSpaceOnUse" x1="238.32" x2="238.32" xlink:href="#lg1" y1="476.326445" y2="-7.633555"/><linearGradient id="linear1" gradientUnits="userSpaceOnUse" x1="412.648" x2="412.648" xlink:href="#lg1" y1="476.326445" y2="-7.633555"/><path d="m348.648438 175.453125v32h-22.3125c-4.734376.019531-9.371094-1.375-13.3125-4l-9.480469-6.320313 128.511719-128.519531c15.625-15.621093 15.625-40.949219.003906-56.570312-15.621094-15.625-40.949219-15.625-56.570313-.003907l-180 180v-.585937h-46.839843c-22.652344.054687-43.96875 10.710937-57.601563 28.800781l-60.152344 80.199219c-11.855469 15.949219-10.273437 38.171875 3.722657 52.28125l.078124.078125-6.398437 6.402344-28.296875 84.886718 84.886719-28.296874 17.023437-17.023438c3.160156 9.902344 12.34375 16.636719 22.738282 16.671875h114.742187c10.613281.027344 20.796875-4.191406 28.28125-11.71875l13.265625-13.246094c4.507812-4.492187 10.605469-7.019531 16.964844-7.035156h50.746094v32h128v-240zm-208.527344 162.496094c-17.65625 5.496093-31.480469 19.320312-36.976563 36.976562l-22.601562 22.601563-11.328125-11.328125 289.304687-289.304688 11.289063 11.289063zm56.527344-33.917969v23.421875c0 4.417969-3.582032 8-8 8h-23.410157zm190.160156-280.679688c6.046875-6.144531 14.925781-8.574218 23.257812-6.367187 8.332032 2.210937 14.839844 8.71875 17.046875 17.054687 2.207031 8.332032-.222656 17.210938-6.371093 23.253907l-16.964844 16.976562-33.945313-33.941406zm5.65625 62.230469-11.304688 11.3125-33.945312-33.945312 11.304687-11.3125zm-45.257813 0-289.304687 289.304688-11.328125-11.328125 289.347656-289.265625zm-301.277343 255.839844c-8.394532-8.46875-9.34375-21.800781-2.234376-31.375l60.152344-80.191406c10.605469-14.066407 27.183594-22.355469 44.800782-22.402344h31.449218l-134.089844 134.050781zm-7.152344 36.960937 26.941406 26.953126-40.421875 13.46875zm259.125-10.929687c-10.613282-.023437-20.792969 4.195313-28.277344 11.722656l-13.265625 13.246094c-4.507813 4.488281-10.605469 7.015625-16.96875 7.03125h-114.742187c-4.417969 0-8-3.582031-8-8 .027343-22.078125 17.917968-39.972656 40-40h32c13.253906 0 24-10.742187 24-24v-39.421875l79.359374-79.394531 12.136719 8.097656c6.566407 4.390625 14.292969 6.730469 22.191407 6.71875h22.3125v144zm162.746094 32h-96v-208h96zm0 0" fill="url(#linear0)"/><path d="m412.648438 383.453125c13.253906 0 24-10.742187 24-24 0-13.253906-10.746094-24-24-24-13.253907 0-24 10.746094-24 24 0 13.257813 10.746093 24 24 24zm0-32c4.417968 0 8 3.582031 8 8s-3.582032 8-8 8c-4.417969 0-8-3.582031-8-8s3.582031-8 8-8zm0 0" fill="url(#linear1)"/></svg>